<?xml version="1.0" encoding="utf-8"?>
<!-- Generator: Adobe Illustrator 22.0.1, SVG Export Plug-In . SVG Version: 6.00 Build 0)  -->
<svg version="1.1" id="Layer_1" xmlns="http://www.w3.org/2000/svg" xmlns:xlink="http://www.w3.org/1999/xlink" x="0px" y="0px"
	 viewBox="0 0 729 668" style="enable-background:new 0 0 729 668;" xml:space="preserve">
<style type="text/css">
	.st0{display:none;}
	.st1{fill:#FFFFFF;}
	.st2{display:inline;fill:#FFFFFF;}
	.st3{display:inline;}
	.st4{fill:#D1710A;}
	.st5{fill:#65002C;stroke:#65002C;stroke-miterlimit:10;}
	.st6{display:none;fill:#FFFFFF;stroke:#000000;stroke-miterlimit:10;}
	.st7{fill:url(#SVGID_1_);stroke:#65002C;stroke-miterlimit:10;}
	.st8{display:inline;fill:url(#SVGID_2_);stroke:#65002C;stroke-miterlimit:10;}
	.st9{display:inline;fill:#B7C0CB;stroke:#65002C;stroke-miterlimit:10;}
	.st10{display:inline;fill:#030303;stroke:#65002C;stroke-miterlimit:10;}
	.st11{display:inline;fill:url(#SVGID_3_);stroke:#65002C;stroke-miterlimit:10;}
	.st12{fill:url(#SVGID_4_);stroke:#65002C;stroke-miterlimit:10;}
	.st13{fill:url(#SVGID_5_);stroke:#65002C;stroke-miterlimit:10;}
	.st14{display:inline;fill:url(#SVGID_6_);stroke:#65002C;stroke-miterlimit:10;}
	.st15{display:inline;fill:url(#SVGID_7_);stroke:#65002C;stroke-miterlimit:10;}
	.st16{display:inline;fill:#DEDEDE;stroke:#65002C;stroke-miterlimit:10;}
	.st17{display:inline;fill:#DFE3E8;stroke:#65002C;stroke-miterlimit:10;}
	.st18{fill:#747474;stroke:#65002C;stroke-miterlimit:10;}
	.st19{display:inline;fill:url(#SVGID_8_);stroke:#65002C;stroke-miterlimit:10;}
	.st20{display:inline;fill:url(#SVGID_9_);stroke:#65002C;stroke-miterlimit:10;}
	.st21{fill:#FFF2C2;stroke:#65002C;stroke-miterlimit:10;}
	.st22{fill:#FFF8DE;stroke:#65002C;stroke-miterlimit:10;}
	.st23{fill:url(#SVGID_10_);stroke:#65002C;stroke-miterlimit:10;}
	.st24{fill:url(#SVGID_11_);stroke:#65002C;stroke-miterlimit:10;}
	.st25{fill:url(#SVGID_12_);stroke:#65002C;stroke-miterlimit:10;}
	.st26{fill:url(#SVGID_13_);stroke:#65002C;stroke-miterlimit:10;}
	.st27{fill:#D38903;stroke:#65002C;stroke-miterlimit:10;}
	.st28{fill:url(#SVGID_14_);stroke:#65002C;stroke-miterlimit:10;}
	.st29{fill:#BB6600;stroke:#65002C;stroke-miterlimit:10;}
	.st30{fill:url(#SVGID_15_);stroke:#65002C;stroke-miterlimit:10;}
	.st31{fill:#65002C;}
	.st32{fill:url(#SVGID_16_);stroke:#65002C;stroke-miterlimit:10;}
	.st33{display:inline;fill:url(#SVGID_17_);stroke:#65002C;stroke-miterlimit:10;}
	.st34{display:inline;fill:url(#SVGID_18_);stroke:#65002C;stroke-miterlimit:10;}
	.st35{fill:url(#SVGID_19_);stroke:#65002C;stroke-miterlimit:10;}
	.st36{fill:url(#SVGID_20_);stroke:#65002C;stroke-miterlimit:10;}
	.st37{display:inline;fill:url(#SVGID_21_);stroke:#65002C;stroke-miterlimit:10;}
	.st38{display:inline;fill:url(#SVGID_22_);stroke:#65002C;stroke-miterlimit:10;}
	.st39{display:inline;fill:url(#SVGID_23_);stroke:#65002C;stroke-miterlimit:10;}
	.st40{display:inline;fill:url(#SVGID_24_);stroke:#65002C;stroke-miterlimit:10;}
	.st41{fill:url(#SVGID_25_);stroke:#65002C;stroke-miterlimit:10;}
	.st42{fill:url(#SVGID_26_);stroke:#65002C;stroke-miterlimit:10;}
	.st43{fill:url(#SVGID_27_);stroke:#65002C;stroke-miterlimit:10;}
	.st44{fill:url(#SVGID_28_);stroke:#65002C;stroke-miterlimit:10;}
	.st45{fill:url(#SVGID_29_);stroke:#65002C;stroke-miterlimit:10;}
	.st46{fill:url(#SVGID_30_);stroke:#65002C;stroke-miterlimit:10;}
	.st47{fill:url(#SVGID_31_);stroke:#65002C;stroke-miterlimit:10;}
	.st48{display:inline;fill:url(#SVGID_32_);stroke:#65002C;stroke-miterlimit:10;}
	.st49{display:inline;fill:url(#SVGID_33_);stroke:#65002C;stroke-miterlimit:10;}
	.st50{fill:url(#SVGID_34_);stroke:#65002C;stroke-miterlimit:10;}
	.st51{fill:url(#SVGID_35_);stroke:#65002C;stroke-miterlimit:10;}
	.st52{display:inline;fill:url(#SVGID_36_);stroke:#65002C;stroke-miterlimit:10;}
	.st53{display:inline;fill:url(#SVGID_37_);stroke:#65002C;stroke-miterlimit:10;}
	.st54{display:inline;fill:url(#SVGID_38_);stroke:#65002C;stroke-miterlimit:10;}
	.st55{display:inline;fill:url(#SVGID_39_);stroke:#65002C;stroke-miterlimit:10;}
	.st56{fill:url(#SVGID_40_);stroke:#65002C;stroke-miterlimit:10;}
	.st57{fill:url(#SVGID_41_);stroke:#65002C;stroke-miterlimit:10;}
	.st58{fill:url(#SVGID_42_);stroke:#65002C;stroke-miterlimit:10;}
	.st59{fill:url(#SVGID_43_);stroke:#65002C;stroke-miterlimit:10;}
	.st60{fill:url(#SVGID_44_);stroke:#65002C;stroke-miterlimit:10;}
	.st61{fill:url(#SVGID_45_);stroke:#65002C;stroke-miterlimit:10;}
</style>
<g>
	<g class="st0">
		<path class="st1" d="M1504.1,726.7h-1.2c-18.4,0-36.6,1.2-54.2,3.4l-65.7-96.7l123.6-45.7l123.6,45.7l-66.3,97.4
			C1544.5,728.2,1524.4,726.7,1504.1,726.7z"/>
		<path class="st2" d="M1630.1,779.6c0,0-5.4-10.3-123.6-10.3c-118.1,0-123.6,10.3-123.6,10.3v-12.2c0,0,3.3-26,123.6-26
			c120.2,0,123.6,26,123.6,26V779.6z"/>
		<path class="st2" d="M1630.1,779.6c0,6.4-55.3,10.8-123.6,10.8s-123.6-4.4-123.6-10.8c0-6.4,55.3-14.1,123.6-14.1
			C1574.8,765.5,1630.1,773.2,1630.1,779.6z"/>
		<path class="st2" d="M1618.9,781c0,4.5-50.3,7.5-112.4,7.5c-62.1,0-112.4-3.1-112.4-7.5c0-4.5,50.3-9.8,112.4-9.8
			C1568.6,771.2,1618.9,776.5,1618.9,781z"/>
		<path class="st2" d="M1630.1,767.4c0,0-5.4-12.5-123.6-12.5c-118.1,0-123.6,12.5-123.6,12.5v-43.2c0,0,2.1-25.7,123.6-25.7
			c121.5,0,123.6,25.7,123.6,25.7V767.4z"/>
		<path class="st1" d="M1630.1,705.4c0,0-5.4-18.2-123.6-18.2c-118.1,0-123.6,18.2-123.6,18.2v-86.3c0,0,9-51.5,123.6-51.5
			c114.5,0,123.6,51.5,123.6,51.5V705.4z"/>
		<path class="st1" d="M1630.1,713.9c0,0-5.4-18.2-123.6-18.2c-118.1,0-123.6,18.2-123.6,18.2v-94.8c0,0,9-43,123.6-43
			c114.5,0,123.6,43,123.6,43V713.9z"/>
		<path class="st2" d="M1382.9,713.9c0,0,3.7-24.7,120-24.7c116.6,0,127.2,24.7,127.2,24.7s-61.6-11.6-127.2-11.6
			C1437.4,702.4,1382.9,713.9,1382.9,713.9z"/>
		<path class="st2" d="M1506.5,707c-118.1,0-123.6,17.2-123.6,17.2v-10.3c0,0,5.4-18.2,123.6-18.2c118.1,0,123.6,18.2,123.6,18.2
			v10.3C1630.1,724.3,1624.6,707,1506.5,707z"/>
		<path class="st2" d="M1382.9,713.9c0.6-1.2,1.6-2.1,2.7-2.8c1.1-0.8,2.2-1.4,3.4-2c2.3-1.2,4.8-2.1,7.3-3c5-1.6,10.2-2.8,15.4-3.7
			c10.4-1.9,20.9-3,31.4-3.9c21.1-1.6,42.2-2.1,63.4-2c10.6,0,21.2,0.1,31.7,0.4c10.6,0.3,21.1,0.8,31.7,1.6c10.5,0.9,21,2,31.4,3.9
			c5.2,0.9,10.3,2.1,15.4,3.7c2.5,0.8,5,1.8,7.3,3c1.2,0.6,2.3,1.2,3.4,2c1,0.8,2.1,1.6,2.7,2.8c-0.5-1.2-1.5-2.2-2.5-3.1
			c-1-0.9-2.1-1.6-3.3-2.3c-2.3-1.3-4.8-2.4-7.3-3.4c-5-1.9-10.1-3.4-15.3-4.6c-10.4-2.4-21-3.9-31.5-5c-21.2-2.2-42.4-2.8-63.7-2.9
			c-21.2,0.1-42.5,0.7-63.7,2.9c-10.6,1.1-21.1,2.6-31.5,5c-5.2,1.2-10.3,2.7-15.3,4.6c-2.5,1-4.9,2.1-7.2,3.4
			c-1.1,0.7-2.3,1.4-3.3,2.3C1384.5,711.7,1383.4,712.7,1382.9,713.9z"/>
		<path class="st2" d="M1382.9,779.6c0-0.7,0.6-1.1,1.1-1.5c0.5-0.4,1.1-0.7,1.7-0.9c1.2-0.5,2.4-0.9,3.7-1.3
			c2.5-0.7,5.1-1.3,7.6-1.7c5.1-1,10.3-1.6,15.5-2.2c10.4-1.2,20.8-2,31.2-2.7c20.9-1.3,41.8-1.9,62.7-1.8c20.9,0,41.8,0.6,62.7,1.8
			c10.4,0.7,20.9,1.5,31.2,2.7c5.2,0.6,10.4,1.3,15.5,2.2c2.6,0.5,5.1,1,7.6,1.7c1.3,0.3,2.5,0.7,3.7,1.3c0.6,0.3,1.2,0.5,1.7,0.9
			c0.5,0.4,1.1,0.8,1.1,1.5c0-0.7-0.5-1.2-1-1.6c-0.5-0.4-1.1-0.8-1.7-1.1c-1.2-0.6-2.4-1.1-3.6-1.5c-2.5-0.9-5-1.5-7.6-2.2
			c-5.1-1.2-10.3-2.2-15.5-3.1c-10.4-1.7-20.8-2.9-31.3-3.8c-20.9-1.9-41.9-2.6-62.9-2.7c-21,0-42,0.8-62.9,2.7
			c-10.5,0.9-20.9,2.1-31.3,3.8c-5.2,0.9-10.3,1.8-15.5,3.1c-2.6,0.6-5.1,1.3-7.6,2.2c-1.2,0.4-2.5,0.9-3.6,1.5
			c-0.6,0.3-1.2,0.6-1.7,1.1C1383.5,778.4,1382.9,778.9,1382.9,779.6z"/>
		<g class="st3">
			<g>
				<path class="st1" d="M1382.9,713.9c1-2.5,3.1-4.4,5.2-6c2.1-1.6,4.5-2.9,6.9-4c4.8-2.3,9.9-3.9,15.1-5.2
					c10.3-2.7,21-4.2,31.6-5.4c10.7-1.1,21.4-1.8,32.1-2.1c10.7-0.4,21.5-0.6,32.2-0.5c10.7,0,21.5,0.2,32.2,0.8
					c10.7,0.5,21.4,1.3,32.1,2.5c10.6,1.3,21.2,3,31.6,5.7c5.2,1.4,10.3,3,15.1,5.2c2.4,1.1,4.8,2.3,7.1,3.7c2.2,1.4,4.5,3,6,5.3
					c-1.3-2.4-3.4-4.3-5.5-6c-2.2-1.7-4.5-3.2-6.9-4.5c-4.8-2.7-9.9-4.7-15-6.5c-10.3-3.5-21-5.9-31.8-7.6
					c-21.5-3.5-43.3-4.5-64.9-4.7c-21.7,0-43.4,0.8-65,4c-10.8,1.6-21.5,3.8-31.9,7.2c-5.2,1.8-10.3,3.8-15,6.6
					c-2.4,1.4-4.6,3-6.7,4.8C1385.6,709.1,1383.6,711.3,1382.9,713.9z"/>
			</g>
		</g>
		<path class="st2" d="M1570.5,751.1c0,0,43.7-0.3,56.2,10v-32.5c0,0-5-9.7-56.2-12.8V751.1z"/>
		<path class="st2" d="M1441.2,751.1c0,0-43.7-0.3-56.2,10v-32.5c0,0,5-9.7,56.2-12.8V751.1z"/>
		<g>
			<g class="st3">
				<path class="st1" d="M1510.1,1126.9c0.3-8.3,0.5-16.5,0.6-24.8c0.2-8.2,0.4-16.5,0.5-24.8c0.3-16.5,0.5-33,0.6-49.5
					c0.1-16.5,0.2-33,0.2-49.5c0.1-16.5,0-33-0.1-49.5l-1.4,3.4c3.2-1.9,5.8-4.7,8.2-8.7c2.3-3.9,4.1-9.2,4.9-14.9
					c0.4-2.9,0.5-5.7,0.4-8.6c0-1.2-0.1-2.8-0.2-4.2c-0.1-1.4-0.2-2.8-0.4-4.2c-0.8-5.5-2.4-10.9-4.9-14.6c-2.4-3.7-5.4-5.9-8.5-6.7
					c-3-0.9-6.1-0.3-9,1.3c-2.9,1.7-5.5,4.6-7.5,8.7c-2,4-3.2,9.2-3.5,14.4c0.7-5.1,2.1-9.8,4.1-13.3c2-3.5,4.6-5.9,7.3-7.1
					c5.3-2.3,11.5-0.2,15.3,6.4c1.9,3.3,3.1,7.6,3.6,12.2c0.1,1.2,0.2,2.4,0.3,3.6c0.1,1.2,0.1,2.3,0.1,3.7c0,2.3-0.2,4.7-0.5,6.9
					c-0.7,4.5-2.1,8.5-4,11.6c-1.9,3.1-4.4,5.5-6.8,6.8l-1.4,0.8l0,2.6c0,16.5-0.1,33-0.1,49.5c0,16.5,0.1,33,0.2,49.5
					c0.1,16.5,0.3,33,0.6,49.5c0.1,8.3,0.3,16.5,0.5,24.8C1509.6,1110.4,1509.8,1118.7,1510.1,1126.9z"/>
			</g>
		</g>
		<g>
			<g class="st3">
				<path class="st1" d="M1510.1,1126.9l8.7,0.7l0.3,0l0.1-0.5c1.9-10.2,4.6-20,7.3-29.6c2.8-9.6,5.8-18.9,9.1-27.9
					c6.5-18.1,14-35,22.1-50.7c16.3-31.5,35.6-57.6,56.3-79.8c-11.1,8.7-21.7,19.3-31.7,31.9c-10,12.5-19.2,27-27.6,42.9
					c-8.4,16-15.8,33.6-22.1,52.5c-6.2,18.9-11.4,39-14.3,60.4l0.4-0.5L1510.1,1126.9z"/>
			</g>
		</g>
		<path class="st1" d="M1522.5,1135.7c0-6.9-3.5-12.9-8.6-16c-2.3-1.4-4.9-32.4-7.6-32.4c-2,0-4,30.7-5.7,31.4
			c-6.1,2.6-10.4,9.2-10.4,17c0,10,7.2,18.1,16.2,18.1C1515.3,1153.8,1522.5,1145.7,1522.5,1135.7z"/>
		<path class="st1" d="M1517.4,1141.2c0-5.3-4.9-9.6-10.9-9.6c-6,0-10.9,4.3-10.9,9.6c0,5.3,4.9,9.6,10.9,9.6
			C1512.5,1150.9,1517.4,1146.5,1517.4,1141.2z"/>
		<path class="st1" d="M1496.7,1145.5c0,0,8.1,14.6,19.6,0C1516.3,1145.5,1507,1149.9,1496.7,1145.5z"/>
		<path class="st1" d="M1488.5,1081.4c0,0-18.1-96.6-81.5-144.6c0,0,15-56.5,17.8-102.4l63.6-29.7V1081.4z"/>
		<g>
			<g class="st3">
				<path class="st1" d="M1399,939.1c5.3,5.3,10.4,11,15.3,17.1c5,6.1,9.8,12.5,14.5,19.1c9.4,13.4,18.2,27.9,26.4,43.7
					c8.1,15.7,15.5,32.7,22,50.8c6.5,18.1,12.1,37.3,16.7,57.4l0.1,0.5l0.3,0l8.7-0.7l-8.7-0.7l0.4,0.5c-3.4-21-8.3-41.2-14.5-60.2
					c-6.2-18.9-13.6-36.5-22-52.5c-8.3-16-17.6-30.5-27.5-43.1C1420.7,958.2,1410.2,947.1,1399,939.1z"/>
			</g>
		</g>
		<g class="st3">
			<g>
				<path class="st1" d="M1502.9,1126.9c1.3-33,1.8-66,2-99c0.1-33-0.1-66-0.8-99l0-1.5l-0.8-0.5c-3.1-1.9-6.2-5.3-8.4-9.9
					c-2.3-4.5-3.6-10.5-3.7-16.8c-0.1-6.2,0.9-12.6,3-17.6c2.1-5.1,5.3-8.5,8.8-10.2c-3.5,1.2-7,4.2-9.3,9.3
					c-2.4,5.1-3.7,11.8-3.7,18.5c-0.1,6.7,1.2,13.6,3.6,18.9c2.4,5.4,5.5,9.2,9.2,11.7l-0.8-2c-0.8,33-1,66-0.8,99
					C1501.1,1060.9,1501.6,1093.9,1502.9,1126.9z"/>
			</g>
		</g>
		<path class="st1" d="M1522.5,1081.4c0,0,18.1-96.6,81.5-144.6c0,0-15-56.5-17.8-102.4l-63.6-29.7V1081.4z"/>
		<path class="st1" d="M1520.6,1126.9h-1.8h-8.7c7.1-2.9,12.4-206.5,12.4-220.3c0-16-7.2-28.9-16-28.9c-8.8,0-16,13-16,28.9
			c0,13.8,5.3,217.3,12.4,220.3h-8.7h-1.6c0,0-16.8-99.3-93.6-181.9v-5.9c30-55.4,37.5-149.7,37.5-149.7s15.7-17.1,70-17.1
			c54.3,0,60.9,17.1,60.9,17.1s11,98.7,46.7,149.7v5.9C1533.1,1038.4,1520.6,1126.9,1520.6,1126.9z"/>
		<polygon class="st1" points="1502.9,1126.9 1510.1,1126.9 1520,1061.3 1533.1,862.4 1485.3,862.4 1492.3,1061.3 		"/>
	</g>
	<g>
		<g>
			<path class="st1" d="M1508.5,1063.3l-0.5-139.7c9.6-2.9,16.2-9.9,16.2-23.7c0-16-14.5-27.5-26.3-27.5
				c-11.9,0-26.7,11.8-26.7,27.8c0,13.8,8.8,21.6,18.3,24.5l-0.7,202.1h-7.7c0,0-20.8-111.7-128-187.9
				c34.7-65.1,35.9-163.4,35.9-163.4s35.6-9.3,108.6-9.3c73,0,108.6,9.3,108.6,9.3s1.3,98.3,35.9,163.4
				c-54.7,38.8-105.3,124.8-105.3,124.8L1508.5,1063.3z"/>
		</g>
		<path class="st1" d="M1614.6,853.7c-26.3-19.3-64.2-36-117.2-36c-53,0-90.8,17-116.8,36.5c8-42.7,8.5-78.6,8.5-78.6
			c0.1,0,0.1,0,0.2-0.1c17.7-5.2,35.7-8.4,53.8-10.5c18.1-2.2,36.4-3.1,54.6-3.1c18.2,0.1,36.4,1.1,54.6,3.3
			c18.1,2.1,36,5.5,53.8,10.3c0.1,0,0.1,0,0.2,0.1C1606.2,775.7,1606.7,811.2,1614.6,853.7z"/>
	</g>
</g>
<text transform="matrix(1 0 0 1 1684.1893 992.4618)" class="st1" style="font-family:'Albertus-ExtraBold'; font-size:220px;">Peneh</text>
<text transform="matrix(1 0 0 1 1684.6576 1066.9463)" class="st1" style="font-family:'Albertus-Medium'; font-size:39px;">Graphic Design &amp; Web Development</text>
<rect x="-2007" y="15" class="st4" width="440" height="388"/>
<rect x="-1451" y="27" class="st5" width="380" height="380"/>
<text transform="matrix(1 0 0 1 -1358.988 243)" class="st1" style="font-family:'MyriadPro-Regular'; font-size:72px;">65002c</text>
<text transform="matrix(1 0 0 1 -1906.988 223)" style="font-family:'MyriadPro-Regular'; font-size:72px;">d1710a</text>
<circle class="st6" cx="1497.5" cy="899.3" r="26.3"/>
<g>
	<g class="st0">
		
			<linearGradient id="SVGID_1_" gradientUnits="userSpaceOnUse" x1="1345.363" y1="481.663" x2="1590.8831" y2="512.5078" gradientTransform="matrix(1 0 0 -1 0 447.5086)">
			<stop  offset="0" style="stop-color:#E2E6EA"/>
			<stop  offset="0.2832" style="stop-color:#B2BCC7"/>
			<stop  offset="1" style="stop-color:#E2E6EA"/>
		</linearGradient>
		<path class="st7" d="M1462.1,14.7h-1.2c-18.4,0-36.6,1.2-54.2,3.4l-65.7-96.7l123.6-45.7l123.6,45.7l-66.3,97.4
			C1502.5,16.2,1482.4,14.7,1462.1,14.7z"/>
		
			<linearGradient id="SVGID_2_" gradientUnits="userSpaceOnUse" x1="1337.9055" y1="398.9864" x2="1589.9722" y2="398.9864" gradientTransform="matrix(1 0 0 -1 0 447.5086)">
			<stop  offset="0" style="stop-color:#EEF1F3"/>
			<stop  offset="0.1156" style="stop-color:#64768A"/>
			<stop  offset="0.3819" style="stop-color:#C6CED6"/>
			<stop  offset="0.5862" style="stop-color:#485463"/>
			<stop  offset="0.7588" style="stop-color:#E1E5E9"/>
			<stop  offset="0.8894" style="stop-color:#C9D0D8"/>
			<stop  offset="1" style="stop-color:#EBEDF0"/>
		</linearGradient>
		<path class="st8" d="M1588.1,67.6c0,0-5.4-10.3-123.6-10.3c-118.1,0-123.6,10.3-123.6,10.3V55.4c0,0,3.3-26,123.6-26
			c120.2,0,123.6,26,123.6,26V67.6z"/>
		<path class="st9" d="M1588.1,67.6c0,6.4-55.3,10.8-123.6,10.8s-123.6-4.4-123.6-10.8c0-6.4,55.3-14.1,123.6-14.1
			C1532.8,53.5,1588.1,61.2,1588.1,67.6z"/>
		<path class="st10" d="M1576.9,69c0,4.5-50.3,7.5-112.4,7.5c-62.1,0-112.4-3.1-112.4-7.5c0-4.5,50.3-9.8,112.4-9.8
			C1526.6,59.2,1576.9,64.5,1576.9,69z"/>
		
			<linearGradient id="SVGID_3_" gradientUnits="userSpaceOnUse" x1="1337.9055" y1="426.5071" x2="1589.9722" y2="426.5071" gradientTransform="matrix(1 0 0 -1 0 447.5086)">
			<stop  offset="0" style="stop-color:#DEE2E7"/>
			<stop  offset="0.1156" style="stop-color:#485463"/>
			<stop  offset="0.3819" style="stop-color:#A5B0BE"/>
			<stop  offset="0.5862" style="stop-color:#36404B"/>
			<stop  offset="0.7588" style="stop-color:#CAD1D9"/>
			<stop  offset="0.8894" style="stop-color:#A8B3C0"/>
			<stop  offset="1" style="stop-color:#D9DEE3"/>
		</linearGradient>
		<path class="st11" d="M1588.1,55.4c0,0-5.4-12.5-123.6-12.5c-118.1,0-123.6,12.5-123.6,12.5V12.3c0,0,2.1-25.7,123.6-25.7
			c121.5,0,123.6,25.7,123.6,25.7V55.4z"/>
		
			<linearGradient id="SVGID_4_" gradientUnits="userSpaceOnUse" x1="1340.9363" y1="522.9495" x2="1586.4456" y2="522.9495" gradientTransform="matrix(1 0 0 -1 0 447.5086)">
			<stop  offset="0" style="stop-color:#5D5D5D"/>
			<stop  offset="0.1558" style="stop-color:#000000"/>
			<stop  offset="0.7097" style="stop-color:#000000"/>
			<stop  offset="0.9146" style="stop-color:#000000"/>
			<stop  offset="1" style="stop-color:#858585"/>
		</linearGradient>
		<path class="st12" d="M1588.1-6.6c0,0-5.4-18.2-123.6-18.2c-118.1,0-123.6,18.2-123.6,18.2v-86.3c0,0,9-51.5,123.6-51.5
			c114.5,0,123.6,51.5,123.6,51.5V-6.6z"/>
		
			<linearGradient id="SVGID_5_" gradientUnits="userSpaceOnUse" x1="1340.9363" y1="514.4534" x2="1586.4456" y2="514.4534" gradientTransform="matrix(1 0 0 -1 0 447.5086)">
			<stop  offset="0" style="stop-color:#A2A2A2"/>
			<stop  offset="0.1558" style="stop-color:#292929"/>
			<stop  offset="0.2403" style="stop-color:#1C1C1C"/>
			<stop  offset="0.3394" style="stop-color:#121212"/>
			<stop  offset="0.7097" style="stop-color:#212121"/>
			<stop  offset="0.9146" style="stop-color:#474747"/>
			<stop  offset="1" style="stop-color:#BABABA"/>
		</linearGradient>
		<path class="st13" d="M1588.1,1.9c0,0-5.4-18.2-123.6-18.2c-118.1,0-123.6,18.2-123.6,18.2v-94.8c0,0,9-43,123.6-43
			c114.5,0,123.6,43,123.6,43V1.9z"/>
		
			<linearGradient id="SVGID_6_" gradientUnits="userSpaceOnUse" x1="1339.8889" y1="457.9368" x2="1588.8687" y2="457.9368" gradientTransform="matrix(1 0 0 -1 0 447.5086)">
			<stop  offset="0" style="stop-color:#793800"/>
			<stop  offset="0.1708" style="stop-color:#602C00"/>
			<stop  offset="0.4435" style="stop-color:#3D1B00"/>
			<stop  offset="0.5906" style="stop-color:#301500"/>
			<stop  offset="1" style="stop-color:#542500"/>
		</linearGradient>
		<path class="st14" d="M1340.9,1.9c0,0,3.7-24.7,120-24.7c116.6,0,127.2,24.7,127.2,24.7s-61.6-11.6-127.2-11.6
			C1395.4-9.6,1340.9,1.9,1340.9,1.9z"/>
		
			<linearGradient id="SVGID_7_" gradientUnits="userSpaceOnUse" x1="1337.9055" y1="449.4925" x2="1589.9722" y2="449.4925" gradientTransform="matrix(1 0 0 -1 0 447.5086)">
			<stop  offset="0" style="stop-color:#EEF1F3"/>
			<stop  offset="0.1156" style="stop-color:#64768A"/>
			<stop  offset="0.3819" style="stop-color:#C6CED6"/>
			<stop  offset="0.5862" style="stop-color:#485463"/>
			<stop  offset="0.7588" style="stop-color:#E1E5E9"/>
			<stop  offset="0.8894" style="stop-color:#C9D0D8"/>
			<stop  offset="1" style="stop-color:#EBEDF0"/>
		</linearGradient>
		<path class="st15" d="M1464.5-5c-118.1,0-123.6,17.2-123.6,17.2V1.9c0,0,5.4-18.2,123.6-18.2c118.1,0,123.6,18.2,123.6,18.2v10.3
			C1588.1,12.3,1582.6-5,1464.5-5z"/>
		<path class="st16" d="M1340.9,1.9c0.6-1.2,1.6-2.1,2.7-2.8c1.1-0.8,2.2-1.4,3.4-2c2.3-1.2,4.8-2.1,7.3-3c5-1.6,10.2-2.8,15.4-3.7
			c10.4-1.9,20.9-3,31.4-3.9c21.1-1.6,42.2-2.1,63.4-2c10.6,0,21.2,0.1,31.7,0.4c10.6,0.3,21.1,0.8,31.7,1.6c10.5,0.9,21,2,31.4,3.9
			c5.2,0.9,10.3,2.1,15.4,3.7c2.5,0.8,5,1.8,7.3,3c1.2,0.6,2.3,1.2,3.4,2c1,0.8,2.1,1.6,2.7,2.8c-0.5-1.2-1.5-2.2-2.5-3.1
			c-1-0.9-2.1-1.6-3.3-2.3c-2.3-1.3-4.8-2.4-7.3-3.4c-5-1.9-10.1-3.4-15.3-4.6c-10.4-2.4-21-3.9-31.5-5c-21.2-2.2-42.4-2.8-63.7-2.9
			c-21.2,0.1-42.5,0.7-63.7,2.9c-10.6,1.1-21.1,2.6-31.5,5c-5.2,1.2-10.3,2.7-15.3,4.6c-2.5,1-4.9,2.1-7.2,3.4
			c-1.1,0.7-2.3,1.4-3.3,2.3C1342.5-0.3,1341.4,0.7,1340.9,1.9z"/>
		<path class="st17" d="M1340.9,67.6c0-0.7,0.6-1.1,1.1-1.5c0.5-0.4,1.1-0.7,1.7-0.9c1.2-0.5,2.4-0.9,3.7-1.3
			c2.5-0.7,5.1-1.3,7.6-1.7c5.1-1,10.3-1.6,15.5-2.2c10.4-1.2,20.8-2,31.2-2.7c20.9-1.3,41.8-1.9,62.7-1.8c20.9,0,41.8,0.6,62.7,1.8
			c10.4,0.7,20.9,1.5,31.2,2.7c5.2,0.6,10.4,1.3,15.5,2.2c2.6,0.5,5.1,1,7.6,1.7c1.3,0.3,2.5,0.7,3.7,1.3c0.6,0.3,1.2,0.5,1.7,0.9
			c0.5,0.4,1.1,0.8,1.1,1.5c0-0.7-0.5-1.2-1-1.6c-0.5-0.4-1.1-0.8-1.7-1.1c-1.2-0.6-2.4-1.1-3.6-1.5c-2.5-0.9-5-1.5-7.6-2.2
			c-5.1-1.2-10.3-2.2-15.5-3.1c-10.4-1.7-20.8-2.9-31.3-3.8c-20.9-1.9-41.9-2.6-62.9-2.7c-21,0-42,0.8-62.9,2.7
			c-10.5,0.9-20.9,2.1-31.3,3.8c-5.2,0.9-10.3,1.8-15.5,3.1c-2.6,0.6-5.1,1.3-7.6,2.2c-1.2,0.4-2.5,0.9-3.6,1.5
			c-0.6,0.3-1.2,0.6-1.7,1.1C1341.5,66.4,1340.9,66.9,1340.9,67.6z"/>
		<g class="st3">
			<g>
				<path class="st18" d="M1340.9,1.9c1-2.5,3.1-4.4,5.2-6c2.1-1.6,4.5-2.9,6.9-4c4.8-2.3,9.9-3.9,15.1-5.2
					c10.3-2.7,21-4.2,31.6-5.4c10.7-1.1,21.4-1.8,32.1-2.1c10.7-0.4,21.5-0.6,32.2-0.5c10.7,0,21.5,0.2,32.2,0.8
					c10.7,0.5,21.4,1.3,32.1,2.5c10.6,1.3,21.2,3,31.6,5.7c5.2,1.4,10.3,3,15.1,5.2c2.4,1.1,4.8,2.3,7.1,3.7c2.2,1.4,4.5,3,6,5.3
					c-1.3-2.4-3.4-4.3-5.5-6c-2.2-1.7-4.5-3.2-6.9-4.5c-4.8-2.7-9.9-4.7-15-6.5c-10.3-3.5-21-5.9-31.8-7.6
					c-21.5-3.5-43.3-4.5-64.9-4.7c-21.7,0-43.4,0.8-65,4c-10.8,1.6-21.5,3.8-31.9,7.2c-5.2,1.8-10.3,3.8-15,6.6
					c-2.4,1.4-4.6,3-6.7,4.8C1343.6-2.9,1341.6-0.7,1340.9,1.9z"/>
			</g>
		</g>
		
			<linearGradient id="SVGID_8_" gradientUnits="userSpaceOnUse" x1="1528.5422" y1="421.0328" x2="1584.7424" y2="421.0328" gradientTransform="matrix(1 0 0 -1 0 447.5086)">
			<stop  offset="0" style="stop-color:#CAD1D9"/>
			<stop  offset="0.5578" style="stop-color:#B3BDC8"/>
			<stop  offset="1" style="stop-color:#ECEEF1"/>
		</linearGradient>
		<path class="st19" d="M1528.5,39.1c0,0,43.7-0.3,56.2,10V16.6c0,0-5-9.7-56.2-12.8V39.1z"/>
		
			<linearGradient id="SVGID_9_" gradientUnits="userSpaceOnUse" x1="1342.3983" y1="421.0328" x2="1399.4595" y2="421.0328" gradientTransform="matrix(1 0 0 -1 0 447.5086)">
			<stop  offset="0" style="stop-color:#DCE0E6"/>
			<stop  offset="0.4352" style="stop-color:#59697B"/>
			<stop  offset="1" style="stop-color:#6C7F94"/>
		</linearGradient>
		<path class="st20" d="M1399.2,39.1c0,0-43.7-0.3-56.2,10V16.6c0,0,5-9.7,56.2-12.8V39.1z"/>
		<g>
			<g class="st3">
				<path class="st21" d="M1468.1,414.9c0.3-8.3,0.5-16.5,0.6-24.8c0.2-8.2,0.4-16.5,0.5-24.8c0.3-16.5,0.5-33,0.6-49.5
					c0.1-16.5,0.2-33,0.2-49.5c0.1-16.5,0-33-0.1-49.5l-1.4,3.4c3.2-1.9,5.8-4.7,8.2-8.7c2.3-3.9,4.1-9.2,4.9-14.9
					c0.4-2.9,0.5-5.7,0.4-8.6c0-1.2-0.1-2.8-0.2-4.2c-0.1-1.4-0.2-2.8-0.4-4.2c-0.8-5.5-2.4-10.9-4.9-14.6c-2.4-3.7-5.4-5.9-8.5-6.7
					c-3-0.9-6.1-0.3-9,1.3c-2.9,1.7-5.5,4.6-7.5,8.7c-2,4-3.2,9.2-3.5,14.4c0.7-5.1,2.1-9.8,4.1-13.3c2-3.5,4.6-5.9,7.3-7.1
					c5.3-2.3,11.5-0.2,15.3,6.4c1.9,3.3,3.1,7.6,3.6,12.2c0.1,1.2,0.2,2.4,0.3,3.6c0.1,1.2,0.1,2.3,0.1,3.7c0,2.3-0.2,4.7-0.5,6.9
					c-0.7,4.5-2.1,8.5-4,11.6c-1.9,3.1-4.4,5.5-6.8,6.8l-1.4,0.8l0,2.6c0,16.5-0.1,33-0.1,49.5c0,16.5,0.1,33,0.2,49.5
					c0.1,16.5,0.3,33,0.6,49.5c0.1,8.3,0.3,16.5,0.5,24.8C1467.6,398.4,1467.8,406.7,1468.1,414.9z"/>
			</g>
		</g>
		<g>
			<g class="st3">
				<path class="st22" d="M1468.1,414.9l8.7,0.7l0.3,0l0.1-0.5c1.9-10.2,4.6-20,7.3-29.6c2.8-9.6,5.8-18.9,9.1-27.9
					c6.5-18.1,14-35,22.1-50.7c16.3-31.5,35.6-57.6,56.3-79.8c-11.1,8.7-21.7,19.3-31.7,31.9c-10,12.5-19.2,27-27.6,42.9
					c-8.4,16-15.8,33.6-22.1,52.5c-6.2,18.9-11.4,39-14.3,60.4l0.4-0.5L1468.1,414.9z"/>
			</g>
		</g>
		
			<linearGradient id="SVGID_10_" gradientUnits="userSpaceOnUse" x1="1464.3157" y1="4.7464" x2="1464.3157" y2="72.7115" gradientTransform="matrix(1 0 0 -1 0 447.5086)">
			<stop  offset="0" style="stop-color:#2B2B2B"/>
			<stop  offset="9.849221e-02" style="stop-color:#232323"/>
			<stop  offset="0.3913" style="stop-color:#0F0F0F"/>
			<stop  offset="0.6898" style="stop-color:#040404"/>
			<stop  offset="1" style="stop-color:#000000"/>
		</linearGradient>
		<path class="st23" d="M1480.5,423.7c0-6.9-3.5-12.9-8.6-16c-2.3-1.4-4.9-32.4-7.6-32.4c-2,0-4,30.7-5.7,31.4
			c-6.1,2.6-10.4,9.2-10.4,17c0,10,7.2,18.1,16.2,18.1C1473.3,441.8,1480.5,433.7,1480.5,423.7z"/>
		
			<linearGradient id="SVGID_11_" gradientUnits="userSpaceOnUse" x1="1464.5007" y1="7.7119" x2="1464.5007" y2="28.1319" gradientTransform="matrix(1 0 0 -1 0 447.5086)">
			<stop  offset="0" style="stop-color:#A1A1A1"/>
			<stop  offset="4.016727e-02" style="stop-color:#989898"/>
			<stop  offset="0.2437" style="stop-color:#717171"/>
			<stop  offset="0.4449" style="stop-color:#535353"/>
			<stop  offset="0.6408" style="stop-color:#3D3D3D"/>
			<stop  offset="0.8287" style="stop-color:#2F2F2F"/>
			<stop  offset="1" style="stop-color:#2B2B2B"/>
		</linearGradient>
		<path class="st24" d="M1475.4,429.2c0-5.3-4.9-9.6-10.9-9.6c-6,0-10.9,4.3-10.9,9.6c0,5.3,4.9,9.6,10.9,9.6
			C1470.5,438.9,1475.4,434.5,1475.4,429.2z"/>
		
			<linearGradient id="SVGID_12_" gradientUnits="userSpaceOnUse" x1="1464.4998" y1="7.507" x2="1464.4998" y2="13.9784" gradientTransform="matrix(1 0 0 -1 0 447.5086)">
			<stop  offset="0" style="stop-color:#EDEDED"/>
			<stop  offset="0.1617" style="stop-color:#D2D2D2"/>
			<stop  offset="0.3651" style="stop-color:#B7B7B7"/>
			<stop  offset="0.5718" style="stop-color:#A3A3A3"/>
			<stop  offset="0.7818" style="stop-color:#989898"/>
			<stop  offset="1" style="stop-color:#949494"/>
		</linearGradient>
		<path class="st25" d="M1454.7,433.5c0,0,8.1,14.6,19.6,0C1474.3,433.5,1465,437.9,1454.7,433.5z"/>
		
			<linearGradient id="SVGID_13_" gradientUnits="userSpaceOnUse" x1="1353.7256" y1="216.477" x2="1570.506" y2="216.477" gradientTransform="matrix(1 0 0 -1 0 447.5086)">
			<stop  offset="0" style="stop-color:#FFFAE8"/>
			<stop  offset="5.935781e-03" style="stop-color:#FFF9E1"/>
			<stop  offset="3.807830e-02" style="stop-color:#FFF2BE"/>
			<stop  offset="7.074361e-02" style="stop-color:#FFEDA3"/>
			<stop  offset="0.1037" style="stop-color:#FFE98F"/>
			<stop  offset="0.1372" style="stop-color:#FFE784"/>
			<stop  offset="0.172" style="stop-color:#FFE680"/>
			<stop  offset="0.3495" style="stop-color:#FFF7DB"/>
			<stop  offset="0.4299" style="stop-color:#FFE27B"/>
			<stop  offset="0.5425" style="stop-color:#FFDC3D"/>
			<stop  offset="0.7044" style="stop-color:#D1922C"/>
			<stop  offset="0.8333" style="stop-color:#FFDB2C"/>
			<stop  offset="0.8573" style="stop-color:#FFE153"/>
			<stop  offset="0.8918" style="stop-color:#FFE984"/>
			<stop  offset="0.9245" style="stop-color:#FFF0AB"/>
			<stop  offset="0.9543" style="stop-color:#FFF4C7"/>
			<stop  offset="0.9805" style="stop-color:#FFF7D8"/>
			<stop  offset="1" style="stop-color:#FFF8DE"/>
		</linearGradient>
		<path class="st26" d="M1446.5,369.4c0,0-18.1-96.6-81.5-144.6c0,0,15-56.5,17.8-102.4l63.6-29.7V369.4z"/>
		<g>
			<g class="st3">
				<path class="st22" d="M1357,227.1c5.3,5.3,10.4,11,15.3,17.1c5,6.1,9.8,12.5,14.5,19.1c9.4,13.4,18.2,27.9,26.4,43.7
					c8.1,15.7,15.5,32.7,22,50.8c6.5,18.1,12.1,37.3,16.7,57.4l0.1,0.5l0.3,0l8.7-0.7l-8.7-0.7l0.4,0.5c-3.4-21-8.3-41.2-14.5-60.2
					c-6.2-18.9-13.6-36.5-22-52.5c-8.3-16-17.6-30.5-27.5-43.1C1378.7,246.2,1368.2,235.1,1357,227.1z"/>
			</g>
		</g>
		<g class="st3">
			<g>
				<path class="st27" d="M1460.9,414.9c1.3-33,1.8-66,2-99c0.1-33-0.1-66-0.8-99l0-1.5l-0.8-0.5c-3.1-1.9-6.2-5.3-8.4-9.9
					c-2.3-4.5-3.6-10.5-3.7-16.8c-0.1-6.2,0.9-12.6,3-17.6c2.1-5.1,5.3-8.5,8.8-10.2c-3.5,1.2-7,4.2-9.3,9.3
					c-2.4,5.1-3.7,11.8-3.7,18.5c-0.1,6.7,1.2,13.6,3.6,18.9c2.4,5.4,5.5,9.2,9.2,11.7l-0.8-2c-0.8,33-1,66-0.8,99
					C1459.1,348.9,1459.6,381.9,1460.9,414.9z"/>
			</g>
		</g>
		
			<linearGradient id="SVGID_14_" gradientUnits="userSpaceOnUse" x1="1357.9104" y1="216.477" x2="1571.396" y2="216.477" gradientTransform="matrix(1 0 0 -1 0 447.5086)">
			<stop  offset="0" style="stop-color:#FFF2C2"/>
			<stop  offset="1.177104e-02" style="stop-color:#FFEFB3"/>
			<stop  offset="4.277877e-02" style="stop-color:#FFE790"/>
			<stop  offset="7.429692e-02" style="stop-color:#FFE175"/>
			<stop  offset="0.1061" style="stop-color:#FFDC61"/>
			<stop  offset="0.1385" style="stop-color:#FFDA56"/>
			<stop  offset="0.172" style="stop-color:#FFD952"/>
			<stop  offset="0.3495" style="stop-color:#FFF5D1"/>
			<stop  offset="0.5746" style="stop-color:#F2B707"/>
			<stop  offset="0.7044" style="stop-color:#CF842E"/>
			<stop  offset="0.8333" style="stop-color:#FFD747"/>
			<stop  offset="0.8355" style="stop-color:#FFD84A"/>
			<stop  offset="0.8753" style="stop-color:#FFE27B"/>
			<stop  offset="0.9129" style="stop-color:#FFEBA2"/>
			<stop  offset="0.9473" style="stop-color:#FFF1BE"/>
			<stop  offset="0.9775" style="stop-color:#FFF5CF"/>
			<stop  offset="1" style="stop-color:#FFF6D5"/>
		</linearGradient>
		<path class="st28" d="M1480.5,369.4c0,0,18.1-96.6,81.5-144.6c0,0-15-56.5-17.8-102.4l-63.6-29.7V369.4z"/>
		<path class="st29" d="M1478.6,414.9h-1.8h-8.7c7.1-2.9,12.4-206.5,12.4-220.3c0-16-7.2-28.9-16-28.9c-8.8,0-16,13-16,28.9
			c0,13.8,5.3,217.3,12.4,220.3h-8.7h-1.6c0,0-16.8-99.3-93.6-181.9v-5.9c30-55.4,37.5-149.7,37.5-149.7s15.7-17.1,70-17.1
			c54.3,0,60.9,17.1,60.9,17.1s11,98.7,46.7,149.7v5.9C1491.1,326.4,1478.6,414.9,1478.6,414.9z"/>
		
			<linearGradient id="SVGID_15_" gradientUnits="userSpaceOnUse" x1="1467.2087" y1="30.3233" x2="1467.2087" y2="294.8389" gradientTransform="matrix(1 0 0 -1 0 447.5086)">
			<stop  offset="0" style="stop-color:#525252"/>
			<stop  offset="5.180150e-02" style="stop-color:#4B4B4B"/>
			<stop  offset="0.2819" style="stop-color:#303030"/>
			<stop  offset="0.5157" style="stop-color:#1C1C1C"/>
			<stop  offset="0.7532" style="stop-color:#111111"/>
			<stop  offset="1" style="stop-color:#0D0D0D"/>
		</linearGradient>
		<polygon class="st30" points="1460.9,414.9 1468.1,414.9 1478,349.3 1491.1,150.4 1443.3,150.4 1450.3,349.3 		"/>
	</g>
	<g>
		<g>
			<path class="st4" d="M1441.1,412.4c-1.6-7.1-7.7-32-23.6-64c-16.9-34.1-48.5-82.7-103.2-122.1c30.9-59.8,34.7-146.5,35.2-160.6
				c8.1-1.8,43.4-8.8,106.1-8.8c62.8,0,98,7,106.1,8.8c0.4,14.1,4.2,100.9,35.2,160.6c-50.2,36.7-97,112.3-103.5,123l-24.5-0.4
				l-0.5-135.4c10.7-4,16.2-12.5,16.2-25.5c0-17.2-15.2-30-28.8-30c-13.5,0-29.2,13.3-29.2,30.3c0,12.4,6.8,22.1,18.3,26.3
				l-0.7,197.8H1441.1z"/>
			<path class="st31" d="M1455.6,59.3c58.5,0,92.9,6.1,103.7,8.4c0.3,8.3,1.3,28.6,4.9,54c4.1,29.1,12.6,70.3,29.5,103.9
				c-22.1,16.5-45.9,41.9-70.8,75.5c-15.6,21.1-27,39.3-30.9,45.7l-20.6-0.4l-0.5-131.3c8-3.5,16.2-11,16.2-27.1
				c0-18.6-16.5-32.5-31.3-32.5c-7.2,0-15.2,3.5-21.2,9.3c-6.7,6.4-10.4,14.8-10.4,23.5c0,12.9,6.8,23.1,18.3,28l-0.6,188.4
				c-3-11.4-9.5-32.2-22.1-57.4c-16.9-33.9-48.2-82.3-102.2-121.8c16.9-33.6,25.4-74.8,29.5-103.9c3.6-25.4,4.6-45.7,4.9-54
				C1362.7,65.4,1397.2,59.3,1455.6,59.3 M1455.6,54.3c-73,0-108.6,9.3-108.6,9.3s-1.3,98.3-35.9,163.4
				c107.2,76.1,128,187.9,128,187.9h7.7l0.7-202.1c-9.6-2.9-18.3-10.7-18.3-24.5c0-16,14.8-27.8,26.7-27.8
				c11.9,0,26.3,11.5,26.3,27.5c0,13.8-6.6,20.7-16.2,23.7l0.5,139.7l28.4,0.5c0,0,50.6-85.9,105.3-124.8
				c-34.7-65.1-35.9-163.4-35.9-163.4S1528.6,54.3,1455.6,54.3L1455.6,54.3z"/>
		</g>
		<path class="st5" d="M1572.6,141.7c-26.3-19.3-64.2-36-117.2-36c-53,0-90.8,17-116.8,36.5c8-42.7,8.5-78.6,8.5-78.6
			c0.1,0,0.1,0,0.2-0.1c17.7-5.2,35.7-8.4,53.8-10.5c18.1-2.2,36.4-3.1,54.6-3.1c18.2,0.1,36.4,1.1,54.6,3.3
			c18.1,2.1,36,5.5,53.8,10.3c0.1,0,0.1,0,0.2,0.1C1564.2,63.7,1564.7,99.2,1572.6,141.7z"/>
	</g>
</g>
<text transform="matrix(1 0 0 1 1642.1893 280.4618)" class="st5" style="font-family:'Albertus-ExtraBold'; font-size:220px;">Peneh</text>
<text transform="matrix(1 0 0 1 1642.6576 354.9463)" class="st4" style="font-family:'Albertus-Medium'; font-size:39px;">Graphic Design &amp; Web Development</text>
<circle class="st6" cx="1455.5" cy="187.3" r="26.3"/>
<g>
	<g class="st0">
		
			<linearGradient id="SVGID_16_" gradientUnits="userSpaceOnUse" x1="-563.7471" y1="481.663" x2="-318.2271" y2="512.5078" gradientTransform="matrix(1 0 0 -1 0 447.5086)">
			<stop  offset="0" style="stop-color:#E2E6EA"/>
			<stop  offset="0.2832" style="stop-color:#B2BCC7"/>
			<stop  offset="1" style="stop-color:#E2E6EA"/>
		</linearGradient>
		<path class="st32" d="M-447,14.7h-1.2c-18.4,0-36.6,1.2-54.2,3.4l-65.7-96.7l123.6-45.7L-321-78.6l-66.3,97.4
			C-406.6,16.2-426.7,14.7-447,14.7z"/>
		
			<linearGradient id="SVGID_17_" gradientUnits="userSpaceOnUse" x1="-571.2046" y1="398.9864" x2="-319.1379" y2="398.9864" gradientTransform="matrix(1 0 0 -1 0 447.5086)">
			<stop  offset="0" style="stop-color:#EEF1F3"/>
			<stop  offset="0.1156" style="stop-color:#64768A"/>
			<stop  offset="0.3819" style="stop-color:#C6CED6"/>
			<stop  offset="0.5862" style="stop-color:#485463"/>
			<stop  offset="0.7588" style="stop-color:#E1E5E9"/>
			<stop  offset="0.8894" style="stop-color:#C9D0D8"/>
			<stop  offset="1" style="stop-color:#EBEDF0"/>
		</linearGradient>
		<path class="st33" d="M-321,67.6c0,0-5.4-10.3-123.6-10.3c-118.1,0-123.6,10.3-123.6,10.3V55.4c0,0,3.3-26,123.6-26
			c120.2,0,123.6,26,123.6,26V67.6z"/>
		<path class="st9" d="M-321,67.6c0,6.4-55.3,10.8-123.6,10.8S-568.2,74-568.2,67.6c0-6.4,55.3-14.1,123.6-14.1S-321,61.2-321,67.6z
			"/>
		<path class="st10" d="M-332.2,69c0,4.5-50.3,7.5-112.4,7.5c-62.1,0-112.4-3.1-112.4-7.5c0-4.5,50.3-9.8,112.4-9.8
			C-382.6,59.2-332.2,64.5-332.2,69z"/>
		
			<linearGradient id="SVGID_18_" gradientUnits="userSpaceOnUse" x1="-571.2046" y1="426.5071" x2="-319.1379" y2="426.5071" gradientTransform="matrix(1 0 0 -1 0 447.5086)">
			<stop  offset="0" style="stop-color:#DEE2E7"/>
			<stop  offset="0.1156" style="stop-color:#485463"/>
			<stop  offset="0.3819" style="stop-color:#A5B0BE"/>
			<stop  offset="0.5862" style="stop-color:#36404B"/>
			<stop  offset="0.7588" style="stop-color:#CAD1D9"/>
			<stop  offset="0.8894" style="stop-color:#A8B3C0"/>
			<stop  offset="1" style="stop-color:#D9DEE3"/>
		</linearGradient>
		<path class="st34" d="M-321,55.4c0,0-5.4-12.5-123.6-12.5c-118.1,0-123.6,12.5-123.6,12.5V12.3c0,0,2.1-25.7,123.6-25.7
			c121.5,0,123.6,25.7,123.6,25.7V55.4z"/>
		
			<linearGradient id="SVGID_19_" gradientUnits="userSpaceOnUse" x1="-568.1738" y1="522.9495" x2="-322.6645" y2="522.9495" gradientTransform="matrix(1 0 0 -1 0 447.5086)">
			<stop  offset="0" style="stop-color:#5D5D5D"/>
			<stop  offset="0.1558" style="stop-color:#000000"/>
			<stop  offset="0.7097" style="stop-color:#000000"/>
			<stop  offset="0.9146" style="stop-color:#000000"/>
			<stop  offset="1" style="stop-color:#858585"/>
		</linearGradient>
		<path class="st35" d="M-321-6.6c0,0-5.4-18.2-123.6-18.2c-118.1,0-123.6,18.2-123.6,18.2v-86.3c0,0,9-51.5,123.6-51.5
			c114.5,0,123.6,51.5,123.6,51.5V-6.6z"/>
		
			<linearGradient id="SVGID_20_" gradientUnits="userSpaceOnUse" x1="-568.1738" y1="514.4534" x2="-322.6645" y2="514.4534" gradientTransform="matrix(1 0 0 -1 0 447.5086)">
			<stop  offset="0" style="stop-color:#A2A2A2"/>
			<stop  offset="0.1558" style="stop-color:#292929"/>
			<stop  offset="0.2403" style="stop-color:#1C1C1C"/>
			<stop  offset="0.3394" style="stop-color:#121212"/>
			<stop  offset="0.7097" style="stop-color:#212121"/>
			<stop  offset="0.9146" style="stop-color:#474747"/>
			<stop  offset="1" style="stop-color:#BABABA"/>
		</linearGradient>
		<path class="st36" d="M-321,1.9c0,0-5.4-18.2-123.6-18.2c-118.1,0-123.6,18.2-123.6,18.2v-94.8c0,0,9-43,123.6-43
			c114.5,0,123.6,43,123.6,43V1.9z"/>
		
			<linearGradient id="SVGID_21_" gradientUnits="userSpaceOnUse" x1="-569.2213" y1="457.9368" x2="-320.2415" y2="457.9368" gradientTransform="matrix(1 0 0 -1 0 447.5086)">
			<stop  offset="0" style="stop-color:#793800"/>
			<stop  offset="0.1708" style="stop-color:#602C00"/>
			<stop  offset="0.4435" style="stop-color:#3D1B00"/>
			<stop  offset="0.5906" style="stop-color:#301500"/>
			<stop  offset="1" style="stop-color:#542500"/>
		</linearGradient>
		<path class="st37" d="M-568.2,1.9c0,0,3.7-24.7,120-24.7C-331.6-22.8-321,1.9-321,1.9S-382.6-9.6-448.2-9.6
			C-513.7-9.6-568.2,1.9-568.2,1.9z"/>
		
			<linearGradient id="SVGID_22_" gradientUnits="userSpaceOnUse" x1="-571.2046" y1="449.4925" x2="-319.1379" y2="449.4925" gradientTransform="matrix(1 0 0 -1 0 447.5086)">
			<stop  offset="0" style="stop-color:#EEF1F3"/>
			<stop  offset="0.1156" style="stop-color:#64768A"/>
			<stop  offset="0.3819" style="stop-color:#C6CED6"/>
			<stop  offset="0.5862" style="stop-color:#485463"/>
			<stop  offset="0.7588" style="stop-color:#E1E5E9"/>
			<stop  offset="0.8894" style="stop-color:#C9D0D8"/>
			<stop  offset="1" style="stop-color:#EBEDF0"/>
		</linearGradient>
		<path class="st38" d="M-444.6-5c-118.1,0-123.6,17.2-123.6,17.2V1.9c0,0,5.4-18.2,123.6-18.2C-326.5-16.2-321,1.9-321,1.9v10.3
			C-321,12.3-326.5-5-444.6-5z"/>
		<path class="st16" d="M-568.2,1.9c0.6-1.2,1.6-2.1,2.7-2.8c1.1-0.8,2.2-1.4,3.4-2c2.3-1.2,4.8-2.1,7.3-3c5-1.6,10.2-2.8,15.4-3.7
			c10.4-1.9,20.9-3,31.4-3.9c21.1-1.6,42.2-2.1,63.4-2c10.6,0,21.2,0.1,31.7,0.4c10.6,0.3,21.1,0.8,31.7,1.6c10.5,0.9,21,2,31.4,3.9
			c5.2,0.9,10.3,2.1,15.4,3.7c2.5,0.8,5,1.8,7.3,3c1.2,0.6,2.3,1.2,3.4,2c1,0.8,2.1,1.6,2.7,2.8c-0.5-1.2-1.5-2.2-2.5-3.1
			c-1-0.9-2.1-1.6-3.3-2.3c-2.3-1.3-4.8-2.4-7.3-3.4c-5-1.9-10.1-3.4-15.3-4.6c-10.4-2.4-21-3.9-31.5-5c-21.2-2.2-42.4-2.8-63.7-2.9
			c-21.2,0.1-42.5,0.7-63.7,2.9c-10.6,1.1-21.1,2.6-31.5,5c-5.2,1.2-10.3,2.7-15.3,4.6c-2.5,1-4.9,2.1-7.2,3.4
			c-1.1,0.7-2.3,1.4-3.3,2.3C-566.7-0.3-567.7,0.7-568.2,1.9z"/>
		<path class="st17" d="M-568.2,67.6c0-0.7,0.6-1.1,1.1-1.5c0.5-0.4,1.1-0.7,1.7-0.9c1.2-0.5,2.4-0.9,3.7-1.3
			c2.5-0.7,5.1-1.3,7.6-1.7c5.1-1,10.3-1.6,15.5-2.2c10.4-1.2,20.8-2,31.2-2.7c20.9-1.3,41.8-1.9,62.7-1.8c20.9,0,41.8,0.6,62.7,1.8
			c10.4,0.7,20.9,1.5,31.2,2.7c5.2,0.6,10.4,1.3,15.5,2.2c2.6,0.5,5.1,1,7.6,1.7c1.3,0.3,2.5,0.7,3.7,1.3c0.6,0.3,1.2,0.5,1.7,0.9
			c0.5,0.4,1.1,0.8,1.1,1.5c0-0.7-0.5-1.2-1-1.6c-0.5-0.4-1.1-0.8-1.7-1.1c-1.2-0.6-2.4-1.1-3.6-1.5c-2.5-0.9-5-1.5-7.6-2.2
			c-5.1-1.2-10.3-2.2-15.5-3.1c-10.4-1.7-20.8-2.9-31.3-3.8c-20.9-1.9-41.9-2.6-62.9-2.7c-21,0-42,0.8-62.9,2.7
			c-10.5,0.9-20.9,2.1-31.3,3.8c-5.2,0.9-10.3,1.8-15.5,3.1c-2.6,0.6-5.1,1.3-7.6,2.2c-1.2,0.4-2.5,0.9-3.6,1.5
			c-0.6,0.3-1.2,0.6-1.7,1.1C-567.6,66.4-568.2,66.9-568.2,67.6z"/>
		<g class="st3">
			<g>
				<path class="st18" d="M-568.2,1.9c1-2.5,3.1-4.4,5.2-6c2.1-1.6,4.5-2.9,6.9-4c4.8-2.3,9.9-3.9,15.1-5.2
					c10.3-2.7,21-4.2,31.6-5.4c10.7-1.1,21.4-1.8,32.1-2.1c10.7-0.4,21.5-0.6,32.2-0.5c10.7,0,21.5,0.2,32.2,0.8
					c10.7,0.5,21.4,1.3,32.1,2.5c10.6,1.3,21.2,3,31.6,5.7c5.2,1.4,10.3,3,15.1,5.2c2.4,1.1,4.8,2.3,7.1,3.7c2.2,1.4,4.5,3,6,5.3
					c-1.3-2.4-3.4-4.3-5.5-6c-2.2-1.7-4.5-3.2-6.9-4.5c-4.8-2.7-9.9-4.7-15-6.5c-10.3-3.5-21-5.9-31.8-7.6
					c-21.5-3.5-43.3-4.5-64.9-4.7c-21.7,0-43.4,0.8-65,4c-10.8,1.6-21.5,3.8-31.9,7.2c-5.2,1.8-10.3,3.8-15,6.6
					c-2.4,1.4-4.6,3-6.7,4.8C-565.5-2.9-567.5-0.7-568.2,1.9z"/>
			</g>
		</g>
		
			<linearGradient id="SVGID_23_" gradientUnits="userSpaceOnUse" x1="-380.5679" y1="421.0328" x2="-324.3677" y2="421.0328" gradientTransform="matrix(1 0 0 -1 0 447.5086)">
			<stop  offset="0" style="stop-color:#CAD1D9"/>
			<stop  offset="0.5578" style="stop-color:#B3BDC8"/>
			<stop  offset="1" style="stop-color:#ECEEF1"/>
		</linearGradient>
		<path class="st39" d="M-380.6,39.1c0,0,43.7-0.3,56.2,10V16.6c0,0-5-9.7-56.2-12.8V39.1z"/>
		
			<linearGradient id="SVGID_24_" gradientUnits="userSpaceOnUse" x1="-566.7118" y1="421.0328" x2="-509.6506" y2="421.0328" gradientTransform="matrix(1 0 0 -1 0 447.5086)">
			<stop  offset="0" style="stop-color:#DCE0E6"/>
			<stop  offset="0.4352" style="stop-color:#59697B"/>
			<stop  offset="1" style="stop-color:#6C7F94"/>
		</linearGradient>
		<path class="st40" d="M-509.9,39.1c0,0-43.7-0.3-56.2,10V16.6c0,0,5-9.7,56.2-12.8V39.1z"/>
		<g>
			<g class="st3">
				<path class="st21" d="M-441,414.9c0.3-8.3,0.5-16.5,0.6-24.8c0.2-8.2,0.4-16.5,0.5-24.8c0.3-16.5,0.5-33,0.6-49.5
					c0.1-16.5,0.2-33,0.2-49.5c0.1-16.5,0-33-0.1-49.5l-1.4,3.4c3.2-1.9,5.8-4.7,8.2-8.7c2.3-3.9,4.1-9.2,4.9-14.9
					c0.4-2.9,0.5-5.7,0.4-8.6c0-1.2-0.1-2.8-0.2-4.2c-0.1-1.4-0.2-2.8-0.4-4.2c-0.8-5.5-2.4-10.9-4.9-14.6c-2.4-3.7-5.4-5.9-8.5-6.7
					c-3-0.9-6.1-0.3-9,1.3c-2.9,1.7-5.5,4.6-7.5,8.7c-2,4-3.2,9.2-3.5,14.4c0.7-5.1,2.1-9.8,4.1-13.3c2-3.5,4.6-5.9,7.3-7.1
					c5.3-2.3,11.5-0.2,15.3,6.4c1.9,3.3,3.1,7.6,3.6,12.2c0.1,1.2,0.2,2.4,0.3,3.6c0.1,1.2,0.1,2.3,0.1,3.7c0,2.3-0.2,4.7-0.5,6.9
					c-0.7,4.5-2.1,8.5-4,11.6c-1.9,3.1-4.4,5.5-6.8,6.8l-1.4,0.8l0,2.6c0,16.5-0.1,33-0.1,49.5c0,16.5,0.1,33,0.2,49.5
					c0.1,16.5,0.3,33,0.6,49.5c0.1,8.3,0.3,16.5,0.5,24.8C-441.5,398.4-441.3,406.7-441,414.9z"/>
			</g>
		</g>
		<g>
			<g class="st3">
				<path class="st22" d="M-441,414.9l8.7,0.7l0.3,0l0.1-0.5c1.9-10.2,4.6-20,7.3-29.6c2.8-9.6,5.8-18.9,9.1-27.9
					c6.5-18.1,14-35,22.1-50.7c16.3-31.5,35.6-57.6,56.3-79.8c-11.1,8.7-21.7,19.3-31.7,31.9c-10,12.5-19.2,27-27.6,42.9
					c-8.4,16-15.8,33.6-22.1,52.5c-6.2,18.9-11.4,39-14.3,60.4l0.4-0.5L-441,414.9z"/>
			</g>
		</g>
		
			<linearGradient id="SVGID_25_" gradientUnits="userSpaceOnUse" x1="-444.7945" y1="4.7464" x2="-444.7945" y2="72.7115" gradientTransform="matrix(1 0 0 -1 0 447.5086)">
			<stop  offset="0" style="stop-color:#2B2B2B"/>
			<stop  offset="9.849221e-02" style="stop-color:#232323"/>
			<stop  offset="0.3913" style="stop-color:#0F0F0F"/>
			<stop  offset="0.6898" style="stop-color:#040404"/>
			<stop  offset="1" style="stop-color:#000000"/>
		</linearGradient>
		<path class="st41" d="M-428.6,423.7c0-6.9-3.5-12.9-8.6-16c-2.3-1.4-4.9-32.4-7.6-32.4c-2,0-4,30.7-5.7,31.4
			c-6.1,2.6-10.4,9.2-10.4,17c0,10,7.2,18.1,16.2,18.1C-435.9,441.8-428.6,433.7-428.6,423.7z"/>
		
			<linearGradient id="SVGID_26_" gradientUnits="userSpaceOnUse" x1="-444.6094" y1="7.7119" x2="-444.6094" y2="28.1319" gradientTransform="matrix(1 0 0 -1 0 447.5086)">
			<stop  offset="0" style="stop-color:#A1A1A1"/>
			<stop  offset="4.016727e-02" style="stop-color:#989898"/>
			<stop  offset="0.2437" style="stop-color:#717171"/>
			<stop  offset="0.4449" style="stop-color:#535353"/>
			<stop  offset="0.6408" style="stop-color:#3D3D3D"/>
			<stop  offset="0.8287" style="stop-color:#2F2F2F"/>
			<stop  offset="1" style="stop-color:#2B2B2B"/>
		</linearGradient>
		<path class="st42" d="M-433.7,429.2c0-5.3-4.9-9.6-10.9-9.6c-6,0-10.9,4.3-10.9,9.6c0,5.3,4.9,9.6,10.9,9.6
			C-438.6,438.9-433.7,434.5-433.7,429.2z"/>
		
			<linearGradient id="SVGID_27_" gradientUnits="userSpaceOnUse" x1="-444.6104" y1="7.507" x2="-444.6104" y2="13.9784" gradientTransform="matrix(1 0 0 -1 0 447.5086)">
			<stop  offset="0" style="stop-color:#EDEDED"/>
			<stop  offset="0.1617" style="stop-color:#D2D2D2"/>
			<stop  offset="0.3651" style="stop-color:#B7B7B7"/>
			<stop  offset="0.5718" style="stop-color:#A3A3A3"/>
			<stop  offset="0.7818" style="stop-color:#989898"/>
			<stop  offset="1" style="stop-color:#949494"/>
		</linearGradient>
		<path class="st43" d="M-454.4,433.5c0,0,8.1,14.6,19.6,0C-434.8,433.5-444.1,437.9-454.4,433.5z"/>
		
			<linearGradient id="SVGID_28_" gradientUnits="userSpaceOnUse" x1="-555.3845" y1="216.477" x2="-338.6041" y2="216.477" gradientTransform="matrix(1 0 0 -1 0 447.5086)">
			<stop  offset="0" style="stop-color:#FFFAE8"/>
			<stop  offset="5.935781e-03" style="stop-color:#FFF9E1"/>
			<stop  offset="3.807830e-02" style="stop-color:#FFF2BE"/>
			<stop  offset="7.074361e-02" style="stop-color:#FFEDA3"/>
			<stop  offset="0.1037" style="stop-color:#FFE98F"/>
			<stop  offset="0.1372" style="stop-color:#FFE784"/>
			<stop  offset="0.172" style="stop-color:#FFE680"/>
			<stop  offset="0.3495" style="stop-color:#FFF7DB"/>
			<stop  offset="0.4299" style="stop-color:#FFE27B"/>
			<stop  offset="0.5425" style="stop-color:#FFDC3D"/>
			<stop  offset="0.7044" style="stop-color:#D1922C"/>
			<stop  offset="0.8333" style="stop-color:#FFDB2C"/>
			<stop  offset="0.8573" style="stop-color:#FFE153"/>
			<stop  offset="0.8918" style="stop-color:#FFE984"/>
			<stop  offset="0.9245" style="stop-color:#FFF0AB"/>
			<stop  offset="0.9543" style="stop-color:#FFF4C7"/>
			<stop  offset="0.9805" style="stop-color:#FFF7D8"/>
			<stop  offset="1" style="stop-color:#FFF8DE"/>
		</linearGradient>
		<path class="st44" d="M-462.6,369.4c0,0-18.1-96.6-81.5-144.6c0,0,15-56.5,17.8-102.4l63.6-29.7V369.4z"/>
		<g>
			<g class="st3">
				<path class="st22" d="M-552.1,227.1c5.3,5.3,10.4,11,15.3,17.1c5,6.1,9.8,12.5,14.5,19.1c9.4,13.4,18.2,27.9,26.4,43.7
					c8.1,15.7,15.5,32.7,22,50.8c6.5,18.1,12.1,37.3,16.7,57.4l0.1,0.5l0.3,0l8.7-0.7l-8.7-0.7l0.4,0.5c-3.4-21-8.3-41.2-14.5-60.2
					c-6.2-18.9-13.6-36.5-22-52.5c-8.3-16-17.6-30.5-27.5-43.1C-530.4,246.2-540.9,235.1-552.1,227.1z"/>
			</g>
		</g>
		<g class="st3">
			<g>
				<path class="st27" d="M-448.2,414.9c1.3-33,1.8-66,2-99c0.1-33-0.1-66-0.8-99l0-1.5l-0.8-0.5c-3.1-1.9-6.2-5.3-8.4-9.9
					c-2.3-4.5-3.6-10.5-3.7-16.8c-0.1-6.2,0.9-12.6,3-17.6c2.1-5.1,5.3-8.5,8.8-10.2c-3.5,1.2-7,4.2-9.3,9.3
					c-2.4,5.1-3.7,11.8-3.7,18.5c-0.1,6.7,1.2,13.6,3.6,18.9c2.4,5.4,5.5,9.2,9.2,11.7l-0.8-2c-0.8,33-1,66-0.8,99
					C-450,348.9-449.5,381.9-448.2,414.9z"/>
			</g>
		</g>
		
			<linearGradient id="SVGID_29_" gradientUnits="userSpaceOnUse" x1="-551.1997" y1="216.477" x2="-337.7141" y2="216.477" gradientTransform="matrix(1 0 0 -1 0 447.5086)">
			<stop  offset="0" style="stop-color:#FFF2C2"/>
			<stop  offset="1.177104e-02" style="stop-color:#FFEFB3"/>
			<stop  offset="4.277877e-02" style="stop-color:#FFE790"/>
			<stop  offset="7.429692e-02" style="stop-color:#FFE175"/>
			<stop  offset="0.1061" style="stop-color:#FFDC61"/>
			<stop  offset="0.1385" style="stop-color:#FFDA56"/>
			<stop  offset="0.172" style="stop-color:#FFD952"/>
			<stop  offset="0.3495" style="stop-color:#FFF5D1"/>
			<stop  offset="0.5746" style="stop-color:#F2B707"/>
			<stop  offset="0.7044" style="stop-color:#CF842E"/>
			<stop  offset="0.8333" style="stop-color:#FFD747"/>
			<stop  offset="0.8355" style="stop-color:#FFD84A"/>
			<stop  offset="0.8753" style="stop-color:#FFE27B"/>
			<stop  offset="0.9129" style="stop-color:#FFEBA2"/>
			<stop  offset="0.9473" style="stop-color:#FFF1BE"/>
			<stop  offset="0.9775" style="stop-color:#FFF5CF"/>
			<stop  offset="1" style="stop-color:#FFF6D5"/>
		</linearGradient>
		<path class="st45" d="M-428.6,369.4c0,0,18.1-96.6,81.5-144.6c0,0-15-56.5-17.8-102.4l-63.6-29.7V369.4z"/>
		<path class="st29" d="M-430.5,414.9h-1.8h-8.7c7.1-2.9,12.4-206.5,12.4-220.3c0-16-7.2-28.9-16-28.9c-8.8,0-16,13-16,28.9
			c0,13.8,5.3,217.3,12.4,220.3h-8.7h-1.6c0,0-16.8-99.3-93.6-181.9v-5.9c30-55.4,37.5-149.7,37.5-149.7s15.7-17.1,70-17.1
			c54.3,0,60.9,17.1,60.9,17.1s11,98.7,46.7,149.7v5.9C-418,326.4-430.5,414.9-430.5,414.9z"/>
		
			<linearGradient id="SVGID_30_" gradientUnits="userSpaceOnUse" x1="-441.9014" y1="30.3233" x2="-441.9014" y2="294.8389" gradientTransform="matrix(1 0 0 -1 0 447.5086)">
			<stop  offset="0" style="stop-color:#525252"/>
			<stop  offset="5.180150e-02" style="stop-color:#4B4B4B"/>
			<stop  offset="0.2819" style="stop-color:#303030"/>
			<stop  offset="0.5157" style="stop-color:#1C1C1C"/>
			<stop  offset="0.7532" style="stop-color:#111111"/>
			<stop  offset="1" style="stop-color:#0D0D0D"/>
		</linearGradient>
		<polygon class="st46" points="-448.2,414.9 -441,414.9 -431.1,349.3 -418,150.4 -465.8,150.4 -458.8,349.3 		"/>
	</g>
	<g>
		<g>
			<path class="st4" d="M-468,412.4c-1.6-7.1-7.7-32-23.6-64c-16.9-34.1-48.5-82.7-103.2-122.1c30.9-59.8,34.7-146.5,35.2-160.6
				c8.1-1.8,43.4-8.8,106.1-8.8c62.8,0,98,7,106.1,8.8c0.4,14.1,4.2,100.9,35.2,160.6c-50.2,36.7-97,112.3-103.5,123l-24.5-0.4
				l-0.5-135.4c10.7-4,16.2-12.5,16.2-25.5c0-17.2-15.2-30-28.8-30c-13.5,0-29.2,13.3-29.2,30.3c0,12.4,6.8,22.1,18.3,26.3
				l-0.7,197.8H-468z"/>
			<path class="st31" d="M-453.5,59.3c58.5,0,92.9,6.1,103.7,8.4c0.3,8.3,1.3,28.6,4.9,54c4.1,29.1,12.6,70.3,29.5,103.9
				c-22.1,16.5-45.9,41.9-70.8,75.5c-15.6,21.1-27,39.3-30.9,45.7l-20.6-0.4l-0.5-131.3c8-3.5,16.2-11,16.2-27.1
				c0-18.6-16.5-32.5-31.3-32.5c-7.2,0-15.2,3.5-21.2,9.3c-6.7,6.4-10.4,14.8-10.4,23.5c0,12.9,6.8,23.1,18.3,28l-0.6,188.4
				c-3-11.4-9.5-32.2-22.1-57.4c-16.9-33.9-48.2-82.3-102.2-121.8c16.9-33.6,25.4-74.8,29.5-103.9c3.6-25.4,4.6-45.7,4.9-54
				C-546.4,65.4-511.9,59.3-453.5,59.3 M-453.5,54.3c-73,0-108.6,9.3-108.6,9.3s-1.3,98.3-35.9,163.4
				c107.2,76.1,128,187.9,128,187.9h7.7l0.7-202.1c-9.6-2.9-18.3-10.7-18.3-24.5c0-16,14.8-27.8,26.7-27.8
				c11.9,0,26.3,11.5,26.3,27.5c0,13.8-6.6,20.7-16.2,23.7l0.5,139.7l28.4,0.5c0,0,50.6-85.9,105.3-124.8
				c-34.7-65.1-35.9-163.4-35.9-163.4S-380.5,54.3-453.5,54.3L-453.5,54.3z"/>
		</g>
		<path class="st5" d="M-336.5,141.7c-26.3-19.3-64.2-36-117.2-36c-53,0-90.8,17-116.8,36.5c8-42.7,8.5-78.6,8.5-78.6
			c0.1,0,0.1,0,0.2-0.1c17.7-5.2,35.7-8.4,53.8-10.5c18.1-2.2,36.4-3.1,54.6-3.1c18.2,0.1,36.4,1.1,54.6,3.3
			c18.1,2.1,36,5.5,53.8,10.3c0.1,0,0.1,0,0.2,0.1C-344.9,63.7-344.5,99.2-336.5,141.7z"/>
	</g>
</g>
<circle class="st6" cx="-453.7" cy="187.3" r="26.3"/>
<g>
	<g class="st0">
		
			<linearGradient id="SVGID_31_" gradientUnits="userSpaceOnUse" x1="244.253" y1="481.663" x2="489.7729" y2="512.5078" gradientTransform="matrix(1 0 0 -1 0 447.5086)">
			<stop  offset="0" style="stop-color:#E2E6EA"/>
			<stop  offset="0.2832" style="stop-color:#B2BCC7"/>
			<stop  offset="1" style="stop-color:#E2E6EA"/>
		</linearGradient>
		<path class="st47" d="M361,14.7h-1.2c-18.4,0-36.6,1.2-54.2,3.4l-65.7-96.7l123.6-45.7L487-78.6l-66.3,97.4
			C401.4,16.2,381.3,14.7,361,14.7z"/>
		
			<linearGradient id="SVGID_32_" gradientUnits="userSpaceOnUse" x1="236.7954" y1="398.9864" x2="488.8621" y2="398.9864" gradientTransform="matrix(1 0 0 -1 0 447.5086)">
			<stop  offset="0" style="stop-color:#EEF1F3"/>
			<stop  offset="0.1156" style="stop-color:#64768A"/>
			<stop  offset="0.3819" style="stop-color:#C6CED6"/>
			<stop  offset="0.5862" style="stop-color:#485463"/>
			<stop  offset="0.7588" style="stop-color:#E1E5E9"/>
			<stop  offset="0.8894" style="stop-color:#C9D0D8"/>
			<stop  offset="1" style="stop-color:#EBEDF0"/>
		</linearGradient>
		<path class="st48" d="M487,67.6c0,0-5.4-10.3-123.6-10.3c-118.1,0-123.6,10.3-123.6,10.3V55.4c0,0,3.3-26,123.6-26
			c120.2,0,123.6,26,123.6,26V67.6z"/>
		<path class="st9" d="M487,67.6c0,6.4-55.3,10.8-123.6,10.8S239.8,74,239.8,67.6c0-6.4,55.3-14.1,123.6-14.1
			C431.6,53.5,487,61.2,487,67.6z"/>
		<path class="st10" d="M475.8,69c0,4.5-50.3,7.5-112.4,7.5C301.4,76.5,251,73.4,251,69c0-4.5,50.3-9.8,112.4-9.8
			C425.4,59.2,475.8,64.5,475.8,69z"/>
		
			<linearGradient id="SVGID_33_" gradientUnits="userSpaceOnUse" x1="236.7954" y1="426.5071" x2="488.8621" y2="426.5071" gradientTransform="matrix(1 0 0 -1 0 447.5086)">
			<stop  offset="0" style="stop-color:#DEE2E7"/>
			<stop  offset="0.1156" style="stop-color:#485463"/>
			<stop  offset="0.3819" style="stop-color:#A5B0BE"/>
			<stop  offset="0.5862" style="stop-color:#36404B"/>
			<stop  offset="0.7588" style="stop-color:#CAD1D9"/>
			<stop  offset="0.8894" style="stop-color:#A8B3C0"/>
			<stop  offset="1" style="stop-color:#D9DEE3"/>
		</linearGradient>
		<path class="st49" d="M487,55.4c0,0-5.4-12.5-123.6-12.5c-118.1,0-123.6,12.5-123.6,12.5V12.3c0,0,2.1-25.7,123.6-25.7
			C484.9-13.4,487,12.3,487,12.3V55.4z"/>
		
			<linearGradient id="SVGID_34_" gradientUnits="userSpaceOnUse" x1="239.8262" y1="522.9495" x2="485.3355" y2="522.9495" gradientTransform="matrix(1 0 0 -1 0 447.5086)">
			<stop  offset="0" style="stop-color:#5D5D5D"/>
			<stop  offset="0.1558" style="stop-color:#000000"/>
			<stop  offset="0.7097" style="stop-color:#000000"/>
			<stop  offset="0.9146" style="stop-color:#000000"/>
			<stop  offset="1" style="stop-color:#858585"/>
		</linearGradient>
		<path class="st50" d="M487-6.6c0,0-5.4-18.2-123.6-18.2c-118.1,0-123.6,18.2-123.6,18.2v-86.3c0,0,9-51.5,123.6-51.5
			c114.5,0,123.6,51.5,123.6,51.5V-6.6z"/>
		
			<linearGradient id="SVGID_35_" gradientUnits="userSpaceOnUse" x1="239.8262" y1="514.4534" x2="485.3355" y2="514.4534" gradientTransform="matrix(1 0 0 -1 0 447.5086)">
			<stop  offset="0" style="stop-color:#A2A2A2"/>
			<stop  offset="0.1558" style="stop-color:#292929"/>
			<stop  offset="0.2403" style="stop-color:#1C1C1C"/>
			<stop  offset="0.3394" style="stop-color:#121212"/>
			<stop  offset="0.7097" style="stop-color:#212121"/>
			<stop  offset="0.9146" style="stop-color:#474747"/>
			<stop  offset="1" style="stop-color:#BABABA"/>
		</linearGradient>
		<path class="st51" d="M487,1.9c0,0-5.4-18.2-123.6-18.2c-118.1,0-123.6,18.2-123.6,18.2v-94.8c0,0,9-43,123.6-43
			c114.5,0,123.6,43,123.6,43V1.9z"/>
		
			<linearGradient id="SVGID_36_" gradientUnits="userSpaceOnUse" x1="238.7788" y1="457.9368" x2="487.7585" y2="457.9368" gradientTransform="matrix(1 0 0 -1 0 447.5086)">
			<stop  offset="0" style="stop-color:#793800"/>
			<stop  offset="0.1708" style="stop-color:#602C00"/>
			<stop  offset="0.4435" style="stop-color:#3D1B00"/>
			<stop  offset="0.5906" style="stop-color:#301500"/>
			<stop  offset="1" style="stop-color:#542500"/>
		</linearGradient>
		<path class="st52" d="M239.8,1.9c0,0,3.7-24.7,120-24.7C476.4-22.8,487,1.9,487,1.9S425.4-9.6,359.8-9.6
			C294.3-9.6,239.8,1.9,239.8,1.9z"/>
		
			<linearGradient id="SVGID_37_" gradientUnits="userSpaceOnUse" x1="236.7954" y1="449.4925" x2="488.8621" y2="449.4925" gradientTransform="matrix(1 0 0 -1 0 447.5086)">
			<stop  offset="0" style="stop-color:#EEF1F3"/>
			<stop  offset="0.1156" style="stop-color:#64768A"/>
			<stop  offset="0.3819" style="stop-color:#C6CED6"/>
			<stop  offset="0.5862" style="stop-color:#485463"/>
			<stop  offset="0.7588" style="stop-color:#E1E5E9"/>
			<stop  offset="0.8894" style="stop-color:#C9D0D8"/>
			<stop  offset="1" style="stop-color:#EBEDF0"/>
		</linearGradient>
		<path class="st53" d="M363.4-5C245.3-5,239.8,12.3,239.8,12.3V1.9c0,0,5.4-18.2,123.6-18.2C481.5-16.2,487,1.9,487,1.9v10.3
			C487,12.3,481.5-5,363.4-5z"/>
		<path class="st16" d="M239.8,1.9c0.6-1.2,1.6-2.1,2.7-2.8c1.1-0.8,2.2-1.4,3.4-2c2.3-1.2,4.8-2.1,7.3-3c5-1.6,10.2-2.8,15.4-3.7
			c10.4-1.9,20.9-3,31.4-3.9c21.1-1.6,42.2-2.1,63.4-2c10.6,0,21.2,0.1,31.7,0.4c10.6,0.3,21.1,0.8,31.7,1.6c10.5,0.9,21,2,31.4,3.9
			c5.2,0.9,10.3,2.1,15.4,3.7c2.5,0.8,5,1.8,7.3,3c1.2,0.6,2.3,1.2,3.4,2c1,0.8,2.1,1.6,2.7,2.8c-0.5-1.2-1.5-2.2-2.5-3.1
			c-1-0.9-2.1-1.6-3.3-2.3c-2.3-1.3-4.8-2.4-7.3-3.4c-5-1.9-10.1-3.4-15.3-4.6c-10.4-2.4-21-3.9-31.5-5c-21.2-2.2-42.4-2.8-63.7-2.9
			c-21.2,0.1-42.5,0.7-63.7,2.9c-10.6,1.1-21.1,2.6-31.5,5c-5.2,1.2-10.3,2.7-15.3,4.6c-2.5,1-4.9,2.1-7.2,3.4
			c-1.1,0.7-2.3,1.4-3.3,2.3C241.3-0.3,240.3,0.7,239.8,1.9z"/>
		<path class="st17" d="M239.8,67.6c0-0.7,0.6-1.1,1.1-1.5c0.5-0.4,1.1-0.7,1.7-0.9c1.2-0.5,2.4-0.9,3.7-1.3
			c2.5-0.7,5.1-1.3,7.6-1.7c5.1-1,10.3-1.6,15.5-2.2c10.4-1.2,20.8-2,31.2-2.7c20.9-1.3,41.8-1.9,62.7-1.8c20.9,0,41.8,0.6,62.7,1.8
			c10.4,0.7,20.9,1.5,31.2,2.7c5.2,0.6,10.4,1.3,15.5,2.2c2.6,0.5,5.1,1,7.6,1.7c1.3,0.3,2.5,0.7,3.7,1.3c0.6,0.3,1.2,0.5,1.7,0.9
			c0.5,0.4,1.1,0.8,1.1,1.5c0-0.7-0.5-1.2-1-1.6c-0.5-0.4-1.1-0.8-1.7-1.1c-1.2-0.6-2.4-1.1-3.6-1.5c-2.5-0.9-5-1.5-7.6-2.2
			c-5.1-1.2-10.3-2.2-15.5-3.1c-10.4-1.7-20.8-2.9-31.3-3.8c-20.9-1.9-41.9-2.6-62.9-2.7c-21,0-42,0.8-62.9,2.7
			c-10.5,0.9-20.9,2.1-31.3,3.8c-5.2,0.9-10.3,1.8-15.5,3.1c-2.6,0.6-5.1,1.3-7.6,2.2c-1.2,0.4-2.5,0.9-3.6,1.5
			c-0.6,0.3-1.2,0.6-1.7,1.1C240.4,66.4,239.8,66.9,239.8,67.6z"/>
		<g class="st3">
			<g>
				<path class="st18" d="M239.8,1.9c1-2.5,3.1-4.4,5.2-6c2.1-1.6,4.5-2.9,6.9-4c4.8-2.3,9.9-3.9,15.1-5.2c10.3-2.7,21-4.2,31.6-5.4
					c10.7-1.1,21.4-1.8,32.1-2.1c10.7-0.4,21.5-0.6,32.2-0.5c10.7,0,21.5,0.2,32.2,0.8c10.7,0.5,21.4,1.3,32.1,2.5
					c10.6,1.3,21.2,3,31.6,5.7c5.2,1.4,10.3,3,15.1,5.2c2.4,1.1,4.8,2.3,7.1,3.7c2.2,1.4,4.5,3,6,5.3c-1.3-2.4-3.4-4.3-5.5-6
					c-2.2-1.7-4.5-3.2-6.9-4.5c-4.8-2.7-9.9-4.7-15-6.5c-10.3-3.5-21-5.9-31.8-7.6c-21.5-3.5-43.3-4.5-64.9-4.7
					c-21.7,0-43.4,0.8-65,4c-10.8,1.6-21.5,3.8-31.9,7.2c-5.2,1.8-10.3,3.8-15,6.6c-2.4,1.4-4.6,3-6.7,4.8
					C242.5-2.9,240.5-0.7,239.8,1.9z"/>
			</g>
		</g>
		
			<linearGradient id="SVGID_38_" gradientUnits="userSpaceOnUse" x1="427.4321" y1="421.0328" x2="483.6323" y2="421.0328" gradientTransform="matrix(1 0 0 -1 0 447.5086)">
			<stop  offset="0" style="stop-color:#CAD1D9"/>
			<stop  offset="0.5578" style="stop-color:#B3BDC8"/>
			<stop  offset="1" style="stop-color:#ECEEF1"/>
		</linearGradient>
		<path class="st54" d="M427.4,39.1c0,0,43.7-0.3,56.2,10V16.6c0,0-5-9.7-56.2-12.8V39.1z"/>
		
			<linearGradient id="SVGID_39_" gradientUnits="userSpaceOnUse" x1="241.2882" y1="421.0328" x2="298.3494" y2="421.0328" gradientTransform="matrix(1 0 0 -1 0 447.5086)">
			<stop  offset="0" style="stop-color:#DCE0E6"/>
			<stop  offset="0.4352" style="stop-color:#59697B"/>
			<stop  offset="1" style="stop-color:#6C7F94"/>
		</linearGradient>
		<path class="st55" d="M298.1,39.1c0,0-43.7-0.3-56.2,10V16.6c0,0,5-9.7,56.2-12.8V39.1z"/>
		<g>
			<g class="st3">
				<path class="st21" d="M367,414.9c0.3-8.3,0.5-16.5,0.6-24.8c0.2-8.2,0.4-16.5,0.5-24.8c0.3-16.5,0.5-33,0.6-49.5
					c0.1-16.5,0.2-33,0.2-49.5c0.1-16.5,0-33-0.1-49.5l-1.4,3.4c3.2-1.9,5.8-4.7,8.2-8.7c2.3-3.9,4.1-9.2,4.9-14.9
					c0.4-2.9,0.5-5.7,0.4-8.6c0-1.2-0.1-2.8-0.2-4.2c-0.1-1.4-0.2-2.8-0.4-4.2c-0.8-5.5-2.4-10.9-4.9-14.6c-2.4-3.7-5.4-5.9-8.5-6.7
					c-3-0.9-6.1-0.3-9,1.3c-2.9,1.7-5.5,4.6-7.5,8.7c-2,4-3.2,9.2-3.5,14.4c0.7-5.1,2.1-9.8,4.1-13.3c2-3.5,4.6-5.9,7.3-7.1
					c5.3-2.3,11.5-0.2,15.3,6.4c1.9,3.3,3.1,7.6,3.6,12.2c0.1,1.2,0.2,2.4,0.3,3.6c0.1,1.2,0.1,2.3,0.1,3.7c0,2.3-0.2,4.7-0.5,6.9
					c-0.7,4.5-2.1,8.5-4,11.6c-1.9,3.1-4.4,5.5-6.8,6.8l-1.4,0.8l0,2.6c0,16.5-0.1,33-0.1,49.5c0,16.5,0.1,33,0.2,49.5
					c0.1,16.5,0.3,33,0.6,49.5c0.1,8.3,0.3,16.5,0.5,24.8C366.5,398.4,366.7,406.7,367,414.9z"/>
			</g>
		</g>
		<g>
			<g class="st3">
				<path class="st22" d="M367,414.9l8.7,0.7l0.3,0l0.1-0.5c1.9-10.2,4.6-20,7.3-29.6c2.8-9.6,5.8-18.9,9.1-27.9
					c6.5-18.1,14-35,22.1-50.7c16.3-31.5,35.6-57.6,56.3-79.8c-11.1,8.7-21.7,19.3-31.7,31.9c-10,12.5-19.2,27-27.6,42.9
					c-8.4,16-15.8,33.6-22.1,52.5c-6.2,18.9-11.4,39-14.3,60.4l0.4-0.5L367,414.9z"/>
			</g>
		</g>
		
			<linearGradient id="SVGID_40_" gradientUnits="userSpaceOnUse" x1="363.2055" y1="4.7464" x2="363.2055" y2="72.7115" gradientTransform="matrix(1 0 0 -1 0 447.5086)">
			<stop  offset="0" style="stop-color:#2B2B2B"/>
			<stop  offset="9.849221e-02" style="stop-color:#232323"/>
			<stop  offset="0.3913" style="stop-color:#0F0F0F"/>
			<stop  offset="0.6898" style="stop-color:#040404"/>
			<stop  offset="1" style="stop-color:#000000"/>
		</linearGradient>
		<path class="st56" d="M379.4,423.7c0-6.9-3.5-12.9-8.6-16c-2.3-1.4-4.9-32.4-7.6-32.4c-2,0-4,30.7-5.7,31.4
			c-6.1,2.6-10.4,9.2-10.4,17c0,10,7.2,18.1,16.2,18.1C372.1,441.8,379.4,433.7,379.4,423.7z"/>
		
			<linearGradient id="SVGID_41_" gradientUnits="userSpaceOnUse" x1="363.3906" y1="7.7119" x2="363.3906" y2="28.1319" gradientTransform="matrix(1 0 0 -1 0 447.5086)">
			<stop  offset="0" style="stop-color:#A1A1A1"/>
			<stop  offset="4.016727e-02" style="stop-color:#989898"/>
			<stop  offset="0.2437" style="stop-color:#717171"/>
			<stop  offset="0.4449" style="stop-color:#535353"/>
			<stop  offset="0.6408" style="stop-color:#3D3D3D"/>
			<stop  offset="0.8287" style="stop-color:#2F2F2F"/>
			<stop  offset="1" style="stop-color:#2B2B2B"/>
		</linearGradient>
		<path class="st57" d="M374.3,429.2c0-5.3-4.9-9.6-10.9-9.6c-6,0-10.9,4.3-10.9,9.6c0,5.3,4.9,9.6,10.9,9.6
			C369.4,438.9,374.3,434.5,374.3,429.2z"/>
		
			<linearGradient id="SVGID_42_" gradientUnits="userSpaceOnUse" x1="363.3896" y1="7.507" x2="363.3896" y2="13.9784" gradientTransform="matrix(1 0 0 -1 0 447.5086)">
			<stop  offset="0" style="stop-color:#EDEDED"/>
			<stop  offset="0.1617" style="stop-color:#D2D2D2"/>
			<stop  offset="0.3651" style="stop-color:#B7B7B7"/>
			<stop  offset="0.5718" style="stop-color:#A3A3A3"/>
			<stop  offset="0.7818" style="stop-color:#989898"/>
			<stop  offset="1" style="stop-color:#949494"/>
		</linearGradient>
		<path class="st58" d="M353.6,433.5c0,0,8.1,14.6,19.6,0C373.2,433.5,363.9,437.9,353.6,433.5z"/>
		
			<linearGradient id="SVGID_43_" gradientUnits="userSpaceOnUse" x1="252.6155" y1="216.477" x2="469.3959" y2="216.477" gradientTransform="matrix(1 0 0 -1 0 447.5086)">
			<stop  offset="0" style="stop-color:#FFFAE8"/>
			<stop  offset="5.935781e-03" style="stop-color:#FFF9E1"/>
			<stop  offset="3.807830e-02" style="stop-color:#FFF2BE"/>
			<stop  offset="7.074361e-02" style="stop-color:#FFEDA3"/>
			<stop  offset="0.1037" style="stop-color:#FFE98F"/>
			<stop  offset="0.1372" style="stop-color:#FFE784"/>
			<stop  offset="0.172" style="stop-color:#FFE680"/>
			<stop  offset="0.3495" style="stop-color:#FFF7DB"/>
			<stop  offset="0.4299" style="stop-color:#FFE27B"/>
			<stop  offset="0.5425" style="stop-color:#FFDC3D"/>
			<stop  offset="0.7044" style="stop-color:#D1922C"/>
			<stop  offset="0.8333" style="stop-color:#FFDB2C"/>
			<stop  offset="0.8573" style="stop-color:#FFE153"/>
			<stop  offset="0.8918" style="stop-color:#FFE984"/>
			<stop  offset="0.9245" style="stop-color:#FFF0AB"/>
			<stop  offset="0.9543" style="stop-color:#FFF4C7"/>
			<stop  offset="0.9805" style="stop-color:#FFF7D8"/>
			<stop  offset="1" style="stop-color:#FFF8DE"/>
		</linearGradient>
		<path class="st59" d="M345.4,369.4c0,0-18.1-96.6-81.5-144.6c0,0,15-56.5,17.8-102.4l63.6-29.7V369.4z"/>
		<g>
			<g class="st3">
				<path class="st22" d="M255.9,227.1c5.3,5.3,10.4,11,15.3,17.1c5,6.1,9.8,12.5,14.5,19.1c9.4,13.4,18.2,27.9,26.4,43.7
					c8.1,15.7,15.5,32.7,22,50.8c6.5,18.1,12.1,37.3,16.7,57.4l0.1,0.5l0.3,0l8.7-0.7l-8.7-0.7l0.4,0.5c-3.4-21-8.3-41.2-14.5-60.2
					c-6.2-18.9-13.6-36.5-22-52.5c-8.3-16-17.6-30.5-27.5-43.1C277.6,246.2,267.1,235.1,255.9,227.1z"/>
			</g>
		</g>
		<g class="st3">
			<g>
				<path class="st27" d="M359.8,414.9c1.3-33,1.8-66,2-99c0.1-33-0.1-66-0.8-99l0-1.5l-0.8-0.5c-3.1-1.9-6.2-5.3-8.4-9.9
					c-2.3-4.5-3.6-10.5-3.7-16.8c-0.1-6.2,0.9-12.6,3-17.6c2.1-5.1,5.3-8.5,8.8-10.2c-3.5,1.2-7,4.2-9.3,9.3
					c-2.4,5.1-3.7,11.8-3.7,18.5c-0.1,6.7,1.2,13.6,3.6,18.9c2.4,5.4,5.5,9.2,9.2,11.7l-0.8-2c-0.8,33-1,66-0.8,99
					C358,348.9,358.5,381.9,359.8,414.9z"/>
			</g>
		</g>
		
			<linearGradient id="SVGID_44_" gradientUnits="userSpaceOnUse" x1="256.8003" y1="216.477" x2="470.2859" y2="216.477" gradientTransform="matrix(1 0 0 -1 0 447.5086)">
			<stop  offset="0" style="stop-color:#FFF2C2"/>
			<stop  offset="1.177104e-02" style="stop-color:#FFEFB3"/>
			<stop  offset="4.277877e-02" style="stop-color:#FFE790"/>
			<stop  offset="7.429692e-02" style="stop-color:#FFE175"/>
			<stop  offset="0.1061" style="stop-color:#FFDC61"/>
			<stop  offset="0.1385" style="stop-color:#FFDA56"/>
			<stop  offset="0.172" style="stop-color:#FFD952"/>
			<stop  offset="0.3495" style="stop-color:#FFF5D1"/>
			<stop  offset="0.5746" style="stop-color:#F2B707"/>
			<stop  offset="0.7044" style="stop-color:#CF842E"/>
			<stop  offset="0.8333" style="stop-color:#FFD747"/>
			<stop  offset="0.8355" style="stop-color:#FFD84A"/>
			<stop  offset="0.8753" style="stop-color:#FFE27B"/>
			<stop  offset="0.9129" style="stop-color:#FFEBA2"/>
			<stop  offset="0.9473" style="stop-color:#FFF1BE"/>
			<stop  offset="0.9775" style="stop-color:#FFF5CF"/>
			<stop  offset="1" style="stop-color:#FFF6D5"/>
		</linearGradient>
		<path class="st60" d="M379.4,369.4c0,0,18.1-96.6,81.5-144.6c0,0-15-56.5-17.8-102.4l-63.6-29.7V369.4z"/>
		<path class="st29" d="M377.5,414.9h-1.8H367c7.1-2.9,12.4-206.5,12.4-220.3c0-16-7.2-28.9-16-28.9c-8.8,0-16,13-16,28.9
			c0,13.8,5.3,217.3,12.4,220.3h-8.7h-1.6c0,0-16.8-99.3-93.6-181.9v-5.9c30-55.4,37.5-149.7,37.5-149.7s15.7-17.1,70-17.1
			c54.3,0,60.9,17.1,60.9,17.1s11,98.7,46.7,149.7v5.9C390,326.4,377.5,414.9,377.5,414.9z"/>
		
			<linearGradient id="SVGID_45_" gradientUnits="userSpaceOnUse" x1="366.0986" y1="30.3233" x2="366.0986" y2="294.8389" gradientTransform="matrix(1 0 0 -1 0 447.5086)">
			<stop  offset="0" style="stop-color:#525252"/>
			<stop  offset="5.180150e-02" style="stop-color:#4B4B4B"/>
			<stop  offset="0.2819" style="stop-color:#303030"/>
			<stop  offset="0.5157" style="stop-color:#1C1C1C"/>
			<stop  offset="0.7532" style="stop-color:#111111"/>
			<stop  offset="1" style="stop-color:#0D0D0D"/>
		</linearGradient>
		<polygon class="st61" points="359.8,414.9 367,414.9 376.9,349.3 390,150.4 342.2,150.4 349.2,349.3 		"/>
	</g>
	<g>
		<g>
			<path class="st4" d="M340,412.4c-1.6-7.1-7.7-32-23.6-64c-16.9-34.1-48.5-82.7-103.2-122.1c30.9-59.8,34.7-146.5,35.2-160.6
				c8.1-1.8,43.4-8.8,106.1-8.8c62.8,0,98,7,106.1,8.8c0.4,14.1,4.2,100.9,35.2,160.6c-50.2,36.7-97,112.3-103.5,123l-24.5-0.4
				l-0.5-135.4c10.7-4,16.2-12.5,16.2-25.5c0-17.2-15.2-30-28.8-30c-13.5,0-29.2,13.3-29.2,30.3c0,12.4,6.8,22.1,18.3,26.3
				l-0.7,197.8H340z"/>
			<path class="st31" d="M354.5,59.3c58.5,0,92.9,6.1,103.7,8.4c0.3,8.3,1.3,28.6,4.9,54c4.1,29.1,12.6,70.3,29.5,103.9
				c-22.1,16.5-45.9,41.9-70.8,75.5c-15.6,21.1-27,39.3-30.9,45.7l-20.6-0.4l-0.5-131.3c8-3.5,16.2-11,16.2-27.1
				c0-18.6-16.5-32.5-31.3-32.5c-7.2,0-15.2,3.5-21.2,9.3c-6.7,6.4-10.4,14.8-10.4,23.5c0,12.9,6.8,23.1,18.3,28l-0.6,188.4
				c-3-11.4-9.5-32.2-22.1-57.4c-16.9-33.9-48.2-82.3-102.2-121.8c16.9-33.6,25.4-74.8,29.5-103.9c3.6-25.4,4.6-45.7,4.9-54
				C261.6,65.4,296.1,59.3,354.5,59.3 M354.5,54.3c-73,0-108.6,9.3-108.6,9.3S244.7,162,210,227.1c107.2,76.1,128,187.9,128,187.9
				h7.7l0.7-202.1c-9.6-2.9-18.3-10.7-18.3-24.5c0-16,14.8-27.8,26.7-27.8c11.9,0,26.3,11.5,26.3,27.5c0,13.8-6.6,20.7-16.2,23.7
				l0.5,139.7l28.4,0.5c0,0,50.6-85.9,105.3-124.8C464.3,162,463.1,63.7,463.1,63.7S427.5,54.3,354.5,54.3L354.5,54.3z"/>
		</g>
		<path class="st5" d="M471.5,141.7c-26.3-19.3-64.2-36-117.2-36c-53,0-90.8,17-116.8,36.5c8-42.7,8.5-78.6,8.5-78.6
			c0.1,0,0.1,0,0.2-0.1c17.7-5.2,35.7-8.4,53.8-10.5c18.1-2.2,36.4-3.1,54.6-3.1c18.2,0.1,36.4,1.1,54.6,3.3
			c18.1,2.1,36,5.5,53.8,10.3c0.1,0,0.1,0,0.2,0.1C463.1,63.7,463.5,99.2,471.5,141.7z"/>
	</g>
</g>
<g>
	<g>
		<path class="st5" d="M88.9,521.4v-88.6c0-7-0.4-13-1.2-17.8c-0.8-4.8-2.2-9.6-4.2-14.4H109h27.1c18.5,0,32.7,4.1,42.8,12.3
			c10,8.2,15,19.9,15,35.1c0,14.5-5.6,26-16.7,34.5c-11.1,8.5-26.1,12.7-45,12.7h-3.1v26.1c0,7,0.4,13,1.2,17.8
			c0.8,4.8,2.2,9.6,4.2,14.4h-25.5H83.5c2-4.8,3.4-9.5,4.2-14.4C88.5,534.3,88.9,528.4,88.9,521.4z M129.2,468.4h1.4
			c7.1,0,12.9-2,17.4-6.1c4.5-4,6.8-9.2,6.8-15.6c0-5.7-2.1-10.3-6.3-13.9c-4.2-3.6-9.7-5.4-16.3-5.4h-2.9V468.4z"/>
		<path class="st5" d="M262.9,555.7c-18,0-32.3-4.9-42.7-14.7c-10.4-9.8-15.6-23.3-15.6-40.4c0-16.3,4.6-29.6,13.9-39.9
			c9.2-10.3,21.1-15.5,35.6-15.5h-0.3c14,0,24.9,4.4,32.8,13.2c7.9,8.8,11.8,21,11.8,36.6c0,4.2-0.4,8.3-1.2,12.1h-55.9
			c1.3,5.5,3.4,10.2,6.3,14.1c5.3,6.8,12.9,10.2,23,10.2c4.7,0,9.5-0.8,14.4-2.3c4.9-1.6,9.3-3.7,13.3-6.5l-12.9,31
			c-6,0.9-10.4,1.5-13.3,1.8C269.4,555.6,266.3,555.7,262.9,555.7z M266.7,486.5l-0.1-3.6c0-5.1-1.1-9-3.4-11.7s-5.4-4.1-9.5-4.1
			c-4.5,0-8,2.1-10.4,6.3c-1.8,3.1-2.9,7.5-3.3,13.2H266.7z"/>
		<path class="st5" d="M313.4,521.4v-41.8c0-7.3-0.4-13.3-1.1-18.2c-0.7-4.8-2.1-9.5-4-14h20.9h20.9v20.3l19.5-21.1
			c2.5-1,5.5-1.5,8.8-1.5c10.2,0,18.1,2.7,23.5,8.2s8.2,13.3,8.2,23.5v44.4c0,7.3,0.4,13.3,1.1,18.2c0.7,4.8,2.1,9.5,4,14h-23.4
			h-23.4c1.9-4.5,3.2-9.1,4-14c0.7-4.8,1.1-10.9,1.1-18.2V489c0-5-1-8.9-3.1-11.6c-2.1-2.7-5-4.1-8.9-4.1c-4.3,0-8.1,1.1-11.3,3.3
			v44.6c0,7.3,0.4,13.3,1.1,18.2c0.7,4.8,2.1,9.5,4,14h-23.4h-23.4c1.9-4.5,3.2-9.1,4-14C313,534.7,313.4,528.7,313.4,521.4z"/>
		<path class="st5" d="M484.1,555.7c-18,0-32.3-4.9-42.7-14.7c-10.4-9.8-15.6-23.3-15.6-40.4c0-16.3,4.6-29.6,13.9-39.9
			c9.2-10.3,21.1-15.5,35.6-15.5H475c14,0,24.9,4.4,32.8,13.2c7.9,8.8,11.8,21,11.8,36.6c0,4.2-0.4,8.3-1.2,12.1h-55.9
			c1.3,5.5,3.4,10.2,6.3,14.1c5.3,6.8,12.9,10.2,23,10.2c4.7,0,9.5-0.8,14.4-2.3c4.9-1.6,9.3-3.7,13.3-6.5l-12.9,31
			c-6,0.9-10.4,1.5-13.3,1.8C490.6,555.6,487.5,555.7,484.1,555.7z M487.9,486.5l-0.1-3.6c0-5.1-1.1-9-3.4-11.7
			c-2.2-2.7-5.4-4.1-9.5-4.1c-4.5,0-8,2.1-10.4,6.3c-1.8,3.1-2.9,7.5-3.3,13.2H487.9z"/>
		<path class="st5" d="M534.7,521.4v-82.4c0-7.3-0.4-13.3-1.1-18.2c-0.7-4.8-2.1-9.5-4-14l23.9-2.6l23.9-2.7
			c-2.2,4.4-3.8,10-4.7,16.7c-0.9,6.7-1.4,16.2-1.4,28.3v20.4l19.4-20.3c3.1-1,6.1-1.4,8.8-1.4c10.3,0,18.2,2.7,23.6,8.2
			s8.2,13.3,8.2,23.6v44.3c0,7.3,0.4,13.3,1.1,18.2c0.7,4.8,2.1,9.5,4,14h-23.4h-23.4c1.9-4.5,3.2-9.1,4-14
			c0.7-4.8,1.1-10.9,1.1-18.2v-32.9c0-4.9-0.9-8.6-2.6-11.2c-1.7-2.6-4.2-3.9-7.5-3.9c-5.1,0.1-9.6,1.7-13.3,4.8v43.2
			c0,7.3,0.4,13.3,1.1,18.2c0.7,4.8,2.1,9.5,4,14H553h-23.4c1.9-4.5,3.2-9.1,4-14C534.3,534.7,534.7,528.7,534.7,521.4z"/>
	</g>
</g>
<g>
	<g>
		<path class="st4" d="M84.6,619.4c-3.9,0-7.1-1.3-9.7-3.9s-3.9-5.8-3.9-9.7c0-4.3,1.4-7.8,4.3-10.6S81.7,591,86,591
			c1.3,0,2.4,0.1,3.4,0.3s2.1,0.5,3.6,1v4.6c-1.4-0.9-2.7-1.6-3.8-1.9c-1.2-0.4-2.5-0.5-4.1-0.5c-2.7,0-5,1-6.8,3
			c-1.8,2-2.7,4.6-2.7,7.6c0,3.2,0.8,5.8,2.5,7.9s3.8,3.2,6.3,3.2h0c2,0,3.9-0.3,5.7-1v-1.9c0-1.7-0.1-3.2-0.2-4.3
			c-0.1-1.2-0.4-2.4-0.8-3.6h3h3.1c-0.4,1.2-0.6,2.4-0.7,3.6c-0.1,1.2-0.2,2.6-0.2,4.4v0.5c0,0.9,0,1.6,0.1,2.2s0.2,1.2,0.4,1.8
			C91.9,618.8,88.4,619.4,84.6,619.4L84.6,619.4z"/>
		<path class="st4" d="M100,613.4v-7.9c0-1-0.1-2-0.2-2.8s-0.3-1.8-0.6-2.8h2.3h2.3v3.4l3-3.3c0.9-0.3,1.7-0.5,2.5-0.5
			c0.7,0,1.2,0.1,1.7,0.4l-0.8,4.1l-0.2-0.1c-0.7-0.5-1.6-0.8-2.5-0.8c-0.7,0-1.7,0.3-2.8,0.8l-0.9,0.4v9.2c0,1.5,0.1,2.6,0.2,3.5
			s0.3,1.5,0.6,2.1H102h-2.7c0.3-0.6,0.5-1.3,0.6-2.1S100,614.9,100,613.4z"/>
		<path class="st4" d="M117.6,619.4c-1.9,0-3.3-0.4-4.3-1.2s-1.5-1.9-1.5-3.4c0-1,0.4-1.9,1.1-2.8s1.7-1.6,2.9-2.1l5.6-2.3v-1.7
			c0-1-0.3-1.9-1-2.5s-1.5-0.9-2.6-0.9c-0.7,0-1.4,0.1-2,0.4c-0.7,0.2-1.4,0.6-2.2,1.2l1.1-3.7c0.8-0.3,1.5-0.5,2.2-0.7
			s1.4-0.2,2.1-0.2c2.1,0,3.6,0.5,4.6,1.6s1.6,2.7,1.6,4.8v7.5c0,1.6,0,2.8,0.1,3.6s0.3,1.5,0.5,2h-2.3h-2.3v-1.8l-3,2.2
			L117.6,619.4z M121.4,616.1v-5.3h-4.9c-0.1,0-0.3,0.4-0.4,1.1s-0.3,1.3-0.3,1.8c0,0.9,0.3,1.6,0.9,2s1.5,0.7,2.6,0.7
			C120,616.4,120.7,616.3,121.4,616.1L121.4,616.1z"/>
		<path class="st4" d="M129.9,605.5c0-1-0.1-2-0.2-2.8s-0.3-1.8-0.6-2.8h2.3h2.3v3.3l2.6-3.1l0.5-0.2c0.6-0.3,1.3-0.4,2.2-0.4
			c2,0,3.7,0.9,4.9,2.8s1.9,4.3,1.9,7.4c0,3.1-0.6,5.5-1.8,7.2s-2.9,2.5-5.1,2.5c-2,0-3.7-0.7-5.2-1.9v2c0,1,0.1,1.9,0.2,2.8
			s0.3,1.8,0.6,2.8h-2.7h-2.7c0.3-1,0.5-2,0.6-2.8s0.2-1.8,0.2-2.8V605.5z M137,616.4c1.6,0,2.8-0.6,3.6-1.7s1.3-2.8,1.3-4.9
			c0-2.1-0.4-3.7-1.2-4.9s-1.9-1.8-3.3-1.8c-0.7,0-1.5,0.2-2.4,0.5c-0.4,0.2-0.8,0.3-1.2,0.6v10.5
			C134.6,615.8,135.7,616.4,137,616.4z"/>
		<path class="st4" d="M149.6,613.4v-15.1c0-1.2-0.1-2.3-0.2-3.1s-0.3-1.7-0.6-2.5l2.7-0.5l2.7-0.6c-0.3,0.9-0.5,1.8-0.6,2.9
			s-0.2,2.5-0.2,4.4v4.4l2.9-3.3c1-0.3,1.8-0.4,2.5-0.4c1.7,0,3.1,0.5,4,1.6s1.4,2.7,1.4,4.7v7.6c0,1.6,0,2.8,0.1,3.6s0.3,1.5,0.5,2
			h-2.7h-2.7c0.3-0.6,0.5-1.3,0.6-2.1s0.2-2,0.2-3.5v-7c0-1.1-0.3-1.9-0.8-2.5s-1.3-0.8-2.4-0.8c-0.7,0-1.7,0.3-2.8,0.8l-0.9,0.4
			v9.2c0,1.5,0.1,2.6,0.2,3.5s0.3,1.5,0.6,2.1h-2.7h-2.7c0.3-0.6,0.5-1.3,0.6-2.1S149.6,614.9,149.6,613.4z"/>
		<path class="st4" d="M169,613.4v-7.9c0-1-0.1-2-0.2-2.8s-0.3-1.8-0.6-2.8h2.7h2.7c-0.3,0.6-0.5,1.3-0.6,2.1s-0.2,2-0.2,3.4v7.9
			c0,1.5,0.1,2.6,0.2,3.5s0.3,1.5,0.6,2.1h-2.7h-2.7c0.3-0.6,0.5-1.3,0.6-2.1S169,614.9,169,613.4z M170.8,591.9
			c0.7,0,1.3,0.3,1.8,0.9s0.8,1.3,0.8,2.1s-0.3,1.5-0.8,2.1s-1.1,0.9-1.8,0.9c-0.7,0-1.3-0.3-1.8-0.9c-0.5-0.6-0.8-1.3-0.8-2.1
			s0.3-1.5,0.8-2.1C169.4,592.2,170.1,591.9,170.8,591.9z"/>
		<path class="st4" d="M189.1,618.9c-0.9,0.2-1.6,0.4-2.1,0.4s-1.2,0.1-1.9,0.1c-2.5,0-4.6-0.9-6.3-2.7s-2.5-4-2.5-6.7
			c0-3,0.9-5.5,2.8-7.5s4.2-3,7-3c0.8,0,1.4,0,2,0.1s1.3,0.2,2.3,0.3l-0.2,4.4c-0.7-0.8-1.4-1.3-2.1-1.6s-1.5-0.5-2.3-0.5
			c-1.7,0-3,0.6-4,1.9s-1.5,3-1.5,5.2c0,2.2,0.5,4,1.6,5.3c1,1.3,2.5,2,4.2,2c0.6,0,1.2-0.1,1.9-0.3c0.7-0.2,1.5-0.5,2.7-1
			L189.1,618.9z"/>
		<path class="st4" d="M206.3,611v-11.6c0-1.7-0.1-3.2-0.2-4.3s-0.4-2.4-0.8-3.6h3.1h1.6c5,0,9,1.3,11.9,3.8s4.4,5.9,4.4,10.2
			c0,4.1-1.4,7.4-4.1,9.9s-6.4,3.6-11.1,3.6h-2.8h-3c0.4-1.2,0.6-2.4,0.7-3.6S206.3,612.8,206.3,611z M210.5,616
			c3.4,0,6.2-0.9,8.3-2.8s3.1-4.3,3.1-7.3c0-3.4-1-6.2-3-8.3s-4.6-3.1-7.9-3.1h-0.6V616z"/>
		<path class="st4" d="M238.5,619.4c-2.6,0-4.8-0.9-6.5-2.6s-2.5-4-2.5-6.8c0-3,0.7-5.5,2.2-7.5s3.3-3,5.6-3h0c2.2,0,3.9,0.8,5,2.3
			s1.8,3.7,1.8,6.5l0,1.7h-10.6c0.2,1.7,0.7,3.2,1.5,4.3c1,1.5,2.5,2.2,4.3,2.2c0.8,0,1.6-0.1,2.4-0.3s1.5-0.5,2.1-0.9l-1.5,3.7
			c-0.8,0.2-1.5,0.4-2,0.4S239.2,619.4,238.5,619.4z M241,607.3c0-1.7-0.3-2.9-0.9-3.8s-1.5-1.3-2.6-1.3h0c-1.3,0-2.2,0.5-2.9,1.6
			c-0.6,0.9-0.9,2-1,3.5H241z"/>
		<path class="st4" d="M256.8,604c-0.5-0.6-1.1-1.1-1.7-1.4s-1.2-0.4-1.9-0.4c-0.8,0-1.4,0.2-1.9,0.6s-0.8,0.9-0.8,1.5
			c0,0.6,0.2,1.1,0.5,1.6c0.3,0.5,1,1.1,1.9,1.8c1.6,1.2,2.7,2.3,3.3,3.2c0.6,0.9,0.9,1.9,0.9,2.9c0,1.6-0.6,3-1.7,4.1
			c-1.1,1.1-2.6,1.6-4.3,1.6c-1,0-1.8-0.1-2.4-0.2s-1.5-0.3-2.5-0.6V614c0.7,0.9,1.5,1.6,2.2,2c0.7,0.4,1.5,0.7,2.3,0.7
			c0.8,0,1.4-0.2,1.9-0.7c0.5-0.4,0.7-1,0.7-1.7c0-0.5-0.2-1.1-0.6-1.6c-0.4-0.5-1.1-1.2-2.2-2c-1.4-1.1-2.4-2.1-3-3
			c-0.6-0.9-0.8-1.8-0.8-2.9c0-1.6,0.6-2.9,1.9-3.9c1.2-1,2.8-1.6,4.7-1.6c0.7,0,1.3,0.1,1.8,0.2s1.1,0.3,1.7,0.6V604z"/>
		<path class="st4" d="M260.6,613.4v-7.9c0-1-0.1-2-0.2-2.8s-0.3-1.8-0.6-2.8h2.7h2.7c-0.3,0.6-0.5,1.3-0.6,2.1s-0.2,2-0.2,3.4v7.9
			c0,1.5,0.1,2.6,0.2,3.5s0.3,1.5,0.6,2.1h-2.7h-2.7c0.3-0.6,0.5-1.3,0.6-2.1S260.6,614.9,260.6,613.4z M262.4,591.9
			c0.7,0,1.3,0.3,1.8,0.9s0.8,1.3,0.8,2.1s-0.3,1.5-0.8,2.1s-1.1,0.9-1.8,0.9c-0.7,0-1.3-0.3-1.8-0.9c-0.5-0.6-0.8-1.3-0.8-2.1
			s0.3-1.5,0.8-2.1C261.1,592.2,261.7,591.9,262.4,591.9z"/>
		<path class="st4" d="M272.5,613.9c0,0.3,0.2,0.6,0.6,0.8s0.9,0.3,1.5,0.3h4.1c1.6,0,2.8,0.3,3.6,1s1.1,1.8,1.1,3.2
			c0,1.6-0.8,3-2.4,4.2s-3.5,1.7-5.9,1.7c-2.3,0-4.1-0.2-5.3-0.7s-1.8-1.2-1.8-2.1c0-0.5,0.2-1,0.7-1.6s1.4-1.5,2.8-2.8
			c-1-0.1-1.8-0.2-2.3-0.5c-0.8-0.3-1.2-0.9-1.2-1.5c0-0.5,0.2-1,0.6-1.4s1.5-1.2,3.3-2.5c-0.7-0.3-1.3-0.7-1.9-1.2
			c-1.3-1.2-1.9-2.6-1.9-4.4c0-2,0.6-3.7,1.9-5s2.9-2,4.8-2c1.5,0,2.8,0.4,3.9,1.1h2c0.8,0,1.5,0,2.2-0.1s1.3-0.2,1.6-0.2l-0.4,3
			l-3.1,0c0.4,0.9,0.6,1.8,0.6,2.9c0,1.9-0.6,3.4-1.9,4.6s-2.9,1.9-4.8,1.9c-0.5,0-1,0-1.4-0.1c-0.3,0.1-0.6,0.3-0.8,0.6
			C272.6,613.4,272.5,613.6,272.5,613.9z M274.8,602.1c-0.9,0-1.6,0.3-2.1,1s-0.8,1.5-0.8,2.5c0,1.2,0.3,2.2,1,3.1s1.5,1.3,2.4,1.3
			h0c0.9,0,1.6-0.3,2.2-0.9s0.8-1.5,0.8-2.5c0-1.2-0.3-2.3-1-3.1S275.8,602.1,274.8,602.1L274.8,602.1z M272.1,620.1
			c0,0.7,0.3,1.2,0.9,1.5s1.5,0.5,2.7,0.5c1.3,0,2.3-0.2,3-0.5s1-0.9,1-1.6c0-0.6-0.2-1.1-0.7-1.4s-1.1-0.5-1.9-0.5h-3.8
			c-0.3,0.2-0.6,0.5-0.8,0.9S272.1,619.7,272.1,620.1z"/>
		<path class="st4" d="M286.5,613.4v-7.9c0-1-0.1-2-0.2-2.8s-0.3-1.8-0.6-2.8h2.3h2.3v3.3l2.9-3.3c1-0.3,1.8-0.4,2.5-0.4
			c1.7,0,3.1,0.5,4,1.6s1.4,2.7,1.4,4.7v7.6c0,1.6,0,2.8,0.1,3.6s0.3,1.5,0.5,2H299h-2.7c0.3-0.6,0.5-1.3,0.6-2.1s0.2-2,0.2-3.5v-7
			c0-1.1-0.3-1.9-0.8-2.5s-1.3-0.8-2.4-0.8c-0.7,0-1.7,0.3-2.8,0.8l-0.9,0.4v9.2c0,1.5,0.1,2.6,0.2,3.5s0.3,1.5,0.6,2.1h-2.7h-2.7
			c0.3-0.6,0.5-1.3,0.6-2.1S286.5,614.9,286.5,613.4z"/>
		<path class="st4" d="M318,601.5c0-1.6,0.6-2.9,1.7-4s2.6-1.6,4.3-1.6s3.2,0.5,4.3,1.5c1.1,1,1.7,2.2,1.7,3.7c0,1.3-0.3,2.4-1,3.3
			c-0.4,0.5-0.8,0.9-1.3,1.3l1.1,0.6c1.2,0.6,2.3,1.3,3.1,1.8l2.6,1.9c0.4-1.2,0.8-2.8,1.1-4.8c0.3-1.9,0.4-3.8,0.4-5.7
			c-0.6,0-1.3,0.1-2,0.2c-0.8,0.1-1.4,0.3-1.9,0.5v-3.7h4.1h3.9h4.1v3.7c-0.5-0.2-1.1-0.4-1.9-0.5s-1.5-0.2-2.2-0.2h-0.7
			c0.1,1.7-0.1,3.6-0.4,5.5c-0.4,2.7-1.1,5-1.9,7l2.1,1.7c0.9,0.7,2,1.4,3.2,2.1s2.2,1.1,3,1.3l-3.7,2.2c-0.7-0.2-1.4-0.4-2.3-0.9
			s-1.6-0.9-2.2-1.4l-2.1-1.7c-0.8,0.9-1.9,1.7-3.1,2.4c-2.1,1.2-4.3,1.8-6.6,1.8c-2.7,0-4.9-0.7-6.7-2.1s-2.7-3.1-2.7-5.2
			c0-1.7,0.6-3.2,1.7-4.5c0.7-0.7,1.5-1.4,2.6-1.9l-0.6-0.5C318.6,604.3,318,603,318,601.5z M325.7,616c1.5,0,3-0.5,4.5-1.4
			c0.8-0.5,1.5-1,2.1-1.6l-3-2.2c-0.7-0.5-1.5-1-2.6-1.5c-1.2-0.6-2.3-1.1-3.3-1.6c-0.8,0.4-1.5,0.8-2,1.3c-1,0.9-1.5,2-1.5,3.3
			c0,1.1,0.5,2,1.6,2.7C322.7,615.7,324,616,325.7,616z M321.5,601.5c0,0.7,0.2,1.3,0.7,1.8s1.1,0.7,1.8,0.7c0.8,0,1.5-0.2,1.9-0.7
			c0.4-0.4,0.6-1.1,0.6-2c0-0.6-0.2-1.1-0.7-1.6c-0.5-0.4-1.1-0.6-1.8-0.6s-1.3,0.2-1.8,0.7C321.8,600.2,321.5,600.8,321.5,601.5z"
			/>
		<path class="st4" d="M365.5,619l-5.2-19.6c-0.6-2.3-1.2-4-1.6-5.2s-0.9-2.1-1.4-2.8h3.4h3.4c-0.3,0.7-0.5,1.6-0.4,2.8
			s0.2,2.4,0.5,3.6l3.3,13.4h0l6.7-20.3h0l6.6,20.2h0l3.4-13.3c0.3-1.1,0.5-2.3,0.5-3.5s-0.1-2.2-0.4-2.9h3.4h3.4
			c-0.5,0.7-0.9,1.6-1.4,2.8s-1,2.9-1.6,5.2l-5.2,19.6h-3.3l-5.3-15.8h0l-5.1,15.8H365.5z"/>
		<path class="st4" d="M401.2,619.4c-2.6,0-4.8-0.9-6.5-2.6s-2.5-4-2.5-6.8c0-3,0.7-5.5,2.2-7.5s3.3-3,5.6-3h0c2.2,0,3.9,0.8,5,2.3
			s1.8,3.7,1.8,6.5l0,1.7h-10.6c0.2,1.7,0.7,3.2,1.5,4.3c1,1.5,2.5,2.2,4.3,2.2c0.8,0,1.6-0.1,2.4-0.3s1.5-0.5,2.1-0.9l-1.5,3.7
			c-0.8,0.2-1.5,0.4-2,0.4S401.9,619.4,401.2,619.4z M403.7,607.3c0-1.7-0.3-2.9-0.9-3.8s-1.5-1.3-2.6-1.3h0c-1.3,0-2.2,0.5-2.9,1.6
			c-0.6,0.9-0.9,2-1,3.5H403.7z"/>
		<path class="st4" d="M410.4,598.3c0-1.2-0.1-2.3-0.2-3.1s-0.3-1.7-0.6-2.5l2.7-0.5l2.7-0.6c-0.3,0.6-0.5,1.3-0.6,2s-0.2,1.8-0.2,3
			v6.4l2.8-3.3c0.9-0.3,1.7-0.4,2.5-0.4c2.1,0,3.8,0.7,5,2.1s1.7,3.4,1.7,6c0,3.5-1,6.3-3.1,8.3s-4.9,3.1-8.5,3.1h-0.5h-4.6
			c0.3-0.6,0.5-1.3,0.6-2.1s0.2-2,0.2-3.5V598.3z M416.8,616.3c1.8,0,3.2-0.6,4.2-1.9s1.5-3,1.5-5.3c0-1.9-0.4-3.4-1.2-4.6
			s-1.9-1.7-3.3-1.7c-0.8,0-1.7,0.2-2.6,0.5l-1.1,0.5v12.1C415,616.3,415.8,616.3,416.8,616.3z"/>
		<path class="st4" d="M442,611v-11.6c0-1.7-0.1-3.2-0.2-4.3s-0.4-2.4-0.8-3.6h3.1h1.6c5,0,9,1.3,11.9,3.8s4.4,5.9,4.4,10.2
			c0,4.1-1.4,7.4-4.1,9.9s-6.4,3.6-11.1,3.6h-2.8h-3c0.4-1.2,0.6-2.4,0.7-3.6S442,612.8,442,611z M446.2,616c3.4,0,6.2-0.9,8.3-2.8
			s3.1-4.3,3.1-7.3c0-3.4-1-6.2-3-8.3s-4.6-3.1-7.9-3.1h-0.6V616z"/>
		<path class="st4" d="M474.2,619.4c-2.6,0-4.8-0.9-6.5-2.6s-2.5-4-2.5-6.8c0-3,0.7-5.5,2.2-7.5s3.3-3,5.6-3h0c2.2,0,3.9,0.8,5,2.3
			s1.8,3.7,1.8,6.5l0,1.7h-10.6c0.2,1.7,0.7,3.2,1.5,4.3c1,1.5,2.5,2.2,4.3,2.2c0.8,0,1.6-0.1,2.4-0.3s1.5-0.5,2.1-0.9l-1.5,3.7
			c-0.8,0.2-1.5,0.4-2,0.4S474.9,619.4,474.2,619.4z M476.7,607.3c0-1.7-0.3-2.9-0.9-3.8s-1.5-1.3-2.6-1.3h0c-1.3,0-2.2,0.5-2.9,1.6
			c-0.6,0.9-0.9,2-1,3.5H476.7z"/>
		<path class="st4" d="M484.4,606.6c-0.4-1.3-0.9-2.4-1.3-3.4s-1.1-2.1-1.9-3.3h2.8h2.8c-0.1,0.6-0.1,1.2-0.1,1.8s0.2,1.3,0.5,2.2
			l3.4,11.1h0l3.4-11.1c0.3-0.8,0.4-1.5,0.5-2.1s0-1.2-0.1-1.9h2.1h2.1c-0.5,0.8-1,1.5-1.3,2.4s-0.8,1.9-1.2,3.2l-4.3,13.5h-3.7
			c-1.1-3.7-2-6.9-2.9-9.6L484.4,606.6z"/>
		<path class="st4" d="M508.7,619.4c-2.6,0-4.8-0.9-6.5-2.6s-2.5-4-2.5-6.8c0-3,0.7-5.5,2.2-7.5s3.3-3,5.6-3h0c2.2,0,3.9,0.8,5,2.3
			c1.2,1.5,1.8,3.7,1.8,6.5l0,1.7h-10.6c0.2,1.7,0.7,3.2,1.5,4.3c1,1.5,2.5,2.2,4.3,2.2c0.8,0,1.6-0.1,2.4-0.3
			c0.8-0.2,1.5-0.5,2.1-0.9l-1.5,3.7c-0.8,0.2-1.5,0.4-2,0.4S509.4,619.4,508.7,619.4z M511.2,607.3c0-1.7-0.3-2.9-0.9-3.8
			s-1.5-1.3-2.6-1.3h0c-1.3,0-2.2,0.5-2.9,1.6c-0.6,0.9-0.9,2-1,3.5H511.2z"/>
		<path class="st4" d="M518.2,613.4v-15.1c0-1.2-0.1-2.3-0.2-3.1s-0.3-1.7-0.6-2.5l2.7-0.5l2.7-0.6c-0.3,0.9-0.5,1.8-0.6,2.9
			s-0.2,2.5-0.2,4.4v14.6c0,1.5,0.1,2.6,0.2,3.5s0.3,1.5,0.6,2.1h-2.7h-2.7c0.3-0.6,0.5-1.3,0.6-2.1S518.2,614.9,518.2,613.4z"/>
		<path class="st4" d="M527.7,616.7c-1.6-1.8-2.4-4-2.4-6.7c0-3,0.9-5.5,2.7-7.5s4-3,6.7-3c2.4,0,4.4,0.9,6,2.7s2.4,4,2.4,6.7
			c0,3-0.9,5.5-2.7,7.5s-4,3-6.7,3C531.4,619.4,529.3,618.5,527.7,616.7z M538.3,614.4c0.6-1.2,0.9-2.5,0.9-4.1
			c0-2.4-0.6-4.4-1.8-5.9s-2.8-2.2-4.8-2.3c-1,0.4-1.8,1.2-2.5,2.4s-0.9,2.5-0.9,4.1c0,2.4,0.6,4.4,1.8,5.9s2.8,2.2,4.8,2.3
			C536.9,616.3,537.7,615.5,538.3,614.4z"/>
		<path class="st4" d="M546.8,605.5c0-1-0.1-2-0.2-2.8s-0.3-1.8-0.6-2.8h2.3h2.3v3.3l2.6-3.1l0.5-0.2c0.6-0.3,1.3-0.4,2.2-0.4
			c2,0,3.7,0.9,4.9,2.8s1.9,4.3,1.9,7.4c0,3.1-0.6,5.5-1.8,7.2s-2.9,2.5-5.1,2.5c-2,0-3.7-0.7-5.2-1.9v2c0,1,0.1,1.9,0.2,2.8
			s0.3,1.8,0.6,2.8h-2.7H546c0.3-1,0.5-2,0.6-2.8s0.2-1.8,0.2-2.8V605.5z M553.9,616.4c1.6,0,2.8-0.6,3.6-1.7s1.3-2.8,1.3-4.9
			c0-2.1-0.4-3.7-1.2-4.9s-1.9-1.8-3.3-1.8c-0.7,0-1.5,0.2-2.4,0.5c-0.4,0.2-0.8,0.3-1.2,0.6v10.5
			C551.5,615.8,552.6,616.4,553.9,616.4z"/>
		<path class="st4" d="M566.4,613.4v-7.9c0-1-0.1-2-0.2-2.8s-0.3-1.8-0.6-2.8h2.3h2.3v3.7l2.4-3l0.9-0.5c0.8-0.4,1.8-0.6,2.8-0.6
			c1.5,0,2.7,0.5,3.5,1.4c0.6,0.7,1,1.7,1.1,2.8l2.8-3.2l0.8-0.4c0.8-0.4,1.7-0.7,2.6-0.7c1.5,0,2.6,0.5,3.4,1.4s1.2,2.3,1.2,4.1
			v8.5c0,1.6,0,2.8,0.1,3.7s0.3,1.5,0.5,1.9h-2.6h-2.6c0.3-0.6,0.5-1.3,0.6-2.1s0.2-2,0.2-3.5v-7.3c0-1-0.2-1.8-0.7-2.3
			s-1.2-0.8-2.2-0.8c-0.9,0-1.9,0.3-3,0.9l-0.9,0.6v8.9c0,1.5,0.1,2.6,0.2,3.5s0.3,1.5,0.6,2.1H579h-2.7c0.3-0.6,0.5-1.3,0.6-2.1
			s0.2-2,0.2-3.5v-7.3c0-1-0.2-1.8-0.7-2.3c-0.5-0.5-1.2-0.8-2.2-0.8c-0.8,0-1.9,0.3-3.1,1l-0.8,0.4v8.9c0,1.5,0.1,2.6,0.2,3.5
			s0.3,1.5,0.6,2.1h-2.7h-2.7c0.3-0.6,0.5-1.3,0.6-2.1S566.4,614.9,566.4,613.4z"/>
		<path class="st4" d="M604.3,619.4c-2.6,0-4.8-0.9-6.5-2.6s-2.5-4-2.5-6.8c0-3,0.7-5.5,2.2-7.5s3.3-3,5.6-3h0c2.2,0,3.9,0.8,5,2.3
			s1.8,3.7,1.8,6.5l0,1.7h-10.6c0.2,1.7,0.7,3.2,1.5,4.3c1,1.5,2.5,2.2,4.3,2.2c0.8,0,1.6-0.1,2.4-0.3s1.5-0.5,2.1-0.9l-1.5,3.7
			c-0.8,0.2-1.5,0.4-2,0.4S605,619.4,604.3,619.4z M606.8,607.3c0-1.7-0.3-2.9-0.9-3.8s-1.5-1.3-2.6-1.3h0c-1.3,0-2.2,0.5-2.9,1.6
			c-0.6,0.9-0.9,2-1,3.5H606.8z"/>
		<path class="st4" d="M613.8,613.4v-7.9c0-1-0.1-2-0.2-2.8s-0.3-1.8-0.6-2.8h2.3h2.3v3.3l2.9-3.3c1-0.3,1.8-0.4,2.5-0.4
			c1.7,0,3.1,0.5,4,1.6s1.4,2.7,1.4,4.7v7.6c0,1.6,0,2.8,0.1,3.6s0.3,1.5,0.5,2h-2.7h-2.7c0.3-0.6,0.5-1.3,0.6-2.1s0.2-2,0.2-3.5v-7
			c0-1.1-0.3-1.9-0.8-2.5s-1.3-0.8-2.4-0.8c-0.7,0-1.7,0.3-2.8,0.8l-0.9,0.4v9.2c0,1.5,0.1,2.6,0.2,3.5s0.3,1.5,0.6,2.1h-2.7H613
			c0.3-0.6,0.5-1.3,0.6-2.1S613.8,614.9,613.8,613.4z"/>
		<path class="st4" d="M637.7,619.4c-1.5,0-2.6-0.4-3.3-1.3s-1-2.3-1-4.3v-11.3h-2.7v0l6.5-6.8h0v4.2h4.4v2.6h-4.4v9.7
			c0,1.3,0.2,2.3,0.7,2.9s1.1,1,2,1c0.5,0,1-0.1,1.5-0.2s1-0.4,1.6-0.7l-1.5,3.7c-0.7,0.2-1.3,0.4-1.7,0.4S638.6,619.4,637.7,619.4z
			"/>
	</g>
</g>
<circle class="st6" cx="354.3" cy="187.3" r="26.3"/>
</svg>
