<?xml version="1.0" encoding="utf-8"?>
<!-- Generator: Adobe Illustrator 22.0.1, SVG Export Plug-In . SVG Version: 6.00 Build 0)  -->
<svg version="1.1" xmlns="http://www.w3.org/2000/svg" xmlns:xlink="http://www.w3.org/1999/xlink" x="0px" y="0px"
	 viewBox="0 0 1214.1 511.9" style="enable-background:new 0 0 1214.1 511.9;" xml:space="preserve">
<style type="text/css">
	.st0{fill:#D1710A;}
	.st1{fill:#65002C;stroke:#65002C;stroke-miterlimit:10;}
	.st2{display:none;fill:#FFFFFF;stroke:#000000;stroke-miterlimit:10;}
	.st3{display:none;}
	.st4{fill:url(#SVGID_1_);stroke:#65002C;stroke-miterlimit:10;}
	.st5{display:inline;fill:url(#SVGID_2_);stroke:#65002C;stroke-miterlimit:10;}
	.st6{display:inline;fill:#B7C0CB;stroke:#65002C;stroke-miterlimit:10;}
	.st7{display:inline;fill:#030303;stroke:#65002C;stroke-miterlimit:10;}
	.st8{display:inline;fill:url(#SVGID_3_);stroke:#65002C;stroke-miterlimit:10;}
	.st9{fill:url(#SVGID_4_);stroke:#65002C;stroke-miterlimit:10;}
	.st10{fill:url(#SVGID_5_);stroke:#65002C;stroke-miterlimit:10;}
	.st11{display:inline;fill:url(#SVGID_6_);stroke:#65002C;stroke-miterlimit:10;}
	.st12{display:inline;fill:url(#SVGID_7_);stroke:#65002C;stroke-miterlimit:10;}
	.st13{display:inline;fill:#DEDEDE;stroke:#65002C;stroke-miterlimit:10;}
	.st14{display:inline;fill:#DFE3E8;stroke:#65002C;stroke-miterlimit:10;}
	.st15{display:inline;}
	.st16{fill:#747474;stroke:#65002C;stroke-miterlimit:10;}
	.st17{display:inline;fill:url(#SVGID_8_);stroke:#65002C;stroke-miterlimit:10;}
	.st18{display:inline;fill:url(#SVGID_9_);stroke:#65002C;stroke-miterlimit:10;}
	.st19{fill:#FFF2C2;stroke:#65002C;stroke-miterlimit:10;}
	.st20{fill:#FFF8DE;stroke:#65002C;stroke-miterlimit:10;}
	.st21{fill:url(#SVGID_10_);stroke:#65002C;stroke-miterlimit:10;}
	.st22{fill:url(#SVGID_11_);stroke:#65002C;stroke-miterlimit:10;}
	.st23{fill:url(#SVGID_12_);stroke:#65002C;stroke-miterlimit:10;}
	.st24{fill:url(#SVGID_13_);stroke:#65002C;stroke-miterlimit:10;}
	.st25{fill:#D38903;stroke:#65002C;stroke-miterlimit:10;}
	.st26{fill:url(#SVGID_14_);stroke:#65002C;stroke-miterlimit:10;}
	.st27{fill:#BB6600;stroke:#65002C;stroke-miterlimit:10;}
	.st28{fill:url(#SVGID_15_);stroke:#65002C;stroke-miterlimit:10;}
	.st29{fill:#65002C;}
	.st30{fill:url(#SVGID_16_);stroke:#65002C;stroke-miterlimit:10;}
	.st31{display:inline;fill:url(#SVGID_17_);stroke:#65002C;stroke-miterlimit:10;}
	.st32{display:inline;fill:url(#SVGID_18_);stroke:#65002C;stroke-miterlimit:10;}
	.st33{fill:url(#SVGID_19_);stroke:#65002C;stroke-miterlimit:10;}
	.st34{fill:url(#SVGID_20_);stroke:#65002C;stroke-miterlimit:10;}
	.st35{display:inline;fill:url(#SVGID_21_);stroke:#65002C;stroke-miterlimit:10;}
	.st36{display:inline;fill:url(#SVGID_22_);stroke:#65002C;stroke-miterlimit:10;}
	.st37{display:inline;fill:url(#SVGID_23_);stroke:#65002C;stroke-miterlimit:10;}
	.st38{display:inline;fill:url(#SVGID_24_);stroke:#65002C;stroke-miterlimit:10;}
	.st39{fill:url(#SVGID_25_);stroke:#65002C;stroke-miterlimit:10;}
	.st40{fill:url(#SVGID_26_);stroke:#65002C;stroke-miterlimit:10;}
	.st41{fill:url(#SVGID_27_);stroke:#65002C;stroke-miterlimit:10;}
	.st42{fill:url(#SVGID_28_);stroke:#65002C;stroke-miterlimit:10;}
	.st43{fill:url(#SVGID_29_);stroke:#65002C;stroke-miterlimit:10;}
	.st44{fill:url(#SVGID_30_);stroke:#65002C;stroke-miterlimit:10;}
	.st45{fill:url(#SVGID_31_);stroke:#65002C;stroke-miterlimit:10;}
	.st46{display:inline;fill:url(#SVGID_32_);stroke:#65002C;stroke-miterlimit:10;}
	.st47{display:inline;fill:url(#SVGID_33_);stroke:#65002C;stroke-miterlimit:10;}
	.st48{fill:url(#SVGID_34_);stroke:#65002C;stroke-miterlimit:10;}
	.st49{fill:url(#SVGID_35_);stroke:#65002C;stroke-miterlimit:10;}
	.st50{display:inline;fill:url(#SVGID_36_);stroke:#65002C;stroke-miterlimit:10;}
	.st51{display:inline;fill:url(#SVGID_37_);stroke:#65002C;stroke-miterlimit:10;}
	.st52{display:inline;fill:url(#SVGID_38_);stroke:#65002C;stroke-miterlimit:10;}
	.st53{display:inline;fill:url(#SVGID_39_);stroke:#65002C;stroke-miterlimit:10;}
	.st54{fill:url(#SVGID_40_);stroke:#65002C;stroke-miterlimit:10;}
	.st55{fill:url(#SVGID_41_);stroke:#65002C;stroke-miterlimit:10;}
	.st56{fill:url(#SVGID_42_);stroke:#65002C;stroke-miterlimit:10;}
	.st57{fill:url(#SVGID_43_);stroke:#65002C;stroke-miterlimit:10;}
	.st58{fill:url(#SVGID_44_);stroke:#65002C;stroke-miterlimit:10;}
	.st59{fill:url(#SVGID_45_);stroke:#65002C;stroke-miterlimit:10;}
	.st60{fill:#FFFFFF;}
	.st61{display:inline;fill:#FFFFFF;}
</style>
<g id="Layer_1">
	<g>
		<g class="st3">
			
				<linearGradient id="SVGID_1_" gradientUnits="userSpaceOnUse" x1="115.2335" y1="519.663" x2="360.7534" y2="550.5078" gradientTransform="matrix(1 0 0 -1 0 523.5087)">
				<stop  offset="0" style="stop-color:#E2E6EA"/>
				<stop  offset="0.2832" style="stop-color:#B2BCC7"/>
				<stop  offset="1" style="stop-color:#E2E6EA"/>
			</linearGradient>
			<path class="st4" d="M232,52.7h-1.2c-18.4,0-36.6,1.2-54.2,3.4l-65.7-96.7l123.6-45.7L358-40.6l-66.3,97.4
				C272.3,54.2,252.3,52.7,232,52.7z"/>
			
				<linearGradient id="SVGID_2_" gradientUnits="userSpaceOnUse" x1="107.7759" y1="436.9864" x2="359.8426" y2="436.9864" gradientTransform="matrix(1 0 0 -1 0 523.5087)">
				<stop  offset="0" style="stop-color:#EEF1F3"/>
				<stop  offset="0.1156" style="stop-color:#64768A"/>
				<stop  offset="0.3819" style="stop-color:#C6CED6"/>
				<stop  offset="0.5862" style="stop-color:#485463"/>
				<stop  offset="0.7588" style="stop-color:#E1E5E9"/>
				<stop  offset="0.8894" style="stop-color:#C9D0D8"/>
				<stop  offset="1" style="stop-color:#EBEDF0"/>
			</linearGradient>
			<path class="st5" d="M358,105.6c0,0-5.4-10.3-123.6-10.3c-118.1,0-123.6,10.3-123.6,10.3V93.4c0,0,3.3-26,123.6-26
				c120.2,0,123.6,26,123.6,26V105.6z"/>
			<path class="st6" d="M358,105.6c0,6.4-55.3,10.8-123.6,10.8s-123.6-4.4-123.6-10.8c0-6.4,55.3-14.1,123.6-14.1
				C302.6,91.5,358,99.2,358,105.6z"/>
			<path class="st7" d="M346.7,107c0,4.5-50.3,7.5-112.4,7.5c-62.1,0-112.4-3.1-112.4-7.5c0-4.5,50.3-9.8,112.4-9.8
				C296.4,97.2,346.7,102.5,346.7,107z"/>
			
				<linearGradient id="SVGID_3_" gradientUnits="userSpaceOnUse" x1="107.7759" y1="464.5071" x2="359.8426" y2="464.5071" gradientTransform="matrix(1 0 0 -1 0 523.5087)">
				<stop  offset="0" style="stop-color:#DEE2E7"/>
				<stop  offset="0.1156" style="stop-color:#485463"/>
				<stop  offset="0.3819" style="stop-color:#A5B0BE"/>
				<stop  offset="0.5862" style="stop-color:#36404B"/>
				<stop  offset="0.7588" style="stop-color:#CAD1D9"/>
				<stop  offset="0.8894" style="stop-color:#A8B3C0"/>
				<stop  offset="1" style="stop-color:#D9DEE3"/>
			</linearGradient>
			<path class="st8" d="M358,93.4c0,0-5.4-12.5-123.6-12.5c-118.1,0-123.6,12.5-123.6,12.5V50.3c0,0,2.1-25.7,123.6-25.7
				S358,50.3,358,50.3V93.4z"/>
			
				<linearGradient id="SVGID_4_" gradientUnits="userSpaceOnUse" x1="110.8067" y1="560.9495" x2="356.316" y2="560.9495" gradientTransform="matrix(1 0 0 -1 0 523.5087)">
				<stop  offset="0" style="stop-color:#5D5D5D"/>
				<stop  offset="0.1558" style="stop-color:#000000"/>
				<stop  offset="0.7097" style="stop-color:#000000"/>
				<stop  offset="0.9146" style="stop-color:#000000"/>
				<stop  offset="1" style="stop-color:#858585"/>
			</linearGradient>
			<path class="st9" d="M358,31.4c0,0-5.4-18.2-123.6-18.2c-118.1,0-123.6,18.2-123.6,18.2v-86.3c0,0,9-51.5,123.6-51.5
				c114.5,0,123.6,51.5,123.6,51.5V31.4z"/>
			
				<linearGradient id="SVGID_5_" gradientUnits="userSpaceOnUse" x1="110.8067" y1="552.4534" x2="356.316" y2="552.4534" gradientTransform="matrix(1 0 0 -1 0 523.5087)">
				<stop  offset="0" style="stop-color:#A2A2A2"/>
				<stop  offset="0.1558" style="stop-color:#292929"/>
				<stop  offset="0.2403" style="stop-color:#1C1C1C"/>
				<stop  offset="0.3394" style="stop-color:#121212"/>
				<stop  offset="0.7097" style="stop-color:#212121"/>
				<stop  offset="0.9146" style="stop-color:#474747"/>
				<stop  offset="1" style="stop-color:#BABABA"/>
			</linearGradient>
			<path class="st10" d="M358,39.9c0,0-5.4-18.2-123.6-18.2c-118.1,0-123.6,18.2-123.6,18.2v-94.8c0,0,9-43,123.6-43
				c114.5,0,123.6,43,123.6,43V39.9z"/>
			
				<linearGradient id="SVGID_6_" gradientUnits="userSpaceOnUse" x1="109.7593" y1="495.9368" x2="358.739" y2="495.9368" gradientTransform="matrix(1 0 0 -1 0 523.5087)">
				<stop  offset="0" style="stop-color:#793800"/>
				<stop  offset="0.1708" style="stop-color:#602C00"/>
				<stop  offset="0.4435" style="stop-color:#3D1B00"/>
				<stop  offset="0.5906" style="stop-color:#301500"/>
				<stop  offset="1" style="stop-color:#542500"/>
			</linearGradient>
			<path class="st11" d="M110.8,39.9c0,0,3.7-24.7,120-24.7C347.4,15.2,358,39.9,358,39.9s-61.6-11.6-127.2-11.6
				C165.3,28.4,110.8,39.9,110.8,39.9z"/>
			
				<linearGradient id="SVGID_7_" gradientUnits="userSpaceOnUse" x1="107.7759" y1="487.4925" x2="359.8426" y2="487.4925" gradientTransform="matrix(1 0 0 -1 0 523.5087)">
				<stop  offset="0" style="stop-color:#EEF1F3"/>
				<stop  offset="0.1156" style="stop-color:#64768A"/>
				<stop  offset="0.3819" style="stop-color:#C6CED6"/>
				<stop  offset="0.5862" style="stop-color:#485463"/>
				<stop  offset="0.7588" style="stop-color:#E1E5E9"/>
				<stop  offset="0.8894" style="stop-color:#C9D0D8"/>
				<stop  offset="1" style="stop-color:#EBEDF0"/>
			</linearGradient>
			<path class="st12" d="M234.4,33c-118.1,0-123.6,17.2-123.6,17.2V39.9c0,0,5.4-18.2,123.6-18.2C352.5,21.8,358,39.9,358,39.9v10.3
				C358,50.3,352.5,33,234.4,33z"/>
			<path class="st13" d="M110.8,39.9c0.6-1.2,1.6-2.1,2.7-2.8c1.1-0.8,2.2-1.4,3.4-2c2.3-1.2,4.8-2.1,7.3-3c5-1.6,10.2-2.8,15.4-3.7
				c10.4-1.9,20.9-3,31.4-3.9c21.1-1.6,42.2-2.1,63.4-2c10.6,0,21.2,0.1,31.7,0.4c10.6,0.3,21.1,0.8,31.7,1.6
				c10.5,0.9,21,2,31.4,3.9c5.2,0.9,10.3,2.1,15.4,3.7c2.5,0.8,5,1.8,7.3,3c1.2,0.6,2.3,1.2,3.4,2c1,0.8,2.1,1.6,2.7,2.8
				c-0.5-1.2-1.5-2.2-2.5-3.1c-1-0.9-2.1-1.6-3.3-2.3c-2.3-1.3-4.8-2.4-7.3-3.4c-5-1.9-10.1-3.4-15.3-4.6c-10.4-2.4-21-3.9-31.5-5
				c-21.2-2.2-42.4-2.8-63.7-2.9c-21.2,0.1-42.5,0.7-63.7,2.9c-10.6,1.1-21.1,2.6-31.5,5c-5.2,1.2-10.3,2.7-15.3,4.6
				c-2.5,1-4.9,2.1-7.2,3.4c-1.1,0.7-2.3,1.4-3.3,2.3C112.3,37.7,111.3,38.7,110.8,39.9z"/>
			<path class="st14" d="M110.8,105.6c0-0.7,0.6-1.1,1.1-1.5c0.5-0.4,1.1-0.7,1.7-0.9c1.2-0.5,2.4-0.9,3.7-1.3
				c2.5-0.7,5.1-1.3,7.6-1.7c5.1-1,10.3-1.6,15.5-2.2c10.4-1.2,20.8-2,31.2-2.7c20.9-1.3,41.8-1.9,62.7-1.8
				c20.9,0,41.8,0.6,62.7,1.8c10.4,0.7,20.9,1.5,31.2,2.7c5.2,0.6,10.4,1.3,15.5,2.2c2.6,0.5,5.1,1,7.6,1.7c1.3,0.3,2.5,0.7,3.7,1.3
				c0.6,0.3,1.2,0.5,1.7,0.9c0.5,0.4,1.1,0.8,1.1,1.5c0-0.7-0.5-1.2-1-1.6c-0.5-0.4-1.1-0.8-1.7-1.1c-1.2-0.6-2.4-1.1-3.6-1.5
				c-2.5-0.9-5-1.5-7.6-2.2c-5.1-1.2-10.3-2.2-15.5-3.1c-10.4-1.7-20.8-2.9-31.3-3.8c-20.9-1.9-41.9-2.6-62.9-2.7
				c-21,0-42,0.8-62.9,2.7c-10.5,0.9-20.9,2.1-31.3,3.8c-5.2,0.9-10.3,1.8-15.5,3.1c-2.6,0.6-5.1,1.3-7.6,2.2
				c-1.2,0.4-2.5,0.9-3.6,1.5c-0.6,0.3-1.2,0.6-1.7,1.1C111.3,104.4,110.8,104.9,110.8,105.6z"/>
			<g class="st15">
				<g>
					<path class="st16" d="M110.8,39.9c1-2.5,3.1-4.4,5.2-6c2.1-1.6,4.5-2.9,6.9-4c4.8-2.3,9.9-3.9,15.1-5.2
						c10.3-2.7,21-4.2,31.6-5.4c10.7-1.1,21.4-1.8,32.1-2.1c10.7-0.4,21.5-0.6,32.2-0.5c10.7,0,21.5,0.2,32.2,0.8
						c10.7,0.5,21.4,1.3,32.1,2.5c10.6,1.3,21.2,3,31.6,5.7c5.2,1.4,10.3,3,15.1,5.2c2.4,1.1,4.8,2.3,7.1,3.7c2.2,1.4,4.5,3,6,5.3
						c-1.3-2.4-3.4-4.3-5.5-6c-2.2-1.7-4.5-3.2-6.9-4.5c-4.8-2.7-9.9-4.7-15-6.5c-10.3-3.5-21-5.9-31.8-7.6
						c-21.5-3.5-43.3-4.5-64.9-4.7c-21.7,0-43.4,0.8-65,4c-10.8,1.6-21.5,3.8-31.9,7.2c-5.2,1.8-10.3,3.8-15,6.6
						c-2.4,1.4-4.6,3-6.7,4.8C113.4,35.1,111.5,37.3,110.8,39.9z"/>
				</g>
			</g>
			
				<linearGradient id="SVGID_8_" gradientUnits="userSpaceOnUse" x1="298.4126" y1="459.0328" x2="354.6128" y2="459.0328" gradientTransform="matrix(1 0 0 -1 0 523.5087)">
				<stop  offset="0" style="stop-color:#CAD1D9"/>
				<stop  offset="0.5578" style="stop-color:#B3BDC8"/>
				<stop  offset="1" style="stop-color:#ECEEF1"/>
			</linearGradient>
			<path class="st17" d="M298.4,77.1c0,0,43.7-0.3,56.2,10V54.6c0,0-5-9.7-56.2-12.8V77.1z"/>
			
				<linearGradient id="SVGID_9_" gradientUnits="userSpaceOnUse" x1="112.2687" y1="459.0328" x2="169.3299" y2="459.0328" gradientTransform="matrix(1 0 0 -1 0 523.5087)">
				<stop  offset="0" style="stop-color:#DCE0E6"/>
				<stop  offset="0.4352" style="stop-color:#59697B"/>
				<stop  offset="1" style="stop-color:#6C7F94"/>
			</linearGradient>
			<path class="st18" d="M169.1,77.1c0,0-43.7-0.3-56.2,10V54.6c0,0,5-9.7,56.2-12.8V77.1z"/>
			<g>
				<g class="st15">
					<path class="st19" d="M237.9,452.9c0.3-8.3,0.5-16.5,0.6-24.8c0.2-8.2,0.4-16.5,0.5-24.8c0.3-16.5,0.5-33,0.6-49.5
						c0.1-16.5,0.2-33,0.2-49.5c0.1-16.5,0-33-0.1-49.5l-1.4,3.4c3.2-1.9,5.8-4.7,8.2-8.7c2.3-3.9,4.1-9.2,4.9-14.9
						c0.4-2.9,0.5-5.7,0.4-8.6c0-1.2-0.1-2.8-0.2-4.2c-0.1-1.4-0.2-2.8-0.4-4.2c-0.8-5.5-2.4-10.9-4.9-14.6
						c-2.4-3.7-5.4-5.9-8.5-6.7c-3-0.9-6.1-0.3-9,1.3c-2.9,1.7-5.5,4.6-7.5,8.7c-2,4-3.2,9.2-3.5,14.4c0.7-5.1,2.1-9.8,4.1-13.3
						c2-3.5,4.6-5.9,7.3-7.1c5.3-2.3,11.5-0.2,15.3,6.4c1.9,3.3,3.1,7.6,3.6,12.2c0.1,1.2,0.2,2.4,0.3,3.6c0.1,1.2,0.1,2.3,0.1,3.7
						c0,2.3-0.2,4.7-0.5,6.9c-0.7,4.5-2.1,8.5-4,11.6c-1.9,3.1-4.4,5.5-6.8,6.8l-1.4,0.8l0,2.6c0,16.5-0.1,33-0.1,49.5
						c0,16.5,0.1,33,0.2,49.5c0.1,16.5,0.3,33,0.6,49.5c0.1,8.3,0.3,16.5,0.5,24.8C237.5,436.4,237.7,444.7,237.9,452.9z"/>
				</g>
			</g>
			<g>
				<g class="st15">
					<path class="st20" d="M237.9,452.9l8.7,0.7l0.3,0l0.1-0.5c1.9-10.2,4.6-20,7.3-29.6c2.8-9.6,5.8-18.9,9.1-27.9
						c6.5-18.1,14-35,22.1-50.7c16.3-31.5,35.6-57.6,56.3-79.8c-11.1,8.7-21.7,19.3-31.7,31.9c-10,12.5-19.2,27-27.6,42.9
						c-8.4,16-15.8,33.6-22.1,52.5c-6.2,18.9-11.4,39-14.3,60.4l0.4-0.5L237.9,452.9z"/>
				</g>
			</g>
			
				<linearGradient id="SVGID_10_" gradientUnits="userSpaceOnUse" x1="234.186" y1="42.7464" x2="234.186" y2="110.7115" gradientTransform="matrix(1 0 0 -1 0 523.5087)">
				<stop  offset="0" style="stop-color:#2B2B2B"/>
				<stop  offset="9.849221e-02" style="stop-color:#232323"/>
				<stop  offset="0.3913" style="stop-color:#0F0F0F"/>
				<stop  offset="0.6898" style="stop-color:#040404"/>
				<stop  offset="1" style="stop-color:#000000"/>
			</linearGradient>
			<path class="st21" d="M250.4,461.7c0-6.9-3.5-12.9-8.6-16c-2.3-1.4-4.9-32.4-7.6-32.4c-2,0-4,30.7-5.7,31.4
				c-6.1,2.6-10.4,9.2-10.4,17c0,10,7.2,18.1,16.2,18.1C243.1,479.8,250.4,471.7,250.4,461.7z"/>
			
				<linearGradient id="SVGID_11_" gradientUnits="userSpaceOnUse" x1="234.3711" y1="45.7118" x2="234.3711" y2="66.1319" gradientTransform="matrix(1 0 0 -1 0 523.5087)">
				<stop  offset="0" style="stop-color:#A1A1A1"/>
				<stop  offset="4.016727e-02" style="stop-color:#989898"/>
				<stop  offset="0.2437" style="stop-color:#717171"/>
				<stop  offset="0.4449" style="stop-color:#535353"/>
				<stop  offset="0.6408" style="stop-color:#3D3D3D"/>
				<stop  offset="0.8287" style="stop-color:#2F2F2F"/>
				<stop  offset="1" style="stop-color:#2B2B2B"/>
			</linearGradient>
			<path class="st22" d="M245.3,467.2c0-5.3-4.9-9.6-10.9-9.6c-6,0-10.9,4.3-10.9,9.6c0,5.3,4.9,9.6,10.9,9.6
				C240.4,476.9,245.3,472.5,245.3,467.2z"/>
			
				<linearGradient id="SVGID_12_" gradientUnits="userSpaceOnUse" x1="234.3701" y1="45.507" x2="234.3701" y2="51.9784" gradientTransform="matrix(1 0 0 -1 0 523.5087)">
				<stop  offset="0" style="stop-color:#EDEDED"/>
				<stop  offset="0.1617" style="stop-color:#D2D2D2"/>
				<stop  offset="0.3651" style="stop-color:#B7B7B7"/>
				<stop  offset="0.5718" style="stop-color:#A3A3A3"/>
				<stop  offset="0.7818" style="stop-color:#989898"/>
				<stop  offset="1" style="stop-color:#949494"/>
			</linearGradient>
			<path class="st23" d="M224.6,471.5c0,0,8.1,14.6,19.6,0C244.2,471.5,234.9,475.9,224.6,471.5z"/>
			
				<linearGradient id="SVGID_13_" gradientUnits="userSpaceOnUse" x1="123.596" y1="254.477" x2="340.3764" y2="254.477" gradientTransform="matrix(1 0 0 -1 0 523.5087)">
				<stop  offset="0" style="stop-color:#FFFAE8"/>
				<stop  offset="5.935781e-03" style="stop-color:#FFF9E1"/>
				<stop  offset="3.807830e-02" style="stop-color:#FFF2BE"/>
				<stop  offset="7.074361e-02" style="stop-color:#FFEDA3"/>
				<stop  offset="0.1037" style="stop-color:#FFE98F"/>
				<stop  offset="0.1372" style="stop-color:#FFE784"/>
				<stop  offset="0.172" style="stop-color:#FFE680"/>
				<stop  offset="0.3495" style="stop-color:#FFF7DB"/>
				<stop  offset="0.4299" style="stop-color:#FFE27B"/>
				<stop  offset="0.5425" style="stop-color:#FFDC3D"/>
				<stop  offset="0.7044" style="stop-color:#D1922C"/>
				<stop  offset="0.8333" style="stop-color:#FFDB2C"/>
				<stop  offset="0.8573" style="stop-color:#FFE153"/>
				<stop  offset="0.8918" style="stop-color:#FFE984"/>
				<stop  offset="0.9245" style="stop-color:#FFF0AB"/>
				<stop  offset="0.9543" style="stop-color:#FFF4C7"/>
				<stop  offset="0.9805" style="stop-color:#FFF7D8"/>
				<stop  offset="1" style="stop-color:#FFF8DE"/>
			</linearGradient>
			<path class="st24" d="M216.4,407.4c0,0-18.1-96.6-81.5-144.6c0,0,15-56.5,17.8-102.4l63.6-29.7V407.4z"/>
			<g>
				<g class="st15">
					<path class="st20" d="M126.8,265.1c5.3,5.3,10.4,11,15.3,17.1c5,6.1,9.8,12.5,14.5,19.1c9.4,13.4,18.2,27.9,26.4,43.7
						c8.1,15.7,15.5,32.7,22,50.8c6.5,18.1,12.1,37.3,16.7,57.4l0.1,0.5l0.3,0l8.7-0.7l-8.7-0.7l0.4,0.5c-3.4-21-8.3-41.2-14.5-60.2
						c-6.2-18.9-13.6-36.5-22-52.5c-8.3-16-17.6-30.5-27.5-43.1C148.6,284.2,138.1,273.1,126.8,265.1z"/>
				</g>
			</g>
			<g class="st15">
				<g>
					<path class="st25" d="M230.8,452.9c1.3-33,1.8-66,2-99c0.1-33-0.1-66-0.8-99l0-1.5l-0.8-0.5c-3.1-1.9-6.2-5.3-8.4-9.9
						c-2.3-4.5-3.6-10.5-3.7-16.8c-0.1-6.2,0.9-12.6,3-17.6c2.1-5.1,5.3-8.5,8.8-10.2c-3.5,1.2-7,4.2-9.3,9.3
						c-2.4,5.1-3.7,11.8-3.7,18.5c-0.1,6.7,1.2,13.6,3.6,18.9c2.4,5.4,5.5,9.2,9.2,11.7l-0.8-2c-0.8,33-1,66-0.8,99
						C229,386.9,229.5,419.9,230.8,452.9z"/>
				</g>
			</g>
			
				<linearGradient id="SVGID_14_" gradientUnits="userSpaceOnUse" x1="127.7808" y1="254.477" x2="341.2664" y2="254.477" gradientTransform="matrix(1 0 0 -1 0 523.5087)">
				<stop  offset="0" style="stop-color:#FFF2C2"/>
				<stop  offset="1.177104e-02" style="stop-color:#FFEFB3"/>
				<stop  offset="4.277877e-02" style="stop-color:#FFE790"/>
				<stop  offset="7.429692e-02" style="stop-color:#FFE175"/>
				<stop  offset="0.1061" style="stop-color:#FFDC61"/>
				<stop  offset="0.1385" style="stop-color:#FFDA56"/>
				<stop  offset="0.172" style="stop-color:#FFD952"/>
				<stop  offset="0.3495" style="stop-color:#FFF5D1"/>
				<stop  offset="0.5746" style="stop-color:#F2B707"/>
				<stop  offset="0.7044" style="stop-color:#CF842E"/>
				<stop  offset="0.8333" style="stop-color:#FFD747"/>
				<stop  offset="0.8355" style="stop-color:#FFD84A"/>
				<stop  offset="0.8753" style="stop-color:#FFE27B"/>
				<stop  offset="0.9129" style="stop-color:#FFEBA2"/>
				<stop  offset="0.9473" style="stop-color:#FFF1BE"/>
				<stop  offset="0.9775" style="stop-color:#FFF5CF"/>
				<stop  offset="1" style="stop-color:#FFF6D5"/>
			</linearGradient>
			<path class="st26" d="M250.4,407.4c0,0,18.1-96.6,81.5-144.6c0,0-15-56.5-17.8-102.4l-63.6-29.7V407.4z"/>
			<path class="st27" d="M248.5,452.9h-1.8h-8.7c7.1-2.9,12.4-206.5,12.4-220.3c0-16-7.2-28.9-16-28.9c-8.8,0-16,13-16,28.9
				c0,13.8,5.3,217.3,12.4,220.3h-8.7h-1.6c0,0-16.8-99.3-93.6-181.9v-5.9c30-55.4,37.5-149.7,37.5-149.7s15.7-17.1,70-17.1
				c54.3,0,60.9,17.1,60.9,17.1s11,98.7,46.7,149.7v5.9C261,364.4,248.5,452.9,248.5,452.9z"/>
			
				<linearGradient id="SVGID_15_" gradientUnits="userSpaceOnUse" x1="237.0791" y1="68.3233" x2="237.0791" y2="332.8389" gradientTransform="matrix(1 0 0 -1 0 523.5087)">
				<stop  offset="0" style="stop-color:#525252"/>
				<stop  offset="5.180150e-02" style="stop-color:#4B4B4B"/>
				<stop  offset="0.2819" style="stop-color:#303030"/>
				<stop  offset="0.5157" style="stop-color:#1C1C1C"/>
				<stop  offset="0.7532" style="stop-color:#111111"/>
				<stop  offset="1" style="stop-color:#0D0D0D"/>
			</linearGradient>
			<polygon class="st28" points="230.8,452.9 237.9,452.9 247.9,387.3 261,188.4 213.2,188.4 220.2,387.3 			"/>
		</g>
		<g>
			<g>
				<path class="st0" d="M211,450.4c-1.6-7.1-7.7-32-23.6-64c-16.9-34.1-48.5-82.7-103.2-122.1c30.9-59.8,34.7-146.5,35.2-160.6
					c8.1-1.8,43.4-8.8,106.1-8.8c62.8,0,98,7,106.1,8.8c0.4,14.1,4.2,100.9,35.2,160.6c-50.2,36.7-97,112.3-103.5,123l-24.5-0.4
					l-0.5-135.4c10.7-4,16.2-12.5,16.2-25.5c0-17.2-15.2-30-28.8-30c-13.5,0-29.2,13.3-29.2,30.3c0,12.4,6.8,22.1,18.3,26.3
					l-0.7,197.8H211z"/>
				<path class="st29" d="M225.5,97.3c58.5,0,92.9,6.1,103.7,8.4c0.3,8.3,1.3,28.6,4.9,54c4.1,29.1,12.6,70.3,29.5,103.9
					c-22.1,16.5-45.9,41.9-70.8,75.5c-15.6,21.1-27,39.3-30.9,45.7l-20.6-0.4l-0.5-131.3c8-3.5,16.2-11,16.2-27.1
					c0-18.6-16.5-32.5-31.3-32.5c-7.2,0-15.2,3.5-21.2,9.3c-6.7,6.4-10.4,14.8-10.4,23.5c0,12.9,6.8,23.1,18.3,28l-0.6,188.4
					c-3-11.4-9.5-32.2-22.1-57.4c-16.9-33.9-48.2-82.3-102.2-121.8c16.9-33.6,25.4-74.8,29.5-103.9c3.6-25.4,4.6-45.7,4.9-54
					C132.5,103.4,167,97.3,225.5,97.3 M225.5,92.3c-73,0-108.6,9.3-108.6,9.3S115.7,200,81,265.1c107.2,76.1,128,187.9,128,187.9
					h7.7l0.7-202.1c-9.6-2.9-18.3-10.7-18.3-24.5c0-16,14.8-27.8,26.7-27.8c11.9,0,26.3,11.5,26.3,27.5c0,13.8-6.6,20.7-16.2,23.7
					l0.5,139.7l28.4,0.5c0,0,50.6-85.9,105.3-124.8c-34.7-65.1-35.9-163.4-35.9-163.4S298.5,92.3,225.5,92.3L225.5,92.3z"/>
			</g>
			<path class="st1" d="M342.4,179.7c-26.3-19.3-64.2-36-117.2-36c-53,0-90.8,17-116.8,36.5c8-42.7,8.5-78.6,8.5-78.6
				c0.1,0,0.1,0,0.2-0.1c17.7-5.2,35.7-8.4,53.8-10.5c18.1-2.2,36.4-3.1,54.6-3.1c18.2,0.1,36.4,1.1,54.6,3.3
				c18.1,2.1,36,5.5,53.8,10.3c0.1,0,0.1,0,0.2,0.1C334.1,101.7,334.5,137.2,342.4,179.7z"/>
		</g>
	</g>
	<g>
		<path class="st1" d="M432.8,283.1v-97.4c0-7.7-0.4-14.3-1.3-19.6c-0.9-5.3-2.4-10.6-4.6-15.8h28h29.9c20.3,0,36,4.5,47.1,13.5
			c11,9,16.5,21.9,16.5,38.6c0,16-6.1,28.6-18.3,38c-12.2,9.3-28.7,14-49.5,14h-3.4v28.7c0,7.7,0.4,14.3,1.3,19.6
			c0.9,5.3,2.4,10.6,4.6,15.8h-28h-28.1c2.1-5.2,3.7-10.5,4.6-15.8C432.4,297.4,432.8,290.9,432.8,283.1z M477.2,224.9h1.5
			c7.8,0,14.2-2.2,19.2-6.7c5-4.4,7.5-10.2,7.5-17.2c0-6.2-2.3-11.3-7-15.3c-4.7-3.9-10.6-5.9-17.9-5.9h-3.2V224.9z"/>
		<path class="st1" d="M624.2,320.9c-19.8,0-35.5-5.4-46.9-16.2c-11.5-10.8-17.2-25.6-17.2-44.5c0-17.9,5.1-32.5,15.3-43.9
			c10.2-11.3,23.2-17,39.2-17h-0.3c15.4,0,27.4,4.8,36.1,14.5c8.7,9.7,13,23.1,13,40.3c0,4.7-0.4,9.1-1.3,13.3h-61.5
			c1.4,6.1,3.8,11.2,7,15.5c5.8,7.4,14.2,11.2,25.3,11.2c5.1,0,10.4-0.9,15.8-2.6c5.4-1.7,10.3-4.1,14.6-7.2l-14.2,34.1
			c-6.6,1-11.5,1.7-14.6,2C631.4,320.8,627.9,320.9,624.2,320.9z M628.4,244.8l-0.1-4c0-5.6-1.2-9.9-3.7-12.9c-2.5-3-6-4.5-10.5-4.5
			c-5,0-8.8,2.3-11.5,6.9c-2,3.4-3.2,8.3-3.6,14.5H628.4z"/>
		<path class="st1" d="M679.8,283.1v-46c0-8-0.4-14.7-1.2-20c-0.8-5.3-2.3-10.4-4.4-15.4h23h23v22.3l21.5-23.2
			c2.8-1.1,6-1.6,9.7-1.6c11.2,0,19.9,3,25.9,9s9,14.6,9,25.9v48.9c0,8,0.4,14.7,1.2,20c0.8,5.3,2.3,10.4,4.4,15.4H766h-25.8
			c2.1-4.9,3.5-10.1,4.4-15.4c0.8-5.3,1.2-12,1.2-20v-35.6c0-5.5-1.1-9.8-3.4-12.7c-2.3-3-5.5-4.5-9.8-4.5c-4.7,0-8.9,1.2-12.5,3.7
			v49.1c0,8,0.4,14.7,1.2,20c0.8,5.3,2.3,10.4,4.4,15.4H700h-25.8c2.1-4.9,3.5-10.1,4.4-15.4C679.4,297.8,679.8,291.1,679.8,283.1z"
			/>
		<path class="st1" d="M867.5,320.9c-19.8,0-35.5-5.4-46.9-16.2c-11.5-10.8-17.2-25.6-17.2-44.5c0-17.9,5.1-32.5,15.3-43.9
			c10.2-11.3,23.2-17,39.2-17h-0.3c15.4,0,27.4,4.8,36.1,14.5c8.7,9.7,13,23.1,13,40.3c0,4.7-0.4,9.1-1.3,13.3h-61.5
			c1.4,6.1,3.8,11.2,7,15.5c5.8,7.4,14.2,11.2,25.3,11.2c5.1,0,10.4-0.9,15.8-2.6c5.4-1.7,10.3-4.1,14.6-7.2l-14.2,34.1
			c-6.6,1-11.5,1.7-14.6,2C874.7,320.8,871.3,320.9,867.5,320.9z M871.7,244.8l-0.1-4c0-5.6-1.2-9.9-3.7-12.9c-2.5-3-6-4.5-10.5-4.5
			c-5,0-8.8,2.3-11.5,6.9c-2,3.4-3.2,8.3-3.6,14.5H871.7z"/>
		<path class="st1" d="M923.2,283.1v-90.7c0-8-0.4-14.7-1.2-20c-0.8-5.3-2.3-10.4-4.4-15.4l26.3-2.9l26.3-3
			c-2.4,4.9-4.2,11-5.2,18.4c-1,7.4-1.5,17.8-1.5,31.1v22.5l21.4-22.3c3.4-1.1,6.7-1.6,9.7-1.5c11.3,0,20,3,26,9c6,6,9,14.7,9,26
			v48.8c0,8,0.4,14.7,1.2,20c0.8,5.3,2.3,10.4,4.4,15.4h-25.8h-25.8c2.1-4.9,3.5-10.1,4.4-15.4c0.8-5.3,1.2-12,1.2-20v-36.2
			c0-5.4-1-9.5-2.8-12.3c-1.9-2.8-4.6-4.2-8.2-4.2c-5.7,0.1-10.5,1.8-14.6,5.3v47.5c0,8,0.4,14.7,1.2,20c0.8,5.3,2.3,10.4,4.4,15.4
			h-25.8h-25.8c2.1-4.9,3.5-10.1,4.4-15.4C922.8,297.8,923.2,291.1,923.2,283.1z"/>
	</g>
	<g>
		<path class="st0" d="M428.9,393.4c-4.2,0-7.7-1.4-10.5-4.2c-2.8-2.8-4.2-6.3-4.2-10.5c0-4.6,1.5-8.4,4.6-11.5s7-4.6,11.6-4.6
			c1.4,0,2.7,0.1,3.7,0.3c1,0.2,2.3,0.5,3.9,1.1v4.9c-1.5-1-2.9-1.7-4.1-2.1s-2.7-0.6-4.4-0.6c-3,0-5.4,1.1-7.4,3.3
			c-2,2.2-2.9,4.9-2.9,8.3c0,3.4,0.9,6.3,2.7,8.6c1.8,2.3,4.1,3.4,6.9,3.4h0c2.2,0,4.3-0.3,6.2-1v-2.1c0-1.9-0.1-3.4-0.2-4.7
			c-0.2-1.3-0.4-2.6-0.8-3.9h3.3h3.3c-0.4,1.3-0.7,2.6-0.8,3.9c-0.2,1.3-0.2,2.8-0.2,4.8v0.6c0,1,0,1.7,0.1,2.4s0.2,1.3,0.4,1.9
			C436.7,392.8,433,393.4,428.9,393.4L428.9,393.4z"/>
		<path class="st0" d="M445.6,386.9v-8.6c0-1.1-0.1-2.1-0.2-3c-0.1-0.9-0.4-1.9-0.7-3h2.5h2.5v3.7l3.2-3.6c1-0.3,1.9-0.5,2.7-0.5
			c0.7,0,1.3,0.1,1.8,0.4l-0.8,4.5l-0.2-0.1c-0.8-0.6-1.7-0.9-2.8-0.9c-0.8,0-1.8,0.3-3.1,0.9l-0.9,0.4v9.9c0,1.6,0.1,2.9,0.2,3.7
			c0.1,0.9,0.4,1.7,0.7,2.3h-3h-3c0.3-0.6,0.6-1.4,0.7-2.3C445.5,389.8,445.6,388.5,445.6,386.9z"/>
		<path class="st0" d="M464.6,393.4c-2,0-3.6-0.4-4.7-1.3s-1.6-2.1-1.6-3.7c0-1.1,0.4-2.1,1.2-3c0.8-0.9,1.8-1.7,3.1-2.2l6.1-2.5
			v-1.9c0-1.1-0.3-2-1-2.7c-0.7-0.7-1.6-1-2.8-1c-0.8,0-1.5,0.1-2.2,0.4c-0.7,0.3-1.5,0.7-2.3,1.3l1.1-4c0.8-0.3,1.6-0.6,2.4-0.8
			c0.8-0.2,1.5-0.2,2.3-0.2c2.2,0,3.9,0.6,5,1.8c1.1,1.2,1.7,2.9,1.7,5.2v8.1c0,1.7,0.1,3,0.2,3.9c0.1,0.9,0.3,1.6,0.6,2.1h-2.4
			h-2.4v-2l-3.2,2.4L464.6,393.4z M468.7,389.8v-5.7h-5.3c-0.1,0-0.3,0.4-0.5,1.2c-0.2,0.8-0.3,1.4-0.3,1.9c0,1,0.3,1.7,1,2.2
			c0.6,0.5,1.6,0.7,2.9,0.7C467.2,390.1,467.9,390,468.7,389.8L468.7,389.8z"/>
		<path class="st0" d="M478,378.3c0-1.1-0.1-2.1-0.2-3s-0.4-1.9-0.7-3h2.5h2.5v3.6l2.8-3.3l0.5-0.3c0.7-0.3,1.4-0.5,2.4-0.5
			c2.2,0,4,1,5.3,3.1s2,4.7,2,8c0,3.4-0.6,6-1.9,7.8c-1.3,1.8-3.1,2.8-5.5,2.8c-2.1,0-4-0.7-5.6-2.1v2.1c0,1.1,0.1,2.1,0.2,3
			c0.1,0.9,0.4,1.9,0.7,3.1h-3h-3c0.3-1.1,0.6-2.1,0.7-3s0.2-1.9,0.2-3V378.3z M485.6,390.1c1.7,0,3-0.6,3.9-1.9
			c0.9-1.2,1.4-3,1.4-5.3c0-2.2-0.4-4-1.3-5.3c-0.9-1.3-2.1-2-3.6-2c-0.8,0-1.6,0.2-2.6,0.6c-0.4,0.2-0.8,0.4-1.3,0.6v11.4
			C483.1,389.5,484.2,390.1,485.6,390.1z"/>
		<path class="st0" d="M499.3,386.9v-16.4c0-1.3-0.1-2.5-0.2-3.4c-0.1-0.9-0.4-1.8-0.7-2.7l3-0.6l3-0.6c-0.3,0.9-0.6,2-0.7,3.1
			c-0.1,1.2-0.2,2.7-0.2,4.7v4.7l3.1-3.6c1.1-0.3,2-0.4,2.7-0.4c1.9,0,3.3,0.6,4.3,1.8c1,1.2,1.5,2.9,1.5,5.1v8.2
			c0,1.7,0.1,3,0.2,3.9c0.1,0.9,0.3,1.6,0.6,2.1h-2.9H510c0.3-0.6,0.6-1.4,0.7-2.3s0.2-2.1,0.2-3.8v-7.6c0-1.2-0.3-2.1-0.8-2.7
			c-0.6-0.6-1.4-0.9-2.6-0.9c-0.8,0-1.8,0.3-3.1,0.9l-0.9,0.4v9.9c0,1.6,0.1,2.9,0.2,3.7c0.1,0.9,0.4,1.7,0.7,2.3h-3h-3
			c0.3-0.6,0.6-1.4,0.7-2.3C499.2,389.8,499.3,388.5,499.3,386.9z"/>
		<path class="st0" d="M520.3,386.9v-8.6c0-1.1-0.1-2.1-0.2-3s-0.4-1.9-0.7-3h3h3c-0.3,0.7-0.6,1.4-0.7,2.3
			c-0.1,0.9-0.2,2.1-0.2,3.7v8.6c0,1.6,0.1,2.9,0.2,3.7c0.1,0.9,0.4,1.7,0.7,2.3h-3h-3c0.3-0.6,0.6-1.4,0.7-2.3
			S520.3,388.5,520.3,386.9z M522.2,363.6c0.8,0,1.4,0.3,2,0.9c0.5,0.6,0.8,1.4,0.8,2.3s-0.3,1.7-0.8,2.3c-0.5,0.6-1.2,0.9-2,0.9
			s-1.4-0.3-2-0.9c-0.5-0.6-0.8-1.4-0.8-2.3s0.3-1.7,0.8-2.3S521.4,363.6,522.2,363.6z"/>
		<path class="st0" d="M542.1,392.8c-0.9,0.2-1.7,0.4-2.3,0.5c-0.6,0.1-1.3,0.1-2,0.1c-2.7,0-5-1-6.8-2.9c-1.8-1.9-2.7-4.4-2.7-7.3
			c0-3.3,1-6,3-8.2c2-2.2,4.5-3.3,7.6-3.3c0.8,0,1.5,0,2.1,0.1c0.6,0.1,1.4,0.2,2.5,0.4l-0.2,4.8c-0.8-0.8-1.5-1.4-2.3-1.8
			c-0.8-0.4-1.6-0.6-2.5-0.6c-1.8,0-3.3,0.7-4.3,2.1c-1.1,1.4-1.6,3.2-1.6,5.6c0,2.4,0.6,4.3,1.7,5.7c1.1,1.4,2.7,2.1,4.6,2.1
			c0.7,0,1.3-0.1,2.1-0.3c0.7-0.2,1.7-0.5,2.9-1L542.1,392.8z"/>
		<path class="st0" d="M560.8,384.3v-12.5c0-1.9-0.1-3.4-0.2-4.7s-0.4-2.6-0.8-3.9h3.3h1.8c5.4,0,9.7,1.4,12.9,4.1
			c3.2,2.7,4.8,6.4,4.8,11.1c0,4.5-1.5,8.1-4.4,10.7c-3,2.6-6.9,4-12,4h-3h-3.3c0.4-1.3,0.6-2.6,0.8-3.9S560.8,386.2,560.8,384.3z
			 M565.3,389.7c3.7,0,6.7-1,9-3c2.3-2,3.4-4.6,3.4-7.9c0-3.7-1.1-6.7-3.2-9c-2.1-2.3-5-3.4-8.5-3.4h-0.6V389.7z"/>
		<path class="st0" d="M595.6,393.4c-2.9,0-5.2-1-7-2.9c-1.8-1.9-2.7-4.4-2.7-7.4c0-3.3,0.8-6,2.4-8.1c1.6-2.2,3.6-3.2,6-3.2h0
			c2.4,0,4.2,0.8,5.5,2.5c1.3,1.6,1.9,4,1.9,7v1.9h-11.5c0.2,1.9,0.7,3.4,1.6,4.7c1.1,1.6,2.7,2.4,4.6,2.4c0.9,0,1.7-0.1,2.6-0.3
			s1.6-0.6,2.3-1l-1.6,4c-0.9,0.2-1.6,0.4-2.2,0.5C597,393.4,596.4,393.4,595.6,393.4z M598.3,380.2c0-1.8-0.3-3.2-1-4.1
			s-1.6-1.4-2.9-1.4h0c-1.4,0-2.4,0.6-3.2,1.8c-0.6,0.9-1,2.2-1.1,3.8H598.3z"/>
		<path class="st0" d="M615.4,376.7c-0.6-0.7-1.2-1.2-1.8-1.5c-0.6-0.3-1.3-0.5-2-0.5c-0.8,0-1.5,0.2-2.1,0.6
			c-0.5,0.4-0.8,1-0.8,1.6c0,0.6,0.2,1.2,0.6,1.7c0.4,0.5,1,1.1,2,1.9c1.7,1.3,2.9,2.5,3.6,3.4c0.7,1,1,2,1,3.2
			c0,1.8-0.6,3.3-1.9,4.4c-1.2,1.2-2.8,1.8-4.7,1.8c-1,0-1.9-0.1-2.6-0.2c-0.7-0.1-1.6-0.4-2.7-0.7v-4.9c0.8,1,1.6,1.7,2.4,2.2
			s1.6,0.7,2.5,0.7c0.8,0,1.5-0.2,2-0.7c0.5-0.5,0.8-1.1,0.8-1.8c0-0.6-0.2-1.1-0.6-1.7c-0.4-0.5-1.2-1.3-2.4-2.2
			c-1.5-1.2-2.6-2.2-3.2-3.2c-0.6-0.9-0.9-2-0.9-3.1c0-1.7,0.7-3.1,2-4.2c1.4-1.1,3-1.7,5.1-1.7c0.7,0,1.4,0.1,1.9,0.2
			c0.5,0.1,1.2,0.4,1.9,0.7V376.7z"/>
		<path class="st0" d="M619.5,386.9v-8.6c0-1.1-0.1-2.1-0.2-3s-0.4-1.9-0.7-3h3h3c-0.3,0.7-0.6,1.4-0.7,2.3
			c-0.1,0.9-0.2,2.1-0.2,3.7v8.6c0,1.6,0.1,2.9,0.2,3.7c0.1,0.9,0.4,1.7,0.7,2.3h-3h-3c0.3-0.6,0.6-1.4,0.7-2.3
			S619.5,388.5,619.5,386.9z M621.5,363.6c0.8,0,1.4,0.3,2,0.9c0.5,0.6,0.8,1.4,0.8,2.3s-0.3,1.7-0.8,2.3c-0.5,0.6-1.2,0.9-2,0.9
			s-1.4-0.3-2-0.9c-0.5-0.6-0.8-1.4-0.8-2.3s0.3-1.7,0.8-2.3S620.7,363.6,621.5,363.6z"/>
		<path class="st0" d="M632.4,387.4c0,0.4,0.2,0.7,0.6,0.9c0.4,0.2,1,0.4,1.6,0.4h4.5c1.8,0,3.1,0.4,3.9,1.1s1.2,1.9,1.2,3.5
			c0,1.8-0.9,3.3-2.6,4.5c-1.7,1.2-3.8,1.8-6.3,1.8c-2.5,0-4.4-0.3-5.7-0.8c-1.3-0.5-1.9-1.3-1.9-2.3c0-0.5,0.3-1.1,0.8-1.7
			c0.5-0.6,1.5-1.6,3-3c-1.1-0.1-1.9-0.3-2.5-0.5c-0.9-0.4-1.3-0.9-1.3-1.7c0-0.6,0.2-1.1,0.7-1.5c0.5-0.4,1.7-1.3,3.6-2.7
			c-0.7-0.3-1.4-0.8-2.1-1.3c-1.4-1.3-2.1-2.9-2.1-4.8c0-2.2,0.7-4,2.1-5.5c1.4-1.5,3.1-2.2,5.2-2.2c1.6,0,3,0.4,4.2,1.2h2.1
			c0.8,0,1.6,0,2.4-0.1c0.8-0.1,1.4-0.2,1.7-0.3l-0.4,3.3l-3.4,0c0.4,0.9,0.6,2,0.6,3.2c0,2-0.7,3.7-2.1,5c-1.4,1.3-3.1,2-5.2,2
			c-0.5,0-1,0-1.5-0.1c-0.3,0.2-0.6,0.4-0.9,0.6C632.5,386.9,632.4,387.2,632.4,387.4z M634.9,374.7c-1,0-1.7,0.3-2.3,1
			c-0.6,0.7-0.9,1.6-0.9,2.8c0,1.3,0.4,2.4,1.1,3.4c0.7,0.9,1.6,1.4,2.6,1.4h0c1,0,1.8-0.3,2.4-1c0.6-0.7,0.9-1.6,0.9-2.8
			c0-1.3-0.4-2.5-1.1-3.4C636.9,375.1,636,374.7,634.9,374.7L634.9,374.7z M632,394.1c0,0.7,0.3,1.3,0.9,1.7
			c0.6,0.4,1.6,0.5,2.9,0.5c1.4,0,2.5-0.2,3.2-0.6c0.7-0.4,1-0.9,1-1.7c0-0.6-0.2-1.1-0.7-1.5c-0.5-0.4-1.2-0.6-2-0.6h-4.1
			c-0.4,0.2-0.7,0.6-0.9,1C632.1,393.3,632,393.7,632,394.1z"/>
		<path class="st0" d="M647.6,386.9v-8.6c0-1.1-0.1-2.1-0.2-3s-0.4-1.9-0.7-3h2.5h2.5v3.6l3.1-3.6c1.1-0.3,2-0.4,2.7-0.4
			c1.9,0,3.3,0.6,4.3,1.8c1,1.2,1.5,2.9,1.5,5.1v8.2c0,1.7,0.1,3,0.2,3.9c0.1,0.9,0.3,1.6,0.6,2.1h-2.9h-2.9
			c0.3-0.6,0.6-1.4,0.7-2.3s0.2-2.1,0.2-3.8v-7.6c0-1.2-0.3-2.1-0.8-2.7c-0.6-0.6-1.4-0.9-2.6-0.9c-0.8,0-1.8,0.3-3.1,0.9l-0.9,0.4
			v9.9c0,1.6,0.1,2.9,0.2,3.7c0.1,0.9,0.4,1.7,0.7,2.3h-3h-3c0.3-0.6,0.6-1.4,0.7-2.3S647.6,388.5,647.6,386.9z"/>
		<path class="st0" d="M681.7,374.1c0-1.7,0.6-3.2,1.9-4.3c1.2-1.1,2.8-1.7,4.7-1.7s3.4,0.5,4.6,1.6s1.8,2.4,1.8,4
			c0,1.4-0.4,2.5-1.1,3.5c-0.4,0.5-0.9,1-1.5,1.4l1.2,0.6c1.3,0.7,2.5,1.4,3.3,2l2.8,2c0.5-1.3,0.9-3.1,1.2-5.2
			c0.3-2,0.4-4.1,0.4-6.2c-0.7,0-1.4,0.1-2.2,0.2c-0.9,0.1-1.5,0.3-2.1,0.5v-4h4.5h4.2h4.5v4c-0.5-0.2-1.2-0.4-2.1-0.5
			c-0.9-0.1-1.7-0.2-2.4-0.2h-0.7c0.1,1.9-0.1,3.9-0.4,6c-0.4,2.9-1.1,5.4-2.1,7.6l2.3,1.8c1,0.8,2.2,1.5,3.4,2.2
			c1.3,0.7,2.3,1.1,3.2,1.4l-4,2.3c-0.7-0.2-1.5-0.5-2.4-1c-0.9-0.5-1.7-1-2.4-1.5l-2.3-1.8c-0.9,1-2,1.8-3.3,2.6
			c-2.3,1.3-4.7,2-7.1,2c-2.9,0-5.3-0.7-7.3-2.2c-1.9-1.5-2.9-3.4-2.9-5.6c0-1.9,0.6-3.5,1.9-4.9c0.7-0.8,1.7-1.5,2.8-2.1l-0.6-0.5
			C682.4,377,681.7,375.7,681.7,374.1z M690,389.8c1.6,0,3.2-0.5,4.9-1.5c0.9-0.5,1.6-1.1,2.3-1.8l-3.2-2.4
			c-0.7-0.5-1.6-1.1-2.8-1.6c-1.3-0.6-2.5-1.2-3.6-1.8c-0.9,0.4-1.6,0.9-2.2,1.4c-1.1,1-1.7,2.2-1.7,3.6c0,1.2,0.6,2.1,1.8,2.9
			C686.8,389.4,688.2,389.8,690,389.8z M685.5,374c0,0.8,0.3,1.4,0.8,1.9s1.2,0.8,2,0.8c0.9,0,1.6-0.2,2.1-0.7
			c0.5-0.5,0.7-1.2,0.7-2.1c0-0.7-0.3-1.2-0.8-1.7c-0.5-0.5-1.2-0.7-2-0.7s-1.4,0.2-2,0.7C685.8,372.6,685.5,373.2,685.5,374z"/>
		<path class="st0" d="M733.1,392.9l-5.6-21.2c-0.7-2.5-1.2-4.3-1.7-5.6c-0.5-1.3-1-2.3-1.5-3h3.6h3.7c-0.3,0.7-0.5,1.8-0.5,3
			c0,1.3,0.2,2.6,0.5,3.9l3.6,14.5h0l7.2-22h0l7.1,21.9h0l3.6-14.4c0.3-1.2,0.5-2.5,0.5-3.8c0-1.3-0.1-2.4-0.5-3.1h3.7h3.7
			c-0.5,0.7-1,1.7-1.5,3c-0.5,1.3-1,3.1-1.7,5.6l-5.7,21.2h-3.6l-5.8-17.1h0l-5.6,17.1H733.1z"/>
		<path class="st0" d="M771.8,393.4c-2.9,0-5.2-1-7-2.9c-1.8-1.9-2.7-4.4-2.7-7.4c0-3.3,0.8-6,2.4-8.1c1.6-2.2,3.6-3.2,6-3.2h0
			c2.4,0,4.2,0.8,5.5,2.5c1.3,1.6,1.9,4,1.9,7v1.9h-11.5c0.2,1.9,0.7,3.4,1.6,4.7c1.1,1.6,2.7,2.4,4.6,2.4c0.9,0,1.7-0.1,2.6-0.3
			s1.6-0.6,2.3-1l-1.6,4c-0.9,0.2-1.6,0.4-2.2,0.5C773.2,393.4,772.6,393.4,771.8,393.4z M774.5,380.2c0-1.8-0.3-3.2-1-4.1
			s-1.6-1.4-2.9-1.4h0c-1.4,0-2.4,0.6-3.2,1.8c-0.6,0.9-1,2.2-1.1,3.8H774.5z"/>
		<path class="st0" d="M781.8,370.5c0-1.3-0.1-2.5-0.2-3.4s-0.4-1.8-0.7-2.7l3-0.6l3-0.6c-0.3,0.7-0.6,1.4-0.7,2.2
			c-0.1,0.8-0.2,1.9-0.2,3.3v7l3-3.5c0.9-0.3,1.9-0.4,2.7-0.4c2.3,0,4.1,0.8,5.4,2.3c1.3,1.5,1.9,3.7,1.9,6.5c0,3.8-1.1,6.8-3.4,9
			c-2.3,2.2-5.3,3.3-9.2,3.3H786h-5c0.3-0.6,0.6-1.4,0.7-2.3s0.2-2.1,0.2-3.8V370.5z M788.7,390.1c2,0,3.5-0.7,4.6-2
			c1.1-1.3,1.6-3.2,1.6-5.7c0-2.1-0.4-3.7-1.3-4.9s-2.1-1.8-3.6-1.8c-0.9,0-1.8,0.2-2.8,0.6l-1.2,0.5v13.1
			C786.8,390,787.7,390.1,788.7,390.1z"/>
		<path class="st0" d="M816.1,384.3v-12.5c0-1.9-0.1-3.4-0.2-4.7s-0.4-2.6-0.8-3.9h3.3h1.8c5.4,0,9.7,1.4,12.9,4.1
			c3.2,2.7,4.8,6.4,4.8,11.1c0,4.5-1.5,8.1-4.4,10.7c-3,2.6-6.9,4-12,4h-3H815c0.4-1.3,0.6-2.6,0.8-3.9S816.1,386.2,816.1,384.3z
			 M820.6,389.7c3.7,0,6.7-1,9-3c2.3-2,3.4-4.6,3.4-7.9c0-3.7-1.1-6.7-3.2-9c-2.1-2.3-5-3.4-8.5-3.4h-0.6V389.7z"/>
		<path class="st0" d="M850.9,393.4c-2.9,0-5.2-1-7-2.9c-1.8-1.9-2.7-4.4-2.7-7.4c0-3.3,0.8-6,2.4-8.1c1.6-2.2,3.6-3.2,6-3.2h0
			c2.4,0,4.2,0.8,5.5,2.5c1.3,1.6,1.9,4,1.9,7v1.9h-11.5c0.2,1.9,0.7,3.4,1.6,4.7c1.1,1.6,2.7,2.4,4.6,2.4c0.9,0,1.7-0.1,2.6-0.3
			s1.6-0.6,2.3-1l-1.6,4c-0.9,0.2-1.6,0.4-2.2,0.5C852.3,393.4,851.7,393.4,850.9,393.4z M853.6,380.2c0-1.8-0.3-3.2-1-4.1
			s-1.6-1.4-2.9-1.4h0c-1.4,0-2.4,0.6-3.2,1.8c-0.6,0.9-1,2.2-1.1,3.8H853.6z"/>
		<path class="st0" d="M861.9,379.5c-0.5-1.4-0.9-2.6-1.4-3.7c-0.5-1.1-1.2-2.3-2-3.6h3h3.1c-0.1,0.7-0.1,1.3-0.1,2
			c0.1,0.6,0.3,1.4,0.5,2.4l3.7,12.1h0l3.7-12.1c0.3-0.9,0.4-1.7,0.5-2.3c0.1-0.6,0-1.3-0.1-2.1h2.3h2.3c-0.6,0.8-1,1.7-1.4,2.6
			c-0.4,0.9-0.8,2.1-1.3,3.5l-4.6,14.6h-4c-1.2-4-2.2-7.5-3.1-10.4L861.9,379.5z"/>
		<path class="st0" d="M888.3,393.4c-2.9,0-5.2-1-7-2.9c-1.8-1.9-2.7-4.4-2.7-7.4c0-3.3,0.8-6,2.4-8.1c1.6-2.2,3.6-3.2,6-3.2h0
			c2.4,0,4.2,0.8,5.5,2.5c1.3,1.6,1.9,4,1.9,7v1.9H883c0.2,1.9,0.7,3.4,1.6,4.7c1.1,1.6,2.7,2.4,4.6,2.4c0.9,0,1.7-0.1,2.6-0.3
			s1.6-0.6,2.3-1l-1.6,4c-0.9,0.2-1.6,0.4-2.2,0.5C889.7,393.4,889.1,393.4,888.3,393.4z M891,380.2c0-1.8-0.3-3.2-1-4.1
			s-1.6-1.4-2.9-1.4h0c-1.4,0-2.4,0.6-3.2,1.8c-0.6,0.9-1,2.2-1.1,3.8H891z"/>
		<path class="st0" d="M898.6,386.9v-16.4c0-1.3-0.1-2.5-0.2-3.4s-0.4-1.8-0.7-2.7l3-0.6l3-0.6c-0.3,0.9-0.6,2-0.7,3.1
			c-0.1,1.2-0.2,2.7-0.2,4.7v15.8c0,1.6,0.1,2.9,0.2,3.7c0.1,0.9,0.4,1.7,0.7,2.3h-3h-3c0.3-0.6,0.6-1.4,0.7-2.3
			S898.6,388.5,898.6,386.9z"/>
		<path class="st0" d="M908.9,390.5c-1.7-1.9-2.6-4.4-2.6-7.3c0-3.3,1-6,2.9-8.2c1.9-2.2,4.4-3.3,7.3-3.3c2.6,0,4.8,1,6.5,2.9
			c1.7,1.9,2.6,4.4,2.6,7.3c0,3.3-1,6-2.9,8.2c-1.9,2.2-4.4,3.2-7.3,3.2C912.9,393.4,910.7,392.4,908.9,390.5z M920.4,387.9
			c0.7-1.3,1-2.7,1-4.4c0-2.6-0.6-4.8-1.9-6.4c-1.3-1.6-3-2.4-5.2-2.5c-1.1,0.5-2,1.3-2.7,2.6c-0.7,1.3-1,2.7-1,4.4
			c0,2.6,0.6,4.8,1.9,6.3s3,2.4,5.2,2.5C918.8,390,919.7,389.2,920.4,387.9z"/>
		<path class="st0" d="M929.6,378.3c0-1.1-0.1-2.1-0.2-3s-0.4-1.9-0.7-3h2.5h2.5v3.6l2.8-3.3l0.5-0.3c0.7-0.3,1.4-0.5,2.4-0.5
			c2.2,0,4,1,5.3,3.1s2,4.7,2,8c0,3.4-0.6,6-1.9,7.8c-1.3,1.8-3.1,2.8-5.5,2.8c-2.1,0-4-0.7-5.6-2.1v2.1c0,1.1,0.1,2.1,0.2,3
			c0.1,0.9,0.4,1.9,0.7,3.1h-3h-3c0.3-1.1,0.6-2.1,0.7-3s0.2-1.9,0.2-3V378.3z M937.2,390.1c1.7,0,3-0.6,3.9-1.9
			c0.9-1.2,1.4-3,1.4-5.3c0-2.2-0.4-4-1.3-5.3c-0.9-1.3-2.1-2-3.6-2c-0.8,0-1.6,0.2-2.6,0.6c-0.4,0.2-0.8,0.4-1.3,0.6v11.4
			C934.7,389.5,935.9,390.1,937.2,390.1z"/>
		<path class="st0" d="M950.8,386.9v-8.6c0-1.1-0.1-2.1-0.2-3c-0.1-0.9-0.4-1.9-0.7-3h2.5h2.5v4l2.6-3.2l0.9-0.6
			c0.9-0.5,1.9-0.7,3-0.7c1.6,0,2.9,0.5,3.7,1.5c0.6,0.8,1,1.8,1.2,3.1l3.1-3.4l0.8-0.5c0.9-0.5,1.8-0.7,2.8-0.7
			c1.6,0,2.8,0.5,3.7,1.5c0.8,1,1.3,2.5,1.3,4.4v9.2c0,1.8,0.1,3.1,0.2,4s0.3,1.6,0.6,2.1h-2.9h-2.9c0.3-0.6,0.6-1.4,0.7-2.3
			c0.1-0.9,0.2-2.1,0.2-3.8V379c0-1.1-0.3-1.9-0.8-2.5c-0.5-0.5-1.3-0.8-2.4-0.8c-1,0-2.1,0.3-3.3,1l-1,0.6v9.6
			c0,1.6,0.1,2.9,0.2,3.7c0.1,0.9,0.4,1.7,0.7,2.3h-3h-3c0.3-0.6,0.6-1.4,0.7-2.3c0.1-0.9,0.2-2.1,0.2-3.8V379c0-1.1-0.3-2-0.8-2.5
			s-1.3-0.8-2.4-0.8c-0.9,0-2,0.3-3.4,1l-0.9,0.5v9.7c0,1.6,0.1,2.9,0.2,3.7c0.1,0.9,0.4,1.7,0.7,2.3h-3h-3c0.3-0.6,0.6-1.4,0.7-2.3
			C950.7,389.8,950.8,388.5,950.8,386.9z"/>
		<path class="st0" d="M991.9,393.4c-2.9,0-5.2-1-7-2.9c-1.8-1.9-2.7-4.4-2.7-7.4c0-3.3,0.8-6,2.4-8.1c1.6-2.2,3.6-3.2,6-3.2h0
			c2.4,0,4.2,0.8,5.5,2.5c1.3,1.6,1.9,4,1.9,7v1.9h-11.5c0.2,1.9,0.7,3.4,1.6,4.7c1.1,1.6,2.7,2.4,4.6,2.4c0.9,0,1.7-0.1,2.6-0.3
			s1.6-0.6,2.3-1l-1.6,4c-0.9,0.2-1.6,0.4-2.2,0.5C993.3,393.4,992.6,393.4,991.9,393.4z M994.6,380.2c0-1.8-0.3-3.2-1-4.1
			s-1.6-1.4-2.9-1.4h0c-1.4,0-2.4,0.6-3.2,1.8c-0.6,0.9-1,2.2-1.1,3.8H994.6z"/>
		<path class="st0" d="M1002.1,386.9v-8.6c0-1.1-0.1-2.1-0.2-3s-0.4-1.9-0.7-3h2.5h2.5v3.6l3.1-3.6c1.1-0.3,2-0.4,2.7-0.4
			c1.9,0,3.3,0.6,4.3,1.8c1,1.2,1.5,2.9,1.5,5.1v8.2c0,1.7,0.1,3,0.2,3.9c0.1,0.9,0.3,1.6,0.6,2.1h-2.9h-2.9
			c0.3-0.6,0.6-1.4,0.7-2.3s0.2-2.1,0.2-3.8v-7.6c0-1.2-0.3-2.1-0.8-2.7c-0.6-0.6-1.4-0.9-2.6-0.9c-0.8,0-1.8,0.3-3.1,0.9l-0.9,0.4
			v9.9c0,1.6,0.1,2.9,0.2,3.7c0.1,0.9,0.4,1.7,0.7,2.3h-3h-3c0.3-0.6,0.6-1.4,0.7-2.3S1002.1,388.5,1002.1,386.9z"/>
		<path class="st0" d="M1028.1,393.4c-1.6,0-2.8-0.5-3.6-1.4c-0.7-1-1.1-2.5-1.1-4.6v-12.2h-2.9v0l7-7.4h0v4.6h4.8v2.9h-4.8v10.5
			c0,1.4,0.2,2.4,0.7,3.1c0.5,0.7,1.2,1,2.1,1c0.6,0,1.1-0.1,1.6-0.2c0.5-0.1,1.1-0.4,1.8-0.7l-1.6,4c-0.7,0.2-1.4,0.4-1.9,0.5
			C1029.7,393.4,1029,393.4,1028.1,393.4z"/>
	</g>
	<circle class="st2" cx="225.3" cy="225.3" r="26.3"/>
</g>
<g id="white">
</g>
</svg>
