<?xml version="1.0" encoding="utf-8"?>
<!-- Generator: Adobe Illustrator 22.0.1, SVG Export Plug-In . SVG Version: 6.00 Build 0)  -->
<svg version="1.1" xmlns="http://www.w3.org/2000/svg" xmlns:xlink="http://www.w3.org/1999/xlink" x="0px" y="0px"
	 viewBox="0 0 1214.1 511.9" style="enable-background:new 0 0 1214.1 511.9;" xml:space="preserve">
<style type="text/css">
	.st0{fill:#D1710A;}
	.st1{fill:#65002C;stroke:#65002C;stroke-miterlimit:10;}
	.st2{display:none;fill:#FFFFFF;stroke:#000000;stroke-miterlimit:10;}
	.st3{display:none;}
	.st4{fill:url(#SVGID_1_);stroke:#65002C;stroke-miterlimit:10;}
	.st5{display:inline;fill:url(#SVGID_2_);stroke:#65002C;stroke-miterlimit:10;}
	.st6{display:inline;fill:#B7C0CB;stroke:#65002C;stroke-miterlimit:10;}
	.st7{display:inline;fill:#030303;stroke:#65002C;stroke-miterlimit:10;}
	.st8{display:inline;fill:url(#SVGID_3_);stroke:#65002C;stroke-miterlimit:10;}
	.st9{fill:url(#SVGID_4_);stroke:#65002C;stroke-miterlimit:10;}
	.st10{fill:url(#SVGID_5_);stroke:#65002C;stroke-miterlimit:10;}
	.st11{display:inline;fill:url(#SVGID_6_);stroke:#65002C;stroke-miterlimit:10;}
	.st12{display:inline;fill:url(#SVGID_7_);stroke:#65002C;stroke-miterlimit:10;}
	.st13{display:inline;fill:#DEDEDE;stroke:#65002C;stroke-miterlimit:10;}
	.st14{display:inline;fill:#DFE3E8;stroke:#65002C;stroke-miterlimit:10;}
	.st15{display:inline;}
	.st16{fill:#747474;stroke:#65002C;stroke-miterlimit:10;}
	.st17{display:inline;fill:url(#SVGID_8_);stroke:#65002C;stroke-miterlimit:10;}
	.st18{display:inline;fill:url(#SVGID_9_);stroke:#65002C;stroke-miterlimit:10;}
	.st19{fill:#FFF2C2;stroke:#65002C;stroke-miterlimit:10;}
	.st20{fill:#FFF8DE;stroke:#65002C;stroke-miterlimit:10;}
	.st21{fill:url(#SVGID_10_);stroke:#65002C;stroke-miterlimit:10;}
	.st22{fill:url(#SVGID_11_);stroke:#65002C;stroke-miterlimit:10;}
	.st23{fill:url(#SVGID_12_);stroke:#65002C;stroke-miterlimit:10;}
	.st24{fill:url(#SVGID_13_);stroke:#65002C;stroke-miterlimit:10;}
	.st25{fill:#D38903;stroke:#65002C;stroke-miterlimit:10;}
	.st26{fill:url(#SVGID_14_);stroke:#65002C;stroke-miterlimit:10;}
	.st27{fill:#BB6600;stroke:#65002C;stroke-miterlimit:10;}
	.st28{fill:url(#SVGID_15_);stroke:#65002C;stroke-miterlimit:10;}
	.st29{fill:#65002C;}
	.st30{fill:url(#SVGID_16_);stroke:#65002C;stroke-miterlimit:10;}
	.st31{display:inline;fill:url(#SVGID_17_);stroke:#65002C;stroke-miterlimit:10;}
	.st32{display:inline;fill:url(#SVGID_18_);stroke:#65002C;stroke-miterlimit:10;}
	.st33{fill:url(#SVGID_19_);stroke:#65002C;stroke-miterlimit:10;}
	.st34{fill:url(#SVGID_20_);stroke:#65002C;stroke-miterlimit:10;}
	.st35{display:inline;fill:url(#SVGID_21_);stroke:#65002C;stroke-miterlimit:10;}
	.st36{display:inline;fill:url(#SVGID_22_);stroke:#65002C;stroke-miterlimit:10;}
	.st37{display:inline;fill:url(#SVGID_23_);stroke:#65002C;stroke-miterlimit:10;}
	.st38{display:inline;fill:url(#SVGID_24_);stroke:#65002C;stroke-miterlimit:10;}
	.st39{fill:url(#SVGID_25_);stroke:#65002C;stroke-miterlimit:10;}
	.st40{fill:url(#SVGID_26_);stroke:#65002C;stroke-miterlimit:10;}
	.st41{fill:url(#SVGID_27_);stroke:#65002C;stroke-miterlimit:10;}
	.st42{fill:url(#SVGID_28_);stroke:#65002C;stroke-miterlimit:10;}
	.st43{fill:url(#SVGID_29_);stroke:#65002C;stroke-miterlimit:10;}
	.st44{fill:url(#SVGID_30_);stroke:#65002C;stroke-miterlimit:10;}
	.st45{fill:url(#SVGID_31_);stroke:#65002C;stroke-miterlimit:10;}
	.st46{display:inline;fill:url(#SVGID_32_);stroke:#65002C;stroke-miterlimit:10;}
	.st47{display:inline;fill:url(#SVGID_33_);stroke:#65002C;stroke-miterlimit:10;}
	.st48{fill:url(#SVGID_34_);stroke:#65002C;stroke-miterlimit:10;}
	.st49{fill:url(#SVGID_35_);stroke:#65002C;stroke-miterlimit:10;}
	.st50{display:inline;fill:url(#SVGID_36_);stroke:#65002C;stroke-miterlimit:10;}
	.st51{display:inline;fill:url(#SVGID_37_);stroke:#65002C;stroke-miterlimit:10;}
	.st52{display:inline;fill:url(#SVGID_38_);stroke:#65002C;stroke-miterlimit:10;}
	.st53{display:inline;fill:url(#SVGID_39_);stroke:#65002C;stroke-miterlimit:10;}
	.st54{fill:url(#SVGID_40_);stroke:#65002C;stroke-miterlimit:10;}
	.st55{fill:url(#SVGID_41_);stroke:#65002C;stroke-miterlimit:10;}
	.st56{fill:url(#SVGID_42_);stroke:#65002C;stroke-miterlimit:10;}
	.st57{fill:url(#SVGID_43_);stroke:#65002C;stroke-miterlimit:10;}
	.st58{fill:url(#SVGID_44_);stroke:#65002C;stroke-miterlimit:10;}
	.st59{fill:url(#SVGID_45_);stroke:#65002C;stroke-miterlimit:10;}
	.st60{fill:#FFFFFF;}
	.st61{display:inline;fill:#FFFFFF;}
</style>
<g id="Layer_1">
	<circle class="st2" cx="225.3" cy="225.3" r="26.3"/>
</g>
<g id="white">
	<g>
		<g class="st3">
			<path class="st60" d="M274,65.7h-1.2c-18.4,0-36.6,1.2-54.2,3.4l-65.7-96.7l123.6-45.7L400-27.6l-66.3,97.4
				C314.3,67.2,294.3,65.7,274,65.7z"/>
			<path class="st61" d="M400,118.6c0,0-5.4-10.3-123.6-10.3c-118.1,0-123.6,10.3-123.6,10.3v-12.2c0,0,3.3-26,123.6-26
				c120.2,0,123.6,26,123.6,26V118.6z"/>
			<path class="st61" d="M400,118.6c0,6.4-55.3,10.8-123.6,10.8s-123.6-4.4-123.6-10.8c0-6.4,55.3-14.1,123.6-14.1
				C344.6,104.5,400,112.2,400,118.6z"/>
			<path class="st61" d="M388.7,120c0,4.5-50.3,7.5-112.4,7.5c-62.1,0-112.4-3.1-112.4-7.5c0-4.5,50.3-9.8,112.4-9.8
				C338.4,110.2,388.7,115.5,388.7,120z"/>
			<path class="st61" d="M400,106.4c0,0-5.4-12.5-123.6-12.5c-118.1,0-123.6,12.5-123.6,12.5V63.3c0,0,2.1-25.7,123.6-25.7
				C397.9,37.6,400,63.3,400,63.3V106.4z"/>
			<path class="st60" d="M400,44.4c0,0-5.4-18.2-123.6-18.2c-118.1,0-123.6,18.2-123.6,18.2v-86.3c0,0,9-51.5,123.6-51.5
				C390.9-93.3,400-41.8,400-41.8V44.4z"/>
			<path class="st60" d="M400,52.9c0,0-5.4-18.2-123.6-18.2c-118.1,0-123.6,18.2-123.6,18.2v-94.8c0,0,9-43,123.6-43
				c114.5,0,123.6,43,123.6,43V52.9z"/>
			<path class="st61" d="M152.8,52.9c0,0,3.7-24.7,120-24.7C389.4,28.2,400,52.9,400,52.9s-61.6-11.6-127.2-11.6
				C207.3,41.4,152.8,52.9,152.8,52.9z"/>
			<path class="st61" d="M276.4,46c-118.1,0-123.6,17.2-123.6,17.2V52.9c0,0,5.4-18.2,123.6-18.2C394.5,34.8,400,52.9,400,52.9v10.3
				C400,63.3,394.5,46,276.4,46z"/>
			<path class="st61" d="M152.8,52.9c0.6-1.2,1.6-2.1,2.7-2.8c1.1-0.8,2.2-1.4,3.4-2c2.3-1.2,4.8-2.1,7.3-3c5-1.6,10.2-2.8,15.4-3.7
				c10.4-1.9,20.9-3,31.4-3.9c21.1-1.6,42.2-2.1,63.4-2c10.6,0,21.2,0.1,31.7,0.4c10.6,0.3,21.1,0.8,31.7,1.6
				c10.5,0.9,21,2,31.4,3.9c5.2,0.9,10.3,2.1,15.4,3.7c2.5,0.8,5,1.8,7.3,3c1.2,0.6,2.3,1.2,3.4,2c1,0.8,2.1,1.6,2.7,2.8
				c-0.5-1.2-1.5-2.2-2.5-3.1c-1-0.9-2.1-1.6-3.3-2.3c-2.3-1.3-4.8-2.4-7.3-3.4c-5-1.9-10.1-3.4-15.3-4.6c-10.4-2.4-21-3.9-31.5-5
				c-21.2-2.2-42.4-2.8-63.7-2.9c-21.2,0.1-42.5,0.7-63.7,2.9c-10.6,1.1-21.1,2.6-31.5,5c-5.2,1.2-10.3,2.7-15.3,4.6
				c-2.5,1-4.9,2.1-7.2,3.4c-1.1,0.7-2.3,1.4-3.3,2.3C154.3,50.7,153.3,51.7,152.8,52.9z"/>
			<path class="st61" d="M152.8,118.6c0-0.7,0.6-1.1,1.1-1.5c0.5-0.4,1.1-0.7,1.7-0.9c1.2-0.5,2.4-0.9,3.7-1.3
				c2.5-0.7,5.1-1.3,7.6-1.7c5.1-1,10.3-1.6,15.5-2.2c10.4-1.2,20.8-2,31.2-2.7c20.9-1.3,41.8-1.9,62.7-1.8
				c20.9,0,41.8,0.6,62.7,1.8c10.4,0.7,20.9,1.5,31.2,2.7c5.2,0.6,10.4,1.3,15.5,2.2c2.6,0.5,5.1,1,7.6,1.7c1.3,0.3,2.5,0.7,3.7,1.3
				c0.6,0.3,1.2,0.5,1.7,0.9c0.5,0.4,1.1,0.8,1.1,1.5c0-0.7-0.5-1.2-1-1.6c-0.5-0.4-1.1-0.8-1.7-1.1c-1.2-0.6-2.4-1.1-3.6-1.5
				c-2.5-0.9-5-1.5-7.6-2.2c-5.1-1.2-10.3-2.2-15.5-3.1c-10.4-1.7-20.8-2.9-31.3-3.8c-20.9-1.9-41.9-2.6-62.9-2.7
				c-21,0-42,0.8-62.9,2.7c-10.5,0.9-20.9,2.1-31.3,3.8c-5.2,0.9-10.3,1.8-15.5,3.1c-2.6,0.6-5.1,1.3-7.6,2.2
				c-1.2,0.4-2.5,0.9-3.6,1.5c-0.6,0.3-1.2,0.6-1.7,1.1C153.3,117.4,152.8,117.9,152.8,118.6z"/>
			<g class="st15">
				<g>
					<path class="st60" d="M152.8,52.9c1-2.5,3.1-4.4,5.2-6c2.1-1.6,4.5-2.9,6.9-4c4.8-2.3,9.9-3.9,15.1-5.2
						c10.3-2.7,21-4.2,31.6-5.4c10.7-1.1,21.4-1.8,32.1-2.1c10.7-0.4,21.5-0.6,32.2-0.5c10.7,0,21.5,0.2,32.2,0.8
						c10.7,0.5,21.4,1.3,32.1,2.5c10.6,1.3,21.2,3,31.6,5.7c5.2,1.4,10.3,3,15.1,5.2c2.4,1.1,4.8,2.3,7.1,3.7c2.2,1.4,4.5,3,6,5.3
						c-1.3-2.4-3.4-4.3-5.5-6c-2.2-1.7-4.5-3.2-6.9-4.5c-4.8-2.7-9.9-4.7-15-6.5c-10.3-3.5-21-5.9-31.8-7.6
						c-21.5-3.5-43.3-4.5-64.9-4.7c-21.7,0-43.4,0.8-65,4c-10.8,1.6-21.5,3.8-31.9,7.2c-5.2,1.8-10.3,3.8-15,6.6
						c-2.4,1.4-4.6,3-6.7,4.8C155.4,48.1,153.5,50.3,152.8,52.9z"/>
				</g>
			</g>
			<path class="st61" d="M340.4,90.1c0,0,43.7-0.3,56.2,10V67.6c0,0-5-9.7-56.2-12.8V90.1z"/>
			<path class="st61" d="M211.1,90.1c0,0-43.7-0.3-56.2,10V67.6c0,0,5-9.7,56.2-12.8V90.1z"/>
			<g>
				<g class="st15">
					<path class="st60" d="M279.9,465.9c0.3-8.3,0.5-16.5,0.6-24.8c0.2-8.2,0.4-16.5,0.5-24.8c0.3-16.5,0.5-33,0.6-49.5
						c0.1-16.5,0.2-33,0.2-49.5c0.1-16.5,0-33-0.1-49.5l-1.4,3.4c3.2-1.9,5.8-4.7,8.2-8.7c2.3-3.9,4.1-9.2,4.9-14.9
						c0.4-2.9,0.5-5.7,0.4-8.6c0-1.2-0.1-2.8-0.2-4.2c-0.1-1.4-0.2-2.8-0.4-4.2c-0.8-5.5-2.4-10.9-4.9-14.6
						c-2.4-3.7-5.4-5.9-8.5-6.7c-3-0.9-6.1-0.3-9,1.3c-2.9,1.7-5.5,4.6-7.5,8.7c-2,4-3.2,9.2-3.5,14.4c0.7-5.1,2.1-9.8,4.1-13.3
						c2-3.5,4.6-5.9,7.3-7.1c5.3-2.3,11.5-0.2,15.3,6.4c1.9,3.3,3.1,7.6,3.6,12.2c0.1,1.2,0.2,2.4,0.3,3.6c0.1,1.2,0.1,2.3,0.1,3.7
						c0,2.3-0.2,4.7-0.5,6.9c-0.7,4.5-2.1,8.5-4,11.6c-1.9,3.1-4.4,5.5-6.8,6.8l-1.4,0.8l0,2.6c0,16.5-0.1,33-0.1,49.5
						c0,16.5,0.1,33,0.2,49.5c0.1,16.5,0.3,33,0.6,49.5c0.1,8.3,0.3,16.5,0.5,24.8C279.5,449.4,279.7,457.7,279.9,465.9z"/>
				</g>
			</g>
			<g>
				<g class="st15">
					<path class="st60" d="M279.9,465.9l8.7,0.7l0.3,0l0.1-0.5c1.9-10.2,4.6-20,7.3-29.6c2.8-9.6,5.8-18.9,9.1-27.9
						c6.5-18.1,14-35,22.1-50.7c16.3-31.5,35.6-57.6,56.3-79.8c-11.1,8.7-21.7,19.3-31.7,31.9c-10,12.5-19.2,27-27.6,42.9
						c-8.4,16-15.8,33.6-22.1,52.5c-6.2,18.9-11.4,39-14.3,60.4l0.4-0.5L279.9,465.9z"/>
				</g>
			</g>
			<path class="st60" d="M292.4,474.7c0-6.9-3.5-12.9-8.6-16c-2.3-1.4-4.9-32.4-7.6-32.4c-2,0-4,30.7-5.7,31.4
				c-6.1,2.6-10.4,9.2-10.4,17c0,10,7.2,18.1,16.2,18.1C285.1,492.8,292.4,484.7,292.4,474.7z"/>
			<path class="st60" d="M287.3,480.2c0-5.3-4.9-9.6-10.9-9.6c-6,0-10.9,4.3-10.9,9.6c0,5.3,4.9,9.6,10.9,9.6
				C282.4,489.9,287.3,485.5,287.3,480.2z"/>
			<path class="st60" d="M266.6,484.5c0,0,8.1,14.6,19.6,0C286.2,484.5,276.9,488.9,266.6,484.5z"/>
			<path class="st60" d="M258.4,420.4c0,0-18.1-96.6-81.5-144.6c0,0,15-56.5,17.8-102.4l63.6-29.7V420.4z"/>
			<g>
				<g class="st15">
					<path class="st60" d="M168.8,278.1c5.3,5.3,10.4,11,15.3,17.1c5,6.1,9.8,12.5,14.5,19.1c9.4,13.4,18.2,27.9,26.4,43.7
						c8.1,15.7,15.5,32.7,22,50.8c6.5,18.1,12.1,37.3,16.7,57.4l0.1,0.5l0.3,0l8.7-0.7l-8.7-0.7l0.4,0.5c-3.4-21-8.3-41.2-14.5-60.2
						c-6.2-18.9-13.6-36.5-22-52.5c-8.3-16-17.6-30.5-27.5-43.1C190.6,297.2,180.1,286.1,168.8,278.1z"/>
				</g>
			</g>
			<g class="st15">
				<g>
					<path class="st60" d="M272.8,465.9c1.3-33,1.8-66,2-99c0.1-33-0.1-66-0.8-99l0-1.5l-0.8-0.5c-3.1-1.9-6.2-5.3-8.4-9.9
						c-2.3-4.5-3.6-10.5-3.7-16.8c-0.1-6.2,0.9-12.6,3-17.6c2.1-5.1,5.3-8.5,8.8-10.2c-3.5,1.2-7,4.2-9.3,9.3
						c-2.4,5.1-3.7,11.8-3.7,18.5c-0.1,6.7,1.2,13.6,3.6,18.9c2.4,5.4,5.5,9.2,9.2,11.7l-0.8-2c-0.8,33-1,66-0.8,99
						C271,399.9,271.5,432.9,272.8,465.9z"/>
				</g>
			</g>
			<path class="st60" d="M292.4,420.4c0,0,18.1-96.6,81.5-144.6c0,0-15-56.5-17.8-102.4l-63.6-29.7V420.4z"/>
			<path class="st60" d="M290.5,465.9h-1.8h-8.7c7.1-2.9,12.4-206.5,12.4-220.3c0-16-7.2-28.9-16-28.9c-8.8,0-16,13-16,28.9
				c0,13.8,5.3,217.3,12.4,220.3h-8.7h-1.6c0,0-16.8-99.3-93.6-181.9v-5.9c30-55.4,37.5-149.7,37.5-149.7s15.7-17.1,70-17.1
				c54.3,0,60.9,17.1,60.9,17.1s11,98.7,46.7,149.7v5.9C303,377.4,290.5,465.9,290.5,465.9z"/>
			<polygon class="st60" points="272.8,465.9 279.9,465.9 289.9,400.3 303,201.4 255.2,201.4 262.2,400.3 			"/>
		</g>
		<g>
			<g>
				<path class="st60" d="M278.3,402.3l-0.5-139.7c9.6-2.9,16.2-9.9,16.2-23.7c0-16-14.5-27.5-26.3-27.5
					c-11.9,0-26.7,11.8-26.7,27.8c0,13.8,8.8,21.6,18.3,24.5l-0.7,202.1H251c0,0-20.8-111.7-128-187.9
					c34.7-65.1,35.9-163.4,35.9-163.4s35.6-9.3,108.6-9.3c73,0,108.6,9.3,108.6,9.3s1.3,98.3,35.9,163.4
					c-54.7,38.8-105.3,124.8-105.3,124.8L278.3,402.3z"/>
			</g>
			<path class="st60" d="M384.4,192.7c-26.3-19.3-64.2-36-117.2-36c-53,0-90.8,17-116.8,36.5c8-42.7,8.5-78.6,8.5-78.6
				c0.1,0,0.1,0,0.2-0.1c17.7-5.2,35.7-8.4,53.8-10.5c18.1-2.2,36.4-3.1,54.6-3.1c18.2,0.1,36.4,1.1,54.6,3.3
				c18.1,2.1,36,5.5,53.8,10.3c0.1,0,0.1,0,0.2,0.1C376.1,114.7,376.5,150.2,384.4,192.7z"/>
		</g>
	</g>
	<g>
		<path class="st60" d="M474.8,296.1v-97.4c0-7.7-0.4-14.3-1.3-19.6c-0.9-5.3-2.4-10.6-4.6-15.8h28h29.9c20.3,0,36,4.5,47.1,13.5
			c11,9,16.5,21.9,16.5,38.6c0,16-6.1,28.6-18.3,38c-12.2,9.3-28.7,14-49.5,14h-3.4v28.7c0,7.7,0.4,14.3,1.3,19.6
			c0.9,5.3,2.4,10.6,4.6,15.8h-28h-28.1c2.1-5.2,3.7-10.5,4.6-15.8C474.4,310.4,474.8,303.9,474.8,296.1z M519.2,237.9h1.5
			c7.8,0,14.2-2.2,19.2-6.7c5-4.4,7.5-10.2,7.5-17.2c0-6.2-2.3-11.3-7-15.3c-4.7-3.9-10.6-5.9-17.9-5.9h-3.2V237.9z"/>
		<path class="st60" d="M666.2,333.9c-19.8,0-35.5-5.4-46.9-16.2c-11.5-10.8-17.2-25.6-17.2-44.5c0-17.9,5.1-32.5,15.3-43.9
			c10.2-11.3,23.2-17,39.2-17h-0.3c15.4,0,27.4,4.8,36.1,14.5c8.7,9.7,13,23.1,13,40.3c0,4.7-0.4,9.1-1.3,13.3h-61.5
			c1.4,6.1,3.8,11.2,7,15.5c5.8,7.4,14.2,11.2,25.3,11.2c5.1,0,10.4-0.9,15.8-2.6c5.4-1.7,10.3-4.1,14.6-7.2l-14.2,34.1
			c-6.6,1-11.5,1.7-14.6,2C673.4,333.8,669.9,333.9,666.2,333.9z M670.4,257.8l-0.1-4c0-5.6-1.2-9.9-3.7-12.9c-2.5-3-6-4.5-10.5-4.5
			c-5,0-8.8,2.3-11.5,6.9c-2,3.4-3.2,8.3-3.6,14.5H670.4z"/>
		<path class="st60" d="M721.8,296.1v-46c0-8-0.4-14.7-1.2-20c-0.8-5.3-2.3-10.4-4.4-15.4h23h23v22.3l21.5-23.2
			c2.8-1.1,6-1.6,9.7-1.6c11.2,0,19.9,3,25.9,9s9,14.6,9,25.9v48.9c0,8,0.4,14.7,1.2,20c0.8,5.3,2.3,10.4,4.4,15.4H808h-25.8
			c2.1-4.9,3.5-10.1,4.4-15.4c0.8-5.3,1.2-12,1.2-20v-35.6c0-5.5-1.1-9.8-3.4-12.7c-2.3-3-5.5-4.5-9.8-4.5c-4.7,0-8.9,1.2-12.5,3.7
			v49.1c0,8,0.4,14.7,1.2,20c0.8,5.3,2.3,10.4,4.4,15.4H742h-25.8c2.1-4.9,3.5-10.1,4.4-15.4C721.4,310.8,721.8,304.1,721.8,296.1z"
			/>
		<path class="st60" d="M909.5,333.9c-19.8,0-35.5-5.4-46.9-16.2c-11.5-10.8-17.2-25.6-17.2-44.5c0-17.9,5.1-32.5,15.3-43.9
			c10.2-11.3,23.2-17,39.2-17h-0.3c15.4,0,27.4,4.8,36.1,14.5c8.7,9.7,13,23.1,13,40.3c0,4.7-0.4,9.1-1.3,13.3h-61.5
			c1.4,6.1,3.8,11.2,7,15.5c5.8,7.4,14.2,11.2,25.3,11.2c5.1,0,10.4-0.9,15.8-2.6c5.4-1.7,10.3-4.1,14.6-7.2l-14.2,34.1
			c-6.6,1-11.5,1.7-14.6,2C916.7,333.8,913.3,333.9,909.5,333.9z M913.7,257.8l-0.1-4c0-5.6-1.2-9.9-3.7-12.9c-2.5-3-6-4.5-10.5-4.5
			c-5,0-8.8,2.3-11.5,6.9c-2,3.4-3.2,8.3-3.6,14.5H913.7z"/>
		<path class="st60" d="M965.2,296.1v-90.7c0-8-0.4-14.7-1.2-20c-0.8-5.3-2.3-10.4-4.4-15.4l26.3-2.9l26.3-3
			c-2.4,4.9-4.2,11-5.2,18.4c-1,7.4-1.5,17.8-1.5,31.1v22.5l21.4-22.3c3.4-1.1,6.7-1.6,9.7-1.5c11.3,0,20,3,26,9s9,14.7,9,26v48.8
			c0,8,0.4,14.7,1.2,20c0.8,5.3,2.3,10.4,4.4,15.4h-25.8h-25.8c2.1-4.9,3.5-10.1,4.4-15.4c0.8-5.3,1.2-12,1.2-20v-36.2
			c0-5.4-1-9.5-2.8-12.3c-1.9-2.8-4.6-4.2-8.2-4.2c-5.7,0.1-10.5,1.8-14.6,5.3v47.5c0,8,0.4,14.7,1.2,20c0.8,5.3,2.3,10.4,4.4,15.4
			h-25.8h-25.8c2.1-4.9,3.5-10.1,4.4-15.4C964.8,310.8,965.2,304.1,965.2,296.1z"/>
	</g>
	<g>
		<path class="st60" d="M470.9,406.4c-4.2,0-7.7-1.4-10.5-4.2c-2.8-2.8-4.2-6.3-4.2-10.5c0-4.6,1.5-8.4,4.6-11.5s7-4.6,11.6-4.6
			c1.4,0,2.7,0.1,3.7,0.3c1,0.2,2.3,0.5,3.9,1.1v4.9c-1.5-1-2.9-1.7-4.1-2.1s-2.7-0.6-4.4-0.6c-3,0-5.4,1.1-7.4,3.3
			c-2,2.2-2.9,4.9-2.9,8.3c0,3.4,0.9,6.3,2.7,8.6c1.8,2.3,4.1,3.4,6.9,3.4h0c2.2,0,4.3-0.3,6.2-1v-2.1c0-1.9-0.1-3.4-0.2-4.7
			c-0.2-1.3-0.4-2.6-0.8-3.9h3.3h3.3c-0.4,1.3-0.7,2.6-0.8,3.9c-0.2,1.3-0.2,2.8-0.2,4.8v0.6c0,1,0,1.7,0.1,2.4s0.2,1.3,0.4,1.9
			C478.7,405.8,475,406.4,470.9,406.4L470.9,406.4z"/>
		<path class="st60" d="M487.6,399.9v-8.6c0-1.1-0.1-2.1-0.2-3c-0.1-0.9-0.4-1.9-0.7-3h2.5h2.5v3.7l3.2-3.6c1-0.3,1.9-0.5,2.7-0.5
			c0.7,0,1.3,0.1,1.8,0.4l-0.8,4.5l-0.2-0.1c-0.8-0.6-1.7-0.9-2.8-0.9c-0.8,0-1.8,0.3-3.1,0.9l-0.9,0.4v9.9c0,1.6,0.1,2.9,0.2,3.7
			c0.1,0.9,0.4,1.7,0.7,2.3h-3h-3c0.3-0.6,0.6-1.4,0.7-2.3C487.5,402.8,487.6,401.5,487.6,399.9z"/>
		<path class="st60" d="M506.6,406.4c-2,0-3.6-0.4-4.7-1.3s-1.6-2.1-1.6-3.7c0-1.1,0.4-2.1,1.2-3c0.8-0.9,1.8-1.7,3.1-2.2l6.1-2.5
			v-1.9c0-1.1-0.3-2-1-2.7c-0.7-0.7-1.6-1-2.8-1c-0.8,0-1.5,0.1-2.2,0.4c-0.7,0.3-1.5,0.7-2.3,1.3l1.1-4c0.8-0.3,1.6-0.6,2.4-0.8
			c0.8-0.2,1.5-0.2,2.3-0.2c2.2,0,3.9,0.6,5,1.8c1.1,1.2,1.7,2.9,1.7,5.2v8.1c0,1.7,0.1,3,0.2,3.9c0.1,0.9,0.3,1.6,0.6,2.1h-2.4
			h-2.4v-2l-3.2,2.4L506.6,406.4z M510.7,402.8v-5.7h-5.3c-0.1,0-0.3,0.4-0.5,1.2c-0.2,0.8-0.3,1.4-0.3,1.9c0,1,0.3,1.7,1,2.2
			c0.6,0.5,1.6,0.7,2.9,0.7C509.2,403.1,509.9,403,510.7,402.8L510.7,402.8z"/>
		<path class="st60" d="M520,391.3c0-1.1-0.1-2.1-0.2-3s-0.4-1.9-0.7-3h2.5h2.5v3.6l2.8-3.3l0.5-0.3c0.7-0.3,1.4-0.5,2.4-0.5
			c2.2,0,4,1,5.3,3.1s2,4.7,2,8c0,3.4-0.6,6-1.9,7.8c-1.3,1.8-3.1,2.8-5.5,2.8c-2.1,0-4-0.7-5.6-2.1v2.1c0,1.1,0.1,2.1,0.2,3
			c0.1,0.9,0.4,1.9,0.7,3.1h-3h-3c0.3-1.1,0.6-2.1,0.7-3s0.2-1.9,0.2-3V391.3z M527.6,403.1c1.7,0,3-0.6,3.9-1.9
			c0.9-1.2,1.4-3,1.4-5.3c0-2.2-0.4-4-1.3-5.3c-0.9-1.3-2.1-2-3.6-2c-0.8,0-1.6,0.2-2.6,0.6c-0.4,0.2-0.8,0.4-1.3,0.6v11.4
			C525.1,402.5,526.2,403.1,527.6,403.1z"/>
		<path class="st60" d="M541.3,399.9v-16.4c0-1.3-0.1-2.5-0.2-3.4c-0.1-0.9-0.4-1.8-0.7-2.7l3-0.6l3-0.6c-0.3,0.9-0.6,2-0.7,3.1
			c-0.1,1.2-0.2,2.7-0.2,4.7v4.7l3.1-3.6c1.1-0.3,2-0.4,2.7-0.4c1.9,0,3.3,0.6,4.3,1.8c1,1.2,1.5,2.9,1.5,5.1v8.2
			c0,1.7,0.1,3,0.2,3.9c0.1,0.9,0.3,1.6,0.6,2.1h-2.9H552c0.3-0.6,0.6-1.4,0.7-2.3s0.2-2.1,0.2-3.8v-7.6c0-1.2-0.3-2.1-0.8-2.7
			c-0.6-0.6-1.4-0.9-2.6-0.9c-0.8,0-1.8,0.3-3.1,0.9l-0.9,0.4v9.9c0,1.6,0.1,2.9,0.2,3.7c0.1,0.9,0.4,1.7,0.7,2.3h-3h-3
			c0.3-0.6,0.6-1.4,0.7-2.3C541.2,402.8,541.3,401.5,541.3,399.9z"/>
		<path class="st60" d="M562.3,399.9v-8.6c0-1.1-0.1-2.1-0.2-3s-0.4-1.9-0.7-3h3h3c-0.3,0.7-0.6,1.4-0.7,2.3
			c-0.1,0.9-0.2,2.1-0.2,3.7v8.6c0,1.6,0.1,2.9,0.2,3.7c0.1,0.9,0.4,1.7,0.7,2.3h-3h-3c0.3-0.6,0.6-1.4,0.7-2.3
			S562.3,401.5,562.3,399.9z M564.2,376.6c0.8,0,1.4,0.3,2,0.9c0.5,0.6,0.8,1.4,0.8,2.3s-0.3,1.7-0.8,2.3c-0.5,0.6-1.2,0.9-2,0.9
			s-1.4-0.3-2-0.9c-0.5-0.6-0.8-1.4-0.8-2.3s0.3-1.7,0.8-2.3S563.4,376.6,564.2,376.6z"/>
		<path class="st60" d="M584.1,405.8c-0.9,0.2-1.7,0.4-2.3,0.5c-0.6,0.1-1.3,0.1-2,0.1c-2.7,0-5-1-6.8-2.9c-1.8-1.9-2.7-4.4-2.7-7.3
			c0-3.3,1-6,3-8.2c2-2.2,4.5-3.3,7.6-3.3c0.8,0,1.5,0,2.1,0.1c0.6,0.1,1.4,0.2,2.5,0.4l-0.2,4.8c-0.8-0.8-1.5-1.4-2.3-1.8
			c-0.8-0.4-1.6-0.6-2.5-0.6c-1.8,0-3.3,0.7-4.3,2.1c-1.1,1.4-1.6,3.2-1.6,5.6c0,2.4,0.6,4.3,1.7,5.7c1.1,1.4,2.7,2.1,4.6,2.1
			c0.7,0,1.3-0.1,2.1-0.3c0.7-0.2,1.7-0.5,2.9-1L584.1,405.8z"/>
		<path class="st60" d="M602.8,397.3v-12.5c0-1.9-0.1-3.4-0.2-4.7s-0.4-2.6-0.8-3.9h3.3h1.8c5.4,0,9.7,1.4,12.9,4.1
			c3.2,2.7,4.8,6.4,4.8,11.1c0,4.5-1.5,8.1-4.4,10.7c-3,2.6-6.9,4-12,4h-3h-3.3c0.4-1.3,0.6-2.6,0.8-3.9S602.8,399.2,602.8,397.3z
			 M607.3,402.7c3.7,0,6.7-1,9-3c2.3-2,3.4-4.6,3.4-7.9c0-3.7-1.1-6.7-3.2-9c-2.1-2.3-5-3.4-8.5-3.4h-0.6V402.7z"/>
		<path class="st60" d="M637.6,406.4c-2.9,0-5.2-1-7-2.9c-1.8-1.9-2.7-4.4-2.7-7.4c0-3.3,0.8-6,2.4-8.1c1.6-2.2,3.6-3.2,6-3.2h0
			c2.4,0,4.2,0.8,5.5,2.5c1.3,1.6,1.9,4,1.9,7v1.9h-11.5c0.2,1.9,0.7,3.4,1.6,4.7c1.1,1.6,2.7,2.4,4.6,2.4c0.9,0,1.7-0.1,2.6-0.3
			s1.6-0.6,2.3-1l-1.6,4c-0.9,0.2-1.6,0.4-2.2,0.5C639,406.4,638.4,406.4,637.6,406.4z M640.3,393.2c0-1.8-0.3-3.2-1-4.1
			s-1.6-1.4-2.9-1.4h0c-1.4,0-2.4,0.6-3.2,1.8c-0.6,0.9-1,2.2-1.1,3.8H640.3z"/>
		<path class="st60" d="M657.4,389.7c-0.6-0.7-1.2-1.2-1.8-1.5c-0.6-0.3-1.3-0.5-2-0.5c-0.8,0-1.5,0.2-2.1,0.6
			c-0.5,0.4-0.8,1-0.8,1.6c0,0.6,0.2,1.2,0.6,1.7c0.4,0.5,1,1.1,2,1.9c1.7,1.3,2.9,2.5,3.6,3.4c0.7,1,1,2,1,3.2
			c0,1.8-0.6,3.3-1.9,4.4c-1.2,1.2-2.8,1.8-4.7,1.8c-1,0-1.9-0.1-2.6-0.2c-0.7-0.1-1.6-0.4-2.7-0.7v-4.9c0.8,1,1.6,1.7,2.4,2.2
			s1.6,0.7,2.5,0.7c0.8,0,1.5-0.2,2-0.7c0.5-0.5,0.8-1.1,0.8-1.8c0-0.6-0.2-1.1-0.6-1.7c-0.4-0.5-1.2-1.3-2.4-2.2
			c-1.5-1.2-2.6-2.2-3.2-3.2c-0.6-0.9-0.9-2-0.9-3.1c0-1.7,0.7-3.1,2-4.2c1.4-1.1,3-1.7,5.1-1.7c0.7,0,1.4,0.1,1.9,0.2
			c0.5,0.1,1.2,0.4,1.9,0.7V389.7z"/>
		<path class="st60" d="M661.5,399.9v-8.6c0-1.1-0.1-2.1-0.2-3s-0.4-1.9-0.7-3h3h3c-0.3,0.7-0.6,1.4-0.7,2.3
			c-0.1,0.9-0.2,2.1-0.2,3.7v8.6c0,1.6,0.1,2.9,0.2,3.7c0.1,0.9,0.4,1.7,0.7,2.3h-3h-3c0.3-0.6,0.6-1.4,0.7-2.3
			S661.5,401.5,661.5,399.9z M663.5,376.6c0.8,0,1.4,0.3,2,0.9c0.5,0.6,0.8,1.4,0.8,2.3s-0.3,1.7-0.8,2.3c-0.5,0.6-1.2,0.9-2,0.9
			s-1.4-0.3-2-0.9c-0.5-0.6-0.8-1.4-0.8-2.3s0.3-1.7,0.8-2.3S662.7,376.6,663.5,376.6z"/>
		<path class="st60" d="M674.4,400.4c0,0.4,0.2,0.7,0.6,0.9c0.4,0.2,1,0.4,1.6,0.4h4.5c1.8,0,3.1,0.4,3.9,1.1s1.2,1.9,1.2,3.5
			c0,1.8-0.9,3.3-2.6,4.5c-1.7,1.2-3.8,1.8-6.3,1.8c-2.5,0-4.4-0.3-5.7-0.8c-1.3-0.5-1.9-1.3-1.9-2.3c0-0.5,0.3-1.1,0.8-1.7
			c0.5-0.6,1.5-1.6,3-3c-1.1-0.1-1.9-0.3-2.5-0.5c-0.9-0.4-1.3-0.9-1.3-1.7c0-0.6,0.2-1.1,0.7-1.5c0.5-0.4,1.7-1.3,3.6-2.7
			c-0.7-0.3-1.4-0.8-2.1-1.3c-1.4-1.3-2.1-2.9-2.1-4.8c0-2.2,0.7-4,2.1-5.5c1.4-1.5,3.1-2.2,5.2-2.2c1.6,0,3,0.4,4.2,1.2h2.1
			c0.8,0,1.6,0,2.4-0.1c0.8-0.1,1.4-0.2,1.7-0.3l-0.4,3.3l-3.4,0c0.4,0.9,0.6,2,0.6,3.2c0,2-0.7,3.7-2.1,5c-1.4,1.3-3.1,2-5.2,2
			c-0.5,0-1,0-1.5-0.1c-0.3,0.2-0.6,0.4-0.9,0.6C674.5,399.9,674.4,400.2,674.4,400.4z M676.9,387.7c-1,0-1.7,0.3-2.3,1
			c-0.6,0.7-0.9,1.6-0.9,2.8c0,1.3,0.4,2.4,1.1,3.4c0.7,0.9,1.6,1.4,2.6,1.4h0c1,0,1.8-0.3,2.4-1c0.6-0.7,0.9-1.6,0.9-2.8
			c0-1.3-0.4-2.5-1.1-3.4C678.9,388.1,678,387.7,676.9,387.7L676.9,387.7z M674,407.1c0,0.7,0.3,1.3,0.9,1.7
			c0.6,0.4,1.6,0.5,2.9,0.5c1.4,0,2.5-0.2,3.2-0.6c0.7-0.4,1-0.9,1-1.7c0-0.6-0.2-1.1-0.7-1.5c-0.5-0.4-1.2-0.6-2-0.6h-4.1
			c-0.4,0.2-0.7,0.6-0.9,1C674.1,406.3,674,406.7,674,407.1z"/>
		<path class="st60" d="M689.6,399.9v-8.6c0-1.1-0.1-2.1-0.2-3s-0.4-1.9-0.7-3h2.5h2.5v3.6l3.1-3.6c1.1-0.3,2-0.4,2.7-0.4
			c1.9,0,3.3,0.6,4.3,1.8c1,1.2,1.5,2.9,1.5,5.1v8.2c0,1.7,0.1,3,0.2,3.9c0.1,0.9,0.3,1.6,0.6,2.1h-2.9h-2.9
			c0.3-0.6,0.6-1.4,0.7-2.3s0.2-2.1,0.2-3.8v-7.6c0-1.2-0.3-2.1-0.8-2.7c-0.6-0.6-1.4-0.9-2.6-0.9c-0.8,0-1.8,0.3-3.1,0.9l-0.9,0.4
			v9.9c0,1.6,0.1,2.9,0.2,3.7c0.1,0.9,0.4,1.7,0.7,2.3h-3h-3c0.3-0.6,0.6-1.4,0.7-2.3S689.6,401.5,689.6,399.9z"/>
		<path class="st60" d="M723.7,387.1c0-1.7,0.6-3.2,1.9-4.3c1.2-1.1,2.8-1.7,4.7-1.7s3.4,0.5,4.6,1.6s1.8,2.4,1.8,4
			c0,1.4-0.4,2.5-1.1,3.5c-0.4,0.5-0.9,1-1.5,1.4l1.2,0.6c1.3,0.7,2.5,1.4,3.3,2l2.8,2c0.5-1.3,0.9-3.1,1.2-5.2
			c0.3-2,0.4-4.1,0.4-6.2c-0.7,0-1.4,0.1-2.2,0.2c-0.9,0.1-1.5,0.3-2.1,0.5v-4h4.5h4.2h4.5v4c-0.5-0.2-1.2-0.4-2.1-0.5
			c-0.9-0.1-1.7-0.2-2.4-0.2h-0.7c0.1,1.9-0.1,3.9-0.4,6c-0.4,2.9-1.1,5.4-2.1,7.6l2.3,1.8c1,0.8,2.2,1.5,3.4,2.2
			c1.3,0.7,2.3,1.1,3.2,1.4l-4,2.3c-0.7-0.2-1.5-0.5-2.4-1c-0.9-0.5-1.7-1-2.4-1.5l-2.3-1.8c-0.9,1-2,1.8-3.3,2.6
			c-2.3,1.3-4.7,2-7.1,2c-2.9,0-5.3-0.7-7.3-2.2c-1.9-1.5-2.9-3.4-2.9-5.6c0-1.9,0.6-3.5,1.9-4.9c0.7-0.8,1.7-1.5,2.8-2.1l-0.6-0.5
			C724.4,390,723.7,388.7,723.7,387.1z M732,402.8c1.6,0,3.2-0.5,4.9-1.5c0.9-0.5,1.6-1.1,2.3-1.8l-3.2-2.4
			c-0.7-0.5-1.6-1.1-2.8-1.6c-1.3-0.6-2.5-1.2-3.6-1.8c-0.9,0.4-1.6,0.9-2.2,1.4c-1.1,1-1.7,2.2-1.7,3.6c0,1.2,0.6,2.1,1.8,2.9
			C728.8,402.4,730.2,402.8,732,402.8z M727.5,387c0,0.8,0.3,1.4,0.8,1.9s1.2,0.8,2,0.8c0.9,0,1.6-0.2,2.1-0.7
			c0.5-0.5,0.7-1.2,0.7-2.1c0-0.7-0.3-1.2-0.8-1.7c-0.5-0.5-1.2-0.7-2-0.7s-1.4,0.2-2,0.7C727.8,385.6,727.5,386.2,727.5,387z"/>
		<path class="st60" d="M775.1,405.9l-5.6-21.2c-0.7-2.5-1.2-4.3-1.7-5.6c-0.5-1.3-1-2.3-1.5-3h3.6h3.7c-0.3,0.7-0.5,1.8-0.5,3
			c0,1.3,0.2,2.6,0.5,3.9l3.6,14.5h0l7.2-22h0l7.1,21.9h0l3.6-14.4c0.3-1.2,0.5-2.5,0.5-3.8c0-1.3-0.1-2.4-0.5-3.1h3.7h3.7
			c-0.5,0.7-1,1.7-1.5,3c-0.5,1.3-1,3.1-1.7,5.6l-5.7,21.2h-3.6l-5.8-17.1h0l-5.6,17.1H775.1z"/>
		<path class="st60" d="M813.8,406.4c-2.9,0-5.2-1-7-2.9c-1.8-1.9-2.7-4.4-2.7-7.4c0-3.3,0.8-6,2.4-8.1c1.6-2.2,3.6-3.2,6-3.2h0
			c2.4,0,4.2,0.8,5.5,2.5c1.3,1.6,1.9,4,1.9,7v1.9h-11.5c0.2,1.9,0.7,3.4,1.6,4.7c1.1,1.6,2.7,2.4,4.6,2.4c0.9,0,1.7-0.1,2.6-0.3
			s1.6-0.6,2.3-1l-1.6,4c-0.9,0.2-1.6,0.4-2.2,0.5C815.2,406.4,814.6,406.4,813.8,406.4z M816.5,393.2c0-1.8-0.3-3.2-1-4.1
			s-1.6-1.4-2.9-1.4h0c-1.4,0-2.4,0.6-3.2,1.8c-0.6,0.9-1,2.2-1.1,3.8H816.5z"/>
		<path class="st60" d="M823.8,383.5c0-1.3-0.1-2.5-0.2-3.4s-0.4-1.8-0.7-2.7l3-0.6l3-0.6c-0.3,0.7-0.6,1.4-0.7,2.2
			c-0.1,0.8-0.2,1.9-0.2,3.3v7l3-3.5c0.9-0.3,1.9-0.4,2.7-0.4c2.3,0,4.1,0.8,5.4,2.3c1.3,1.5,1.9,3.7,1.9,6.5c0,3.8-1.1,6.8-3.4,9
			c-2.3,2.2-5.3,3.3-9.2,3.3H828h-5c0.3-0.6,0.6-1.4,0.7-2.3s0.2-2.1,0.2-3.8V383.5z M830.7,403.1c2,0,3.5-0.7,4.6-2
			c1.1-1.3,1.6-3.2,1.6-5.7c0-2.1-0.4-3.7-1.3-4.9s-2.1-1.8-3.6-1.8c-0.9,0-1.8,0.2-2.8,0.6l-1.2,0.5v13.1
			C828.8,403,829.7,403.1,830.7,403.1z"/>
		<path class="st60" d="M858.1,397.3v-12.5c0-1.9-0.1-3.4-0.2-4.7s-0.4-2.6-0.8-3.9h3.3h1.8c5.4,0,9.7,1.4,12.9,4.1
			c3.2,2.7,4.8,6.4,4.8,11.1c0,4.5-1.5,8.1-4.4,10.7c-3,2.6-6.9,4-12,4h-3H857c0.4-1.3,0.6-2.6,0.8-3.9S858.1,399.2,858.1,397.3z
			 M862.6,402.7c3.7,0,6.7-1,9-3c2.3-2,3.4-4.6,3.4-7.9c0-3.7-1.1-6.7-3.2-9c-2.1-2.3-5-3.4-8.5-3.4h-0.6V402.7z"/>
		<path class="st60" d="M892.9,406.4c-2.9,0-5.2-1-7-2.9c-1.8-1.9-2.7-4.4-2.7-7.4c0-3.3,0.8-6,2.4-8.1c1.6-2.2,3.6-3.2,6-3.2h0
			c2.4,0,4.2,0.8,5.5,2.5c1.3,1.6,1.9,4,1.9,7v1.9h-11.5c0.2,1.9,0.7,3.4,1.6,4.7c1.1,1.6,2.7,2.4,4.6,2.4c0.9,0,1.7-0.1,2.6-0.3
			s1.6-0.6,2.3-1l-1.6,4c-0.9,0.2-1.6,0.4-2.2,0.5C894.3,406.4,893.7,406.4,892.9,406.4z M895.6,393.2c0-1.8-0.3-3.2-1-4.1
			s-1.6-1.4-2.9-1.4h0c-1.4,0-2.4,0.6-3.2,1.8c-0.6,0.9-1,2.2-1.1,3.8H895.6z"/>
		<path class="st60" d="M903.9,392.5c-0.5-1.4-0.9-2.6-1.4-3.7c-0.5-1.1-1.2-2.3-2-3.6h3h3.1c-0.1,0.7-0.1,1.3-0.1,2
			c0.1,0.6,0.3,1.4,0.5,2.4l3.7,12.1h0l3.7-12.1c0.3-0.9,0.4-1.7,0.5-2.3c0.1-0.6,0-1.3-0.1-2.1h2.3h2.3c-0.6,0.8-1,1.7-1.4,2.6
			c-0.4,0.9-0.8,2.1-1.3,3.5l-4.6,14.6h-4c-1.2-4-2.2-7.5-3.1-10.4L903.9,392.5z"/>
		<path class="st60" d="M930.3,406.4c-2.9,0-5.2-1-7-2.9c-1.8-1.9-2.7-4.4-2.7-7.4c0-3.3,0.8-6,2.4-8.1c1.6-2.2,3.6-3.2,6-3.2h0
			c2.4,0,4.2,0.8,5.5,2.5c1.3,1.6,1.9,4,1.9,7v1.9H925c0.2,1.9,0.7,3.4,1.6,4.7c1.1,1.6,2.7,2.4,4.6,2.4c0.9,0,1.7-0.1,2.6-0.3
			s1.6-0.6,2.3-1l-1.6,4c-0.9,0.2-1.6,0.4-2.2,0.5C931.7,406.4,931.1,406.4,930.3,406.4z M933,393.2c0-1.8-0.3-3.2-1-4.1
			s-1.6-1.4-2.9-1.4h0c-1.4,0-2.4,0.6-3.2,1.8c-0.6,0.9-1,2.2-1.1,3.8H933z"/>
		<path class="st60" d="M940.6,399.9v-16.4c0-1.3-0.1-2.5-0.2-3.4s-0.4-1.8-0.7-2.7l3-0.6l3-0.6c-0.3,0.9-0.6,2-0.7,3.1
			c-0.1,1.2-0.2,2.7-0.2,4.7v15.8c0,1.6,0.1,2.9,0.2,3.7c0.1,0.9,0.4,1.7,0.7,2.3h-3h-3c0.3-0.6,0.6-1.4,0.7-2.3
			S940.6,401.5,940.6,399.9z"/>
		<path class="st60" d="M950.9,403.5c-1.7-1.9-2.6-4.4-2.6-7.3c0-3.3,1-6,2.9-8.2c1.9-2.2,4.4-3.3,7.3-3.3c2.6,0,4.8,1,6.5,2.9
			c1.7,1.9,2.6,4.4,2.6,7.3c0,3.3-1,6-2.9,8.2c-1.9,2.2-4.4,3.2-7.3,3.2C954.9,406.4,952.7,405.4,950.9,403.5z M962.4,400.9
			c0.7-1.3,1-2.7,1-4.4c0-2.6-0.6-4.8-1.9-6.4c-1.3-1.6-3-2.4-5.2-2.5c-1.1,0.5-2,1.3-2.7,2.6c-0.7,1.3-1,2.7-1,4.4
			c0,2.6,0.6,4.8,1.9,6.3s3,2.4,5.2,2.5C960.8,403,961.7,402.2,962.4,400.9z"/>
		<path class="st60" d="M971.6,391.3c0-1.1-0.1-2.1-0.2-3s-0.4-1.9-0.7-3h2.5h2.5v3.6l2.8-3.3l0.5-0.3c0.7-0.3,1.4-0.5,2.4-0.5
			c2.2,0,4,1,5.3,3.1s2,4.7,2,8c0,3.4-0.6,6-1.9,7.8c-1.3,1.8-3.1,2.8-5.5,2.8c-2.1,0-4-0.7-5.6-2.1v2.1c0,1.1,0.1,2.1,0.2,3
			c0.1,0.9,0.4,1.9,0.7,3.1h-3h-3c0.3-1.1,0.6-2.1,0.7-3s0.2-1.9,0.2-3V391.3z M979.2,403.1c1.7,0,3-0.6,3.9-1.9
			c0.9-1.2,1.4-3,1.4-5.3c0-2.2-0.4-4-1.3-5.3c-0.9-1.3-2.1-2-3.6-2c-0.8,0-1.6,0.2-2.6,0.6c-0.4,0.2-0.8,0.4-1.3,0.6v11.4
			C976.7,402.5,977.9,403.1,979.2,403.1z"/>
		<path class="st60" d="M992.8,399.9v-8.6c0-1.1-0.1-2.1-0.2-3c-0.1-0.9-0.4-1.9-0.7-3h2.5h2.5v4l2.6-3.2l0.9-0.6
			c0.9-0.5,1.9-0.7,3-0.7c1.6,0,2.9,0.5,3.7,1.5c0.6,0.8,1,1.8,1.2,3.1l3.1-3.4l0.8-0.5c0.9-0.5,1.8-0.7,2.8-0.7
			c1.6,0,2.8,0.5,3.7,1.5c0.8,1,1.3,2.5,1.3,4.4v9.2c0,1.8,0.1,3.1,0.2,4s0.3,1.6,0.6,2.1h-2.9h-2.9c0.3-0.6,0.6-1.4,0.7-2.3
			c0.1-0.9,0.2-2.1,0.2-3.8V392c0-1.1-0.3-1.9-0.8-2.5c-0.5-0.5-1.3-0.8-2.4-0.8c-1,0-2.1,0.3-3.3,1l-1,0.6v9.6
			c0,1.6,0.1,2.9,0.2,3.7c0.1,0.9,0.4,1.7,0.7,2.3h-3h-3c0.3-0.6,0.6-1.4,0.7-2.3c0.1-0.9,0.2-2.1,0.2-3.8V392c0-1.1-0.3-2-0.8-2.5
			s-1.3-0.8-2.4-0.8c-0.9,0-2,0.3-3.4,1l-0.9,0.5v9.7c0,1.6,0.1,2.9,0.2,3.7c0.1,0.9,0.4,1.7,0.7,2.3h-3h-3c0.3-0.6,0.6-1.4,0.7-2.3
			C992.7,402.8,992.8,401.5,992.8,399.9z"/>
		<path class="st60" d="M1033.9,406.4c-2.9,0-5.2-1-7-2.9c-1.8-1.9-2.7-4.4-2.7-7.4c0-3.3,0.8-6,2.4-8.1c1.6-2.2,3.6-3.2,6-3.2h0
			c2.4,0,4.2,0.8,5.5,2.5c1.3,1.6,1.9,4,1.9,7v1.9h-11.5c0.2,1.9,0.7,3.4,1.6,4.7c1.1,1.6,2.7,2.4,4.6,2.4c0.9,0,1.7-0.1,2.6-0.3
			s1.6-0.6,2.3-1l-1.6,4c-0.9,0.2-1.6,0.4-2.2,0.5C1035.3,406.4,1034.6,406.4,1033.9,406.4z M1036.6,393.2c0-1.8-0.3-3.2-1-4.1
			s-1.6-1.4-2.9-1.4h0c-1.4,0-2.4,0.6-3.2,1.8c-0.6,0.9-1,2.2-1.1,3.8H1036.6z"/>
		<path class="st60" d="M1044.1,399.9v-8.6c0-1.1-0.1-2.1-0.2-3s-0.4-1.9-0.7-3h2.5h2.5v3.6l3.1-3.6c1.1-0.3,2-0.4,2.7-0.4
			c1.9,0,3.3,0.6,4.3,1.8c1,1.2,1.5,2.9,1.5,5.1v8.2c0,1.7,0.1,3,0.2,3.9c0.1,0.9,0.3,1.6,0.6,2.1h-2.9h-2.9
			c0.3-0.6,0.6-1.4,0.7-2.3s0.2-2.1,0.2-3.8v-7.6c0-1.2-0.3-2.1-0.8-2.7c-0.6-0.6-1.4-0.9-2.6-0.9c-0.8,0-1.8,0.3-3.1,0.9l-0.9,0.4
			v9.9c0,1.6,0.1,2.9,0.2,3.7c0.1,0.9,0.4,1.7,0.7,2.3h-3h-3c0.3-0.6,0.6-1.4,0.7-2.3S1044.1,401.5,1044.1,399.9z"/>
		<path class="st60" d="M1070.1,406.4c-1.6,0-2.8-0.5-3.6-1.4c-0.7-1-1.1-2.5-1.1-4.6v-12.2h-2.9v0l7-7.4h0v4.6h4.8v2.9h-4.8v10.5
			c0,1.4,0.2,2.4,0.7,3.1c0.5,0.7,1.2,1,2.1,1c0.6,0,1.1-0.1,1.6-0.2c0.5-0.1,1.1-0.4,1.8-0.7l-1.6,4c-0.7,0.2-1.4,0.4-1.9,0.5
			C1071.7,406.4,1071,406.4,1070.1,406.4z"/>
	</g>
</g>
</svg>
